<?xml version="1.0" encoding="UTF-8"?>
<svg xmlns="http://www.w3.org/2000/svg" xmlns:xlink="http://www.w3.org/1999/xlink" viewBox="0 0 333.53 430.54">
  <defs>
    <style>
      .cls-1, .cls-2 {
        fill: #ffb700;
      }

      .cls-3 {
        fill: url(#linear-gradient-2);
      }

      .cls-4 {
        fill: url(#linear-gradient-9);
      }

      .cls-4, .cls-2, .cls-5, .cls-6, .cls-7, .cls-8, .cls-9, .cls-10 {
        mix-blend-mode: multiply;
      }

      .cls-11 {
        fill: url(#linear-gradient-4);
      }

      .cls-12 {
        fill: #828899;
      }

      .cls-13 {
        fill: url(#linear-gradient-3);
      }

      .cls-14, .cls-15, .cls-16, .cls-8, .cls-17 {
        fill: none;
      }

      .cls-14, .cls-15, .cls-8, .cls-17 {
        stroke-miterlimit: 10;
      }

      .cls-14, .cls-16 {
        stroke: #000;
        stroke-width: 2px;
      }

      .cls-18 {
        isolation: isolate;
      }

      .cls-15, .cls-8 {
        stroke: #ffb700;
      }

      .cls-5 {
        fill: url(#linear-gradient-8);
      }

      .cls-16 {
        stroke-linecap: round;
        stroke-linejoin: round;
      }

      .cls-6 {
        fill: url(#linear-gradient-10);
      }

      .cls-7 {
        fill: url(#linear-gradient-5);
      }

      .cls-19 {
        fill: url(#linear-gradient-7);
      }

      .cls-20 {
        fill: #a3aabf;
      }

      .cls-17 {
        stroke: #a3aabf;
      }

      .cls-21 {
        fill: url(#linear-gradient);
      }

      .cls-10 {
        fill: url(#linear-gradient-6);
      }
    </style>
    <linearGradient id="linear-gradient" x1="243.79" y1="274.71" x2="221.21" y2="274.71" gradientUnits="userSpaceOnUse">
      <stop offset="0" stop-color="#828899"/>
      <stop offset=".22" stop-color="#828899" stop-opacity=".59"/>
      <stop offset=".46" stop-color="#828899" stop-opacity=".17"/>
      <stop offset=".58" stop-color="#828899" stop-opacity="0"/>
    </linearGradient>
    <linearGradient id="linear-gradient-2" x1="12818.61" y1="274.71" x2="12796.03" y2="274.71" gradientTransform="translate(12908.4) rotate(-180) scale(1 -1)" xlink:href="#linear-gradient"/>
    <linearGradient id="linear-gradient-3" x1="238.29" y1="134.69" x2="206.86" y2="134.69" xlink:href="#linear-gradient"/>
    <linearGradient id="linear-gradient-4" x1="16599.02" y1="134.69" x2="16567.59" y2="134.69" gradientTransform="translate(16694.3) rotate(-180) scale(1 -1)" xlink:href="#linear-gradient"/>
    <linearGradient id="linear-gradient-5" x1="166.77" y1="159.09" x2="166.77" y2="81.98" gradientUnits="userSpaceOnUse">
      <stop offset=".31" stop-color="#ffb700"/>
      <stop offset=".46" stop-color="#ffb700" stop-opacity=".76"/>
      <stop offset=".73" stop-color="#ffb700" stop-opacity=".36"/>
      <stop offset=".91" stop-color="#ffb700" stop-opacity=".1"/>
      <stop offset="1" stop-color="#ffb700" stop-opacity="0"/>
    </linearGradient>
    <linearGradient id="linear-gradient-6" x1="123.88" y1="272.27" x2="68.41" y2="271.7" gradientUnits="userSpaceOnUse">
      <stop offset=".14" stop-color="#828899"/>
      <stop offset=".4" stop-color="#828899" stop-opacity=".59"/>
      <stop offset=".69" stop-color="#828899" stop-opacity=".17"/>
      <stop offset=".82" stop-color="#828899" stop-opacity="0"/>
    </linearGradient>
    <linearGradient id="linear-gradient-7" x1="157.98" y1="105.53" x2="168" y2="201.57" gradientUnits="userSpaceOnUse">
      <stop offset=".1" stop-color="#828899"/>
      <stop offset=".44" stop-color="#828899" stop-opacity=".59"/>
      <stop offset=".82" stop-color="#828899" stop-opacity=".17"/>
      <stop offset="1" stop-color="#828899" stop-opacity="0"/>
    </linearGradient>
    <linearGradient id="linear-gradient-8" x1="16732.83" y1="331.47" x2="16634.88" y2="328.83" gradientTransform="translate(16884.67 519.92) rotate(-180)" gradientUnits="userSpaceOnUse">
      <stop offset=".1" stop-color="#828899"/>
      <stop offset=".35" stop-color="#828899" stop-opacity=".59"/>
      <stop offset=".62" stop-color="#828899" stop-opacity=".17"/>
      <stop offset=".76" stop-color="#828899" stop-opacity="0"/>
    </linearGradient>
    <linearGradient id="linear-gradient-9" x1="16712.93" y1="254.31" x2="16645.47" y2="252.49" xlink:href="#linear-gradient-8"/>
    <linearGradient id="linear-gradient-10" x1="200.28" y1="181.47" x2="102.34" y2="178.83" gradientTransform="translate(-18.55 10)" xlink:href="#linear-gradient-8"/>
  </defs>
  <g class="cls-18">
    <g id="Layer_2" data-name="Layer 2">
      <g id="artwork">
        <g>
          <path d="M132.84,344.31l-13.81,12.89c-.81.76-1.27,1.82-1.27,2.92v10.31c0,1.1.9,2,2,2h94.04c1.1,0,2-.9,2-2v-10.31c0-1.11-.46-2.17-1.27-2.92l-13.81-12.89"/>
          <g>
            <g>
              <rect x="219.58" y="245.96" width="24.72" height="63.15" rx="6.73" ry="6.73"/>
              <path class="cls-21" d="M246.35,254.03h0c0-.88-.55-1.66-1.37-1.96l-21.4-7.79c-1.36-.49-2.8.51-2.8,1.96h0c0,.88.55,1.66,1.37,1.96l21.4,7.79c1.36.49,2.8-.51,2.8-1.96ZM246.35,266.32h0c0-.88-.55-1.66-1.37-1.96l-21.4-7.79c-1.36-.49-2.8.51-2.8,1.96h0c0,.88.55,1.66,1.37,1.96l21.4,7.79c1.36.49,2.8-.51,2.8-1.96ZM246.35,278.61h0c0-.88-.55-1.66-1.37-1.96l-21.4-7.79c-1.36-.49-2.8.51-2.8,1.96h0c0,.88.55,1.66,1.37,1.96l21.4,7.79c1.36.49,2.8-.51,2.8-1.96ZM246.35,290.89h0c0-.88-.55-1.66-1.37-1.96l-21.4-7.79c-1.36-.49-2.8.51-2.8,1.96h0c0,.88.55,1.66,1.37,1.96l21.4,7.79c1.36.49,2.8-.51,2.8-1.96ZM246.35,303.18h0c0-.88-.55-1.66-1.37-1.96l-21.4-7.79c-1.36-.49-2.8.51-2.8,1.96h0c0,.88.55,1.66,1.37,1.96l21.4,7.79c1.36.49,2.8-.51,2.8-1.96Z"/>
            </g>
            <g>
              <rect x="89.27" y="245.96" width="24.72" height="63.15" rx="6.73" ry="6.73"/>
              <path class="cls-3" d="M90.02,255.99l21.4-7.79c.82-.3,1.37-1.08,1.37-1.96h0c0-1.45-1.44-2.45-2.8-1.96l-21.4,7.79c-.82.3-1.37,1.08-1.37,1.96h0c0,1.45,1.44,2.45,2.8,1.96ZM90.02,268.28l21.4-7.79c.82-.3,1.37-1.08,1.37-1.96h0c0-1.45-1.44-2.45-2.8-1.96l-21.4,7.79c-.82.3-1.37,1.08-1.37,1.96h0c0,1.45,1.44,2.45,2.8,1.96ZM90.02,280.57l21.4-7.79c.82-.3,1.37-1.08,1.37-1.96h0c0-1.45-1.44-2.45-2.8-1.96l-21.4,7.79c-.82.3-1.37,1.08-1.37,1.96h0c0,1.45,1.44,2.45,2.8,1.96ZM90.02,292.85l21.4-7.79c.82-.3,1.37-1.08,1.37-1.96h0c0-1.45-1.44-2.45-2.8-1.96l-21.4,7.79c-.82.3-1.37,1.08-1.37,1.96h0c0,1.45,1.44,2.45,2.8,1.96ZM90.02,305.14l21.4-7.79c.82-.3,1.37-1.08,1.37-1.96h0c0-1.45-1.44-2.45-2.8-1.96l-21.4,7.79c-.82.3-1.37,1.08-1.37,1.96h0c0,1.45,1.44,2.45,2.8,1.96Z"/>
            </g>
          </g>
          <rect class="cls-1" x="10.67" y="49.62" width="312.19" height="17.13"/>
          <g>
            <rect class="cls-1" x="13.11" y="16.23" width="307.31" height="33.51"/>
            <rect class="cls-2" x="13.11" y="16.23" width="307.31" height="33.51"/>
          </g>
          <rect class="cls-12" x="13.11" y="8.03" width="307.31" height="8.2"/>
          <g>
            <rect x="204.59" y="94.67" width="34.41" height="87.9" rx="9.37" ry="9.37"/>
            <path class="cls-13" d="M241.85,105.9h0c0-1.22-.76-2.31-1.91-2.73l-29.79-10.84c-1.89-.69-3.89.71-3.89,2.73h0c0,1.22.76,2.31,1.91,2.73l29.79,10.84c1.89.69,3.89-.71,3.89-2.73ZM241.85,123.01h0c0-1.22-.76-2.31-1.91-2.73l-29.79-10.84c-1.89-.69-3.89.71-3.89,2.73h0c0,1.22.76,2.31,1.91,2.73l29.79,10.84c1.89.69,3.89-.71,3.89-2.73ZM241.85,140.11h0c0-1.22-.76-2.31-1.91-2.73l-29.79-10.84c-1.89-.69-3.89.71-3.89,2.73h0c0,1.22.76,2.31,1.91,2.73l29.79,10.84c1.89.69,3.89-.71,3.89-2.73ZM241.85,157.22h0c0-1.22-.76-2.31-1.91-2.73l-29.79-10.84c-1.89-.69-3.89.71-3.89,2.73h0c0,1.22.76,2.31,1.91,2.73l29.79,10.84c1.89.69,3.89-.71,3.89-2.73ZM241.85,174.32h0c0-1.22-.76-2.31-1.91-2.73l-29.79-10.84c-1.89-.69-3.89.71-3.89,2.73h0c0,1.22.76,2.31,1.91,2.73l29.79,10.84c1.89.69,3.89-.71,3.89-2.73Z"/>
          </g>
          <g>
            <rect x="94.57" y="94.67" width="34.41" height="87.9" rx="9.37" ry="9.37"/>
            <path class="cls-11" d="M95.61,108.63l29.79-10.84c1.15-.42,1.91-1.51,1.91-2.73h0c0-2.01-2-3.41-3.89-2.73l-29.79,10.84c-1.15.42-1.91,1.51-1.91,2.73h0c0,2.01,2,3.41,3.89,2.73ZM95.61,125.73l29.79-10.84c1.15-.42,1.91-1.51,1.91-2.73h0c0-2.01-2-3.41-3.89-2.73l-29.79,10.84c-1.15.42-1.91,1.51-1.91,2.73h0c0,2.01,2,3.41,3.89,2.73ZM95.61,142.84l29.79-10.84c1.15-.42,1.91-1.51,1.91-2.73h0c0-2.01-2-3.41-3.89-2.73l-29.79,10.84c-1.15.42-1.91,1.51-1.91,2.73h0c0,2.01,2,3.41,3.89,2.73ZM95.61,159.94l29.79-10.84c1.15-.42,1.91-1.51,1.91-2.73h0c0-2.01-2-3.41-3.89-2.73l-29.79,10.84c-1.15.42-1.91,1.51-1.91,2.73h0c0,2.01,2,3.41,3.89,2.73ZM95.61,177.05l29.79-10.84c1.15-.42,1.91-1.51,1.91-2.73h0c0-2.01-2-3.41-3.89-2.73l-29.79,10.84c-1.15.42-1.91,1.51-1.91,2.73h0c0,2.01,2,3.41,3.89,2.73Z"/>
          </g>
          <polygon class="cls-1" points="204.04 118.63 129.53 118.63 104.09 131.62 229.48 131.62 204.04 118.63"/>
          <path class="cls-1" d="M229.48,131.62h-125.38v177.11c0,3.31,1.09,6.52,3.11,9.14l19.02,24.73c2.08,2.71,5.3,4.29,8.72,4.29h63.68c3.42,0,6.64-1.59,8.72-4.29l19.02-24.73c2.02-2.62,3.11-5.84,3.11-9.14v-177.11Z"/>
          <g>
            <path class="cls-12" d="M187.77,246.31v90.59h-51.44c-.3,0-.57-.13-.76-.37l-18.19-23.65c-.64-.83-.99-1.87-.99-2.92v-63.65h71.38Z"/>
            <path class="cls-12" d="M187.77,246.31v90.59h-51.44c-.3,0-.57-.13-.76-.37l-18.19-23.65c-.64-.83-.99-1.87-.99-2.92v-63.65h71.38Z"/>
          </g>
          <g class="cls-9">
            <path class="cls-20" d="M186.77,247.31v36.41h-38.96v-36.41h38.96M187.77,246.31h-40.96v38.41h40.96v-38.41h0Z"/>
            <path class="cls-20" d="M148.08,292.6c1.65,0,3,1.35,3,3v40.3h-13.94v-40.3c0-1.65,1.35-3,3-3h7.94M148.08,291.6h-7.94c-2.21,0-4,1.79-4,4v41.3h15.94v-41.3c0-2.21-1.79-4-4-4h0Z"/>
            <path class="cls-20" d="M179.54,284.98v17.3c0,1.65-1.35,3-3,3h-7.94c-1.65,0-3-1.35-3-3v-17.3h13.94M180.54,283.98h-15.94v18.3c0,2.21,1.79,4,4,4h7.94c2.21,0,4-1.79,4-4v-18.3h0Z"/>
            <path class="cls-20" d="M186.77,247.31v88.59l-50.41.02-18.19-23.65c-.5-.65-.78-1.47-.78-2.31v-62.65h69.38M187.77,246.31h-71.38v63.65c0,1.05.35,2.09.99,2.92l18.19,23.65c.19.24.46.37.76.37h51.44v-90.59h0Z"/>
            <line class="cls-17" x1="140.11" y1="291.6" x2="140.11" y2="335.93"/>
            <line class="cls-17" x1="144.11" y1="291.6" x2="144.11" y2="335.93"/>
            <line class="cls-17" x1="148.11" y1="291.6" x2="148.11" y2="335.93"/>
            <path class="cls-20" d="M135.92,251.14c3.83,0,6.94,3.11,6.94,6.94s-3.11,6.94-6.94,6.94-6.94-3.11-6.94-6.94,3.11-6.94,6.94-6.94M135.92,250.14c-4.38,0-7.94,3.55-7.94,7.94s3.55,7.94,7.94,7.94,7.94-3.55,7.94-7.94-3.55-7.94-7.94-7.94h0Z"/>
            <path class="cls-17" d="M133.13,265.07v5.79c0,4.91,3.98,8.9,8.9,8.9h5.37v-5.05h-4.09c-2.31,0-4.18-1.87-4.18-4.18v-5.73"/>
          </g>
          <g>
            <path class="cls-1" d="M210.81,74.65l-11.82,11.82v35.45h-64.41v-35.45h-.07l-11.79-11.79c-.88-.88-.75-2.33.26-3.05,12.33-8.88,27.45-14.1,43.8-14.1s31.45,5.21,43.77,14.07c1.01.72,1.14,2.17.26,3.05Z"/>
            <path class="cls-7" d="M210.81,74.65l-11.82,11.82v35.45h-64.41v-35.45h-.07l-11.79-11.79c-.88-.88-.75-2.33.26-3.05,12.33-8.88,27.45-14.1,43.8-14.1s31.45,5.21,43.77,14.07c1.01.72,1.14,2.17.26,3.05Z"/>
          </g>
          <path class="cls-8" d="M130.79,66.7c10.69-5.85,22.94-9.17,35.99-9.17s25.37,3.34,36.08,9.22"/>
          <line class="cls-15" x1="12.67" y1="35" x2="320.86" y2="35"/>
          <g>
            <g>
              <path class="cls-15" d="M177.42,51.26c7.71-7.71,10.34-16.26,10.34-16.26"/>
              <path class="cls-15" d="M196.48,51.26c7.71-7.71,10.34-16.26,10.34-16.26"/>
              <path class="cls-15" d="M215.54,51.26c7.71-7.71,10.34-16.26,10.34-16.26"/>
              <path class="cls-15" d="M234.6,51.26c7.71-7.71,10.34-16.26,10.34-16.26"/>
              <path class="cls-15" d="M253.66,51.26c7.71-7.71,10.34-16.26,10.34-16.26"/>
              <path class="cls-15" d="M272.72,51.26c7.71-7.71,10.34-16.26,10.34-16.26"/>
              <path class="cls-15" d="M291.78,51.26c7.71-7.71,10.34-16.26,10.34-16.26"/>
            </g>
            <g>
              <path class="cls-15" d="M156.11,51.26c-7.71-7.71-10.34-16.26-10.34-16.26"/>
              <path class="cls-15" d="M136.22,51.26c-7.71-7.71-10.34-16.26-10.34-16.26"/>
              <path class="cls-15" d="M116.32,51.26c-7.71-7.71-10.34-16.26-10.34-16.26"/>
              <path class="cls-15" d="M96.43,51.26c-7.71-7.71-10.34-16.26-10.34-16.26"/>
              <path class="cls-15" d="M76.54,51.26c-7.71-7.71-10.34-16.26-10.34-16.26"/>
              <path class="cls-15" d="M56.64,51.26c-7.71-7.71-10.34-16.26-10.34-16.26"/>
              <path class="cls-15" d="M36.75,51.26c-7.71-7.71-10.34-16.26-10.34-16.26"/>
            </g>
          </g>
          <polygon class="cls-1" points="327.53 8.03 320.86 8.03 320.86 73.94 333.53 73.94 327.53 8.03"/>
          <polygon class="cls-1" points="6 8.03 12.67 8.03 12.67 73.94 0 73.94 6 8.03"/>
          <path class="cls-16" d="M24.84,57.53h-10.17c-1.1,0-2-.9-2-2V3c0-1.1.9-2,2-2h304.19c1.1,0,2,.9,2,2v52.53c0,1.1-.9,2-2,2h-10.17"/>
          <line class="cls-14" x1="12.67" y1="25.5" x2="320.86" y2="25.5"/>
          <g>
            <line class="cls-14" x1="69.77" y1="1" x2="69.77" y2="25.5"/>
            <line class="cls-14" x1="134.43" y1="1" x2="134.43" y2="25.5"/>
            <line class="cls-14" x1="199.1" y1="1" x2="199.1" y2="25.5"/>
            <line class="cls-14" x1="263.77" y1="1" x2="263.77" y2="25.5"/>
          </g>
          <g>
            <circle cx="307.54" cy="57.53" r="3.59"/>
            <circle cx="25.99" cy="57.53" r="3.59"/>
          </g>
          <g>
            <rect class="cls-12" x="107.38" y="139.62" width="18" height="265.15"/>
            <rect class="cls-10" x="107.38" y="139.62" width="18" height="265.15"/>
          </g>
          <g>
            <rect x="123.41" y="139.62" width="86.75" height="100.69"/>
            <rect class="cls-19" x="123.41" y="139.62" width="86.75" height="100.69"/>
          </g>
          <g>
            <rect class="cls-12" x="198.46" y="139.62" width="18.55" height="100.69"/>
            <rect class="cls-5" x="198.46" y="139.62" width="18.55" height="100.69"/>
          </g>
          <g>
            <rect class="cls-12" x="203.46" y="246.31" width="13.55" height="40.69"/>
            <rect class="cls-4" x="203.46" y="246.31" width="13.55" height="40.69"/>
          </g>
          <g>
            <rect class="cls-12" x="116.56" y="139.62" width="18.55" height="100.69"/>
            <rect class="cls-6" x="116.56" y="139.62" width="18.55" height="100.69"/>
          </g>
          <rect x="107.38" y="402.12" width="18" height="28.42" rx="2" ry="2"/>
          <line class="cls-8" x1="203.46" y1="286.49" x2="187.77" y2="286.49"/>
          <line class="cls-8" x1="203.46" y1="246.81" x2="187.77" y2="246.81"/>
          <polyline class="cls-8" points="187.77 309.11 216.49 309.11 216.49 287"/>
        </g>
      </g>
    </g>
  </g>
</svg>