<?xml version="1.0" encoding="UTF-8"?>
<svg xmlns="http://www.w3.org/2000/svg" xmlns:xlink="http://www.w3.org/1999/xlink" viewBox="0 0 163.59 390.07">
  <defs>
    <style>
      .cls-1, .cls-2 {
        fill: #e64545;
      }

      .cls-3 {
        fill: url(#linear-gradient-2);
      }

      .cls-4 {
        stroke-linecap: round;
      }

      .cls-4, .cls-5 {
        stroke: #000;
      }

      .cls-4, .cls-5, .cls-6 {
        stroke-miterlimit: 10;
      }

      .cls-7 {
        fill: url(#Orchid_16);
      }

      .cls-7, .cls-6, .cls-2, .cls-8, .cls-9, .cls-10 {
        mix-blend-mode: multiply;
      }

      .cls-11 {
        fill: url(#linear-gradient-4);
      }

      .cls-6 {
        fill: none;
        stroke: #e64545;
      }

      .cls-12 {
        fill: url(#radial-gradient);
      }

      .cls-13 {
        fill: url(#linear-gradient-3);
      }

      .cls-14 {
        isolation: isolate;
      }

      .cls-8 {
        fill: url(#linear-gradient-5);
      }

      .cls-15 {
        fill: url(#Summer_3);
      }

      .cls-16 {
        fill: #a3aabf;
      }

      .cls-17 {
        fill: url(#linear-gradient);
      }

      .cls-10 {
        fill: url(#linear-gradient-6);
      }
    </style>
    <linearGradient id="linear-gradient" x1="142.74" y1="346.38" x2="114.06" y2="346.38" gradientUnits="userSpaceOnUse">
      <stop offset="0" stop-color="#828899"/>
      <stop offset=".22" stop-color="#828899" stop-opacity=".59"/>
      <stop offset=".46" stop-color="#828899" stop-opacity=".17"/>
      <stop offset=".58" stop-color="#828899" stop-opacity="0"/>
    </linearGradient>
    <linearGradient id="linear-gradient-2" x1="1216.41" y1="346.38" x2="1187.74" y2="346.38" gradientTransform="translate(1237.27) rotate(-180) scale(1 -1)" xlink:href="#linear-gradient"/>
    <linearGradient id="linear-gradient-3" x1="160.38" y1="207.38" x2="132.02" y2="207.38" xlink:href="#linear-gradient"/>
    <linearGradient id="linear-gradient-4" x1="1417.18" y1="207.38" x2="1388.83" y2="207.38" gradientTransform="translate(1420.39) rotate(-180) scale(1 -1)" xlink:href="#linear-gradient"/>
    <linearGradient id="linear-gradient-5" x1="120.58" y1="209.03" x2="145.98" y2="209.03" gradientUnits="userSpaceOnUse">
      <stop offset=".13" stop-color="#a3aabf"/>
      <stop offset=".55" stop-color="#a3aabf" stop-opacity=".47"/>
      <stop offset=".86" stop-color="#a3aabf" stop-opacity=".13"/>
      <stop offset="1" stop-color="#a3aabf" stop-opacity="0"/>
    </linearGradient>
    <linearGradient id="linear-gradient-6" x1="1138.65" y1="270.45" x2="1164.05" y2="270.45" gradientTransform="translate(1181.66 479.47) rotate(-180)" xlink:href="#linear-gradient-5"/>
    <linearGradient id="Orchid_16" data-name="Orchid 16" x1="129.34" y1="102.5" x2="129.34" y2="142.25" gradientUnits="userSpaceOnUse">
      <stop offset="0" stop-color="#e64545"/>
      <stop offset=".14" stop-color="#e64545" stop-opacity=".85"/>
      <stop offset=".57" stop-color="#e64545" stop-opacity=".39"/>
      <stop offset=".86" stop-color="#e64545" stop-opacity=".11"/>
      <stop offset="1" stop-color="#e64545" stop-opacity="0"/>
    </linearGradient>
    <radialGradient id="radial-gradient" cx="81.79" cy="373.22" fx="81.79" fy="373.22" r="9.37" gradientUnits="userSpaceOnUse">
      <stop offset="0" stop-color="#ff192e"/>
      <stop offset=".07" stop-color="#ec1528"/>
      <stop offset=".24" stop-color="#c80d1e"/>
      <stop offset=".41" stop-color="#ab0716"/>
      <stop offset=".58" stop-color="#970310"/>
      <stop offset=".74" stop-color="#8b000d"/>
      <stop offset=".91" stop-color="#87000c"/>
    </radialGradient>
    <radialGradient id="Summer_3" data-name="Summer 3" cx="81.79" cy="362.09" fx="81.79" fy="362.09" r="3.99" gradientUnits="userSpaceOnUse">
      <stop offset="0" stop-color="#fff"/>
      <stop offset=".02" stop-color="#fffbf4"/>
      <stop offset=".14" stop-color="#ffebbb"/>
      <stop offset=".25" stop-color="#ffdd89"/>
      <stop offset=".37" stop-color="#ffd15f"/>
      <stop offset=".49" stop-color="#ffc83c"/>
      <stop offset=".61" stop-color="#ffc022"/>
      <stop offset=".74" stop-color="#ffbb0f"/>
      <stop offset=".87" stop-color="#ffb803"/>
      <stop offset="1" stop-color="#ffb700"/>
    </radialGradient>
  </defs>
  <g class="cls-14">
    <g id="Layer_2" data-name="Layer 2">
      <g id="artwork">
        <g>
          <g>
            <g>
              <rect x="120.88" y="309.87" width="22.5" height="80.2" rx="8.55" ry="8.55"/>
              <path class="cls-17" d="M145.98,320.12h0c0-1.11-.7-2.11-1.74-2.49l-27.18-9.89c-1.73-.63-3.55.65-3.55,2.49h0c0,1.11.7,2.11,1.74,2.49l27.18,9.89c1.73.63,3.55-.65,3.55-2.49ZM145.98,335.72h0c0-1.11-.7-2.11-1.74-2.49l-27.18-9.89c-1.73-.63-3.55.65-3.55,2.49h0c0,1.11.7,2.11,1.74,2.49l27.18,9.89c1.73.63,3.55-.65,3.55-2.49ZM145.98,351.33h0c0-1.11-.7-2.11-1.74-2.49l-27.18-9.89c-1.73-.63-3.55.65-3.55,2.49h0c0,1.11.7,2.11,1.74,2.49l27.18,9.89c1.73.63,3.55-.65,3.55-2.49ZM145.98,366.93h0c0-1.11-.7-2.11-1.74-2.49l-27.18-9.89c-1.73-.63-3.55.65-3.55,2.49h0c0,1.11.7,2.11,1.74,2.49l27.18,9.89c1.73.63,3.55-.65,3.55-2.49ZM145.98,382.54h0c0-1.11-.7-2.11-1.74-2.49l-27.18-9.89c-1.73-.63-3.55.65-3.55,2.49h0c0,1.11.7,2.11,1.74,2.49l27.18,9.89c1.73.63,3.55-.65,3.55-2.49Z"/>
            </g>
            <g>
              <rect x="20.21" y="309.87" width="22.5" height="80.2" rx="8.55" ry="8.55"/>
              <path class="cls-3" d="M21.16,322.61l27.18-9.89c1.05-.38,1.74-1.37,1.74-2.49h0c0-1.84-1.83-3.12-3.55-2.49l-27.18,9.89c-1.05.38-1.74,1.37-1.74,2.49h0c0,1.84,1.83,3.12,3.55,2.49ZM21.16,338.21l27.18-9.89c1.05-.38,1.74-1.37,1.74-2.49h0c0-1.84-1.83-3.12-3.55-2.49l-27.18,9.89c-1.05.38-1.74,1.37-1.74,2.49h0c0,1.84,1.83,3.12,3.55,2.49ZM21.16,353.81l27.18-9.89c1.05-.38,1.74-1.37,1.74-2.49h0c0-1.84-1.83-3.12-3.55-2.49l-27.18,9.89c-1.05.38-1.74,1.37-1.74,2.49h0c0,1.84,1.83,3.12,3.55,2.49ZM21.16,369.42l27.18-9.89c1.05-.38,1.74-1.37,1.74-2.49h0c0-1.84-1.83-3.12-3.55-2.49l-27.18,9.89c-1.05.38-1.74,1.37-1.74,2.49h0c0,1.84,1.83,3.12,3.55,2.49ZM21.16,385.02l27.18-9.89c1.05-.38,1.74-1.37,1.74-2.49h0c0-1.84-1.83-3.12-3.55-2.49l-27.18,9.89c-1.05.38-1.74,1.37-1.74,2.49h0c0,1.84,1.83,3.12,3.55,2.49Z"/>
            </g>
          </g>
          <rect x="62.78" y="245.75" width="38.03" height="34.01"/>
          <rect x="34.25" y="294.48" width="95.09" height="9.11"/>
          <g>
            <path class="cls-4" d="M61.81,137.69l-2.33-30.05c-.09-.71-.69-1.24-1.41-1.24s-1.32.53-1.41,1.24l-2.33,30.05h7.47Z"/>
            <path class="cls-5" d="M109.27,137.69l-2.33-30.05c-.09-.71-.69-1.24-1.41-1.24s-1.32.53-1.41,1.24l-2.32,30.05h7.47Z"/>
            <rect x="53.69" y="138.29" width="56.21" height="16.79"/>
          </g>
          <g>
            <g>
              <rect x="129.98" y="171.27" width="31.04" height="79.3" rx="8.46" ry="8.46"/>
              <path class="cls-13" d="M163.59,181.41h0c0-1.1-.69-2.08-1.72-2.46l-26.88-9.78c-1.71-.62-3.51.64-3.51,2.46h0c0,1.1.69,2.08,1.72,2.46l26.88,9.78c1.71.62,3.51-.64,3.51-2.46ZM163.59,196.84h0c0-1.1-.69-2.08-1.72-2.46l-26.88-9.78c-1.71-.62-3.51.64-3.51,2.46h0c0,1.1.69,2.08,1.72,2.46l26.88,9.78c1.71.62,3.51-.64,3.51-2.46ZM163.59,212.27h0c0-1.1-.69-2.08-1.72-2.46l-26.88-9.78c-1.71-.62-3.51.64-3.51,2.46h0c0,1.1.69,2.08,1.72,2.46l26.88,9.78c1.71.62,3.51-.64,3.51-2.46ZM163.59,227.7h0c0-1.1-.69-2.08-1.72-2.46l-26.88-9.78c-1.71-.62-3.51.64-3.51,2.46h0c0,1.1.69,2.08,1.72,2.46l26.88,9.78c1.71.62,3.51-.64,3.51-2.46ZM163.59,243.13h0c0-1.1-.69-2.08-1.72-2.46l-26.88-9.78c-1.71-.62-3.51.64-3.51,2.46h0c0,1.1.69,2.08,1.72,2.46l26.88,9.78c1.71.62,3.51-.64,3.51-2.46Z"/>
            </g>
            <g>
              <rect x="2.57" y="171.27" width="31.04" height="79.3" rx="8.46" ry="8.46"/>
              <path class="cls-11" d="M3.51,183.87l26.88-9.78c1.03-.38,1.72-1.36,1.72-2.46h0c0-1.82-1.81-3.08-3.51-2.46l-26.88,9.78C.69,179.33,0,180.31,0,181.41H0c0,1.82,1.81,3.08,3.51,2.46ZM3.51,199.3l26.88-9.78c1.03-.38,1.72-1.36,1.72-2.46h0c0-1.82-1.81-3.08-3.51-2.46l-26.88,9.78C.69,194.76,0,195.74,0,196.84H0c0,1.82,1.81,3.08,3.51,2.46ZM3.51,214.73l26.88-9.78c1.03-.38,1.72-1.36,1.72-2.46h0c0-1.82-1.81-3.08-3.51-2.46l-26.88,9.78C.69,210.19,0,211.17,0,212.27H0c0,1.82,1.81,3.08,3.51,2.46ZM3.51,230.16l26.88-9.78c1.03-.38,1.72-1.36,1.72-2.46h0c0-1.82-1.81-3.08-3.51-2.46l-26.88,9.78C.69,225.62,0,226.6,0,227.7H0c0,1.82,1.81,3.08,3.51,2.46ZM3.51,245.59l26.88-9.78c1.03-.38,1.72-1.36,1.72-2.46h0c0-1.82-1.81-3.08-3.51-2.46l-26.88,9.78C.69,241.05,0,242.03,0,243.13h0c0,1.82,1.81,3.08,3.51,2.46Z"/>
            </g>
          </g>
          <g>
            <rect class="cls-16" x="116.64" y="160.61" width="25.4" height="96.84" rx="7.2" ry="7.2"/>
            <rect class="cls-8" x="116.64" y="160.61" width="25.4" height="96.84" rx="7.2" ry="7.2"/>
          </g>
          <g>
            <rect class="cls-16" x="21.55" y="160.61" width="25.4" height="96.84" rx="7.2" ry="7.2"/>
            <rect class="cls-10" x="21.55" y="160.61" width="25.4" height="96.84" rx="7.2" ry="7.2"/>
          </g>
          <rect class="cls-1" x="46.93" y="354.66" width="69.74" height="25.98"/>
          <path class="cls-1" d="M116.49,246.74c-29.13,5.64-40.27,5.64-69.4,0-4.31-.88-8.77-5.46-9.19-9.63-2.37-25.17,2.45-51.68,10.88-79.15,1.19-3.8,4.85-7.17,8.43-7.72,22.39-3.33,26.78-3.33,49.17,0,3.6.55,7.25,3.92,8.43,7.72,8.42,27.47,13.24,53.98,10.88,79.15-.43,4.17-4.89,8.75-9.19,9.63Z"/>
          <g>
            <g class="cls-9">
              <path class="cls-1" d="M49.76,236.9c-.31,0-.57-.24-.6-.55-.9-10.43-.52-21.45,1.19-33.51.85-6.03,2.04-12.31,3.57-18.91,1.53-6.59,3.4-13.5,5.62-20.77.1-.32.44-.5.75-.4.32.1.5.43.4.75-2.21,7.23-4.07,14.1-5.59,20.66s-2.7,12.81-3.55,18.8c-1.7,11.98-2.08,22.93-1.19,33.28.03.33-.22.62-.55.65-.02,0-.04,0-.05,0Z"/>
            </g>
            <g class="cls-9">
              <path class="cls-1" d="M68.91,162.7c.32.06.53.36.47.68-1.32,7.24-2.44,14.11-3.35,20.67-.92,6.52-1.64,12.73-2.15,18.7-.02.2-.03.39-.05.59-.98,11.67-1.18,22.37-.62,32.5.02.33-.18.62-.45.7-.01,0-.03,0-.04.01-.25.06-.46-.07-.49-.27-.02-.17-.1-.35-.18-.58,0-.01,0-.03-.01-.04-.08-.25-.15-.55-.16-.86-.39-9.92-.11-20.4.86-31.79.03-.34.06-.69.09-1.03.51-5.73,1.21-11.7,2.05-17.94.02-.18.05-.37.07-.55.89-6.46,1.99-13.21,3.28-20.31.06-.32.37-.53.68-.47Z"/>
            </g>
            <g class="cls-9">
              <path class="cls-1" d="M77.51,162.62c.32.02.56.29.54.61-.44,7.24-.81,14.12-1.11,20.69-.32,6.48-.57,12.66-.74,18.6,0,.2-.01.4-.02.59-.33,11.59-.37,22.23-.13,32.31,0,.32-.15.61-.35.75-.01,0-.02.01-.03.02-.19.11-.35.08-.39.01-.02-.05-.14-.13-.28-.3,0,0-.02-.02-.02-.03-.15-.2-.26-.49-.26-.81-.08-9.96.05-20.47.38-31.91.01-.35.02-.69.03-1.04.18-5.75.42-11.74.69-18.01,0-.19.01-.37.02-.56.27-6.48.63-13.26,1.06-20.39.02-.32.29-.56.61-.54Z"/>
            </g>
            <g class="cls-9">
              <path class="cls-1" d="M86.08,162.44c.32-.02.59.22.61.54.45,7.25.82,14.13,1.13,20.71.28,6.45.5,12.59.67,18.5,0,.2.01.4.02.6.31,11.52.43,22.09.36,32.11,0,.31-.11.61-.26.81,0,.01-.02.02-.02.03-.14.17-.26.25-.28.29-.03.07-.19.1-.39-.02-.01,0-.02-.01-.03-.02-.21-.14-.36-.44-.36-.76.23-9.99.21-20.54-.1-32.03,0-.35-.02-.7-.03-1.04-.16-5.77-.37-11.78-.68-18.07,0-.19-.02-.38-.03-.57-.33-6.5-.71-13.31-1.15-20.47-.02-.32.22-.59.54-.61Z"/>
            </g>
            <g class="cls-9">
              <path class="cls-1" d="M94.69,162.15c.32-.06.62.15.68.47,1.33,7.25,2.45,14.14,3.37,20.73.88,6.41,1.57,12.52,2.08,18.4.02.2.04.4.05.6.96,11.44,1.24,21.95.85,31.92-.01.31-.08.61-.16.86,0,.01,0,.03-.01.04-.08.23-.15.41-.18.58-.03.19-.24.32-.49.27-.01,0-.03,0-.04-.01-.27-.08-.47-.38-.45-.7.55-10.03.37-20.62-.57-32.14-.03-.35-.06-.7-.09-1.05-.49-5.79-1.16-11.82-2.05-18.13-.03-.19-.06-.38-.08-.58-.93-6.53-2.05-13.36-3.37-20.55-.06-.32.15-.62.47-.68Z"/>
            </g>
            <g class="cls-9">
              <path class="cls-1" d="M113.83,235.96s-.04,0-.05,0c-.33-.03-.58-.32-.55-.65.88-10.37.5-21.33-1.2-33.31-.85-5.99-2.03-12.23-3.55-18.79-1.52-6.55-3.38-13.41-5.58-20.63-.1-.32.08-.65.4-.75.32-.1.65.08.75.4,2.22,7.26,4.08,14.15,5.61,20.74,1.53,6.59,2.72,12.87,3.57,18.9,1.71,12.05,2.09,23.09,1.2,33.54-.03.31-.29.55-.6.55Z"/>
            </g>
          </g>
          <g>
            <g>
              <path class="cls-1" d="M137.1,104.78h-15.52v61.95c0,4.29,3.47,7.76,7.76,7.76h0c4.29,0,7.76-3.47,7.76-7.76v-61.95Z"/>
              <path class="cls-7" d="M137.1,104.78h-15.52v61.95c0,4.29,3.47,7.76,7.76,7.76h0c4.29,0,7.76-3.47,7.76-7.76v-61.95Z"/>
            </g>
            <rect class="cls-1" x="121.58" y="34.33" width="15.52" height="70.45"/>
            <g>
              <rect x="112.35" y="26.37" width="33.99" height="9.09"/>
              <g>
                <path class="cls-5" d="M120.48,25.79l-2.33-24.05c-.09-.71-.69-1.24-1.41-1.24s-1.32.53-1.41,1.24l-2.33,24.05h7.47Z"/>
                <path class="cls-5" d="M145.67,25.79l-2.32-24.05c-.09-.71-.69-1.24-1.41-1.24s-1.32.53-1.41,1.24l-2.32,24.05h7.47Z"/>
              </g>
              <g>
                <path class="cls-5" d="M138.22,36.04l2.32,24.05c.09.71.69,1.24,1.41,1.24s1.32-.53,1.41-1.24l2.33-24.05h-7.47Z"/>
                <path class="cls-5" d="M113.01,36.04l2.33,24.05c.09.71.69,1.24,1.41,1.24s1.32-.53,1.41-1.24l2.33-24.05h-7.47Z"/>
              </g>
            </g>
          </g>
          <path class="cls-1" d="M54.49,321.53v-60.36s54.61,0,54.61,0v60.36c0,10.98-6.49,20.45-15.84,24.78-3.48,1.61-7.37,2.51-11.45,2.51-4.1,0-7.99-.9-11.47-2.53-2.94-1.35-5.59-3.22-7.84-5.47-4.94-4.94-8-11.76-8-19.31Z"/>
          <circle class="cls-2" cx="129.34" cy="166.45" r="2.8"/>
          <path class="cls-1" d="M120.54,380.64h-3.9v-97.28c0-1.99,1.61-3.6,3.6-3.6h10.37c2.11,0,3.77,1.81,3.59,3.91l-8.88,92.59c-.22,2.48-2.29,4.38-4.78,4.38Z"/>
          <path class="cls-1" d="M43.03,380.64h3.9s0-97.28,0-97.28c0-1.99-1.61-3.6-3.6-3.6h-10.37c-2.11,0-3.77,1.81-3.59,3.91l8.88,92.59c.22,2.48,2.29,4.38,4.78,4.38Z"/>
          <line class="cls-6" x1="47.59" y1="354.66" x2="47.59" y2="380.64"/>
          <line class="cls-6" x1="116.09" y1="354.66" x2="116.09" y2="380.64"/>
          <circle cx="69.81" cy="281.9" r="4.94"/>
          <g class="cls-9">
            <path class="cls-1" d="M81.79,369.23c2.2,0,3.99,1.79,3.99,3.99s-1.79,3.99-3.99,3.99-3.99-1.79-3.99-3.99,1.79-3.99,3.99-3.99M81.79,368.23c-2.75,0-4.99,2.24-4.99,4.99s2.24,4.99,4.99,4.99,4.99-2.24,4.99-4.99-2.24-4.99-4.99-4.99h0Z"/>
          </g>
          <circle class="cls-12" cx="81.79" cy="373.22" r="3.99"/>
          <g class="cls-9">
            <path class="cls-1" d="M81.79,358.09c2.2,0,3.99,1.79,3.99,3.99s-1.79,3.99-3.99,3.99-3.99-1.79-3.99-3.99,1.79-3.99,3.99-3.99M81.79,357.09c-2.75,0-4.99,2.24-4.99,4.99s2.24,4.99,4.99,4.99,4.99-2.24,4.99-4.99-2.24-4.99-4.99-4.99h0Z"/>
          </g>
          <circle class="cls-15" cx="81.79" cy="362.09" r="3.99"/>
        </g>
      </g>
    </g>
  </g>
</svg>