<?xml version="1.0" encoding="UTF-8"?>
<svg xmlns="http://www.w3.org/2000/svg" xmlns:xlink="http://www.w3.org/1999/xlink" viewBox="0 0 163.76 388.8">
  <defs>
    <style>
      .cls-1 {
        stroke-miterlimit: 10;
      }

      .cls-1, .cls-2, .cls-3, .cls-4 {
        fill: none;
        stroke: #00a61f;
      }

      .cls-5 {
        fill: url(#linear-gradient-2);
      }

      .cls-2, .cls-6, .cls-7, .cls-8, .cls-9, .cls-10, .cls-11, .cls-12, .cls-13 {
        mix-blend-mode: multiply;
      }

      .cls-2, .cls-3, .cls-4 {
        stroke-linecap: round;
        stroke-linejoin: round;
      }

      .cls-6 {
        fill: url(#Orchid_10-2);
      }

      .cls-14, .cls-8 {
        fill: #00a61f;
      }

      .cls-3 {
        stroke-width: 6px;
      }

      .cls-15 {
        fill: url(#linear-gradient-4);
      }

      .cls-16 {
        fill: url(#linear-gradient-3);
      }

      .cls-17 {
        isolation: isolate;
      }

      .cls-18 {
        fill: url(#linear-gradient-8);
      }

      .cls-7 {
        fill: url(#Orchid_10-3);
      }

      .cls-9 {
        fill: url(#linear-gradient-5);
      }

      .cls-11 {
        fill: url(#Orchid_10);
      }

      .cls-19 {
        fill: url(#linear-gradient-6);
      }

      .cls-12 {
        fill: url(#linear-gradient);
      }

      .cls-4 {
        stroke-width: 3px;
      }

      .cls-13 {
        fill: url(#linear-gradient-7);
      }
    </style>
    <linearGradient id="linear-gradient" x1="82.08" y1="52.99" x2="82.08" y2="9.18" gradientUnits="userSpaceOnUse">
      <stop offset=".51" stop-color="#00a61f"/>
      <stop offset=".7" stop-color="#00a61f" stop-opacity=".55"/>
      <stop offset=".87" stop-color="#00a61f" stop-opacity=".15"/>
      <stop offset=".95" stop-color="#00a61f" stop-opacity="0"/>
    </linearGradient>
    <linearGradient id="linear-gradient-2" x1="154.09" y1="130.5" x2="131.51" y2="130.5" gradientUnits="userSpaceOnUse">
      <stop offset="0" stop-color="#828899"/>
      <stop offset=".22" stop-color="#828899" stop-opacity=".59"/>
      <stop offset=".46" stop-color="#828899" stop-opacity=".17"/>
      <stop offset=".58" stop-color="#828899" stop-opacity="0"/>
    </linearGradient>
    <linearGradient id="linear-gradient-3" x1="251.52" y1="130.5" x2="228.94" y2="130.5" gradientTransform="translate(261.6) rotate(-180) scale(1 -1)" xlink:href="#linear-gradient-2"/>
    <linearGradient id="linear-gradient-4" x1="160.89" y1="267.38" x2="135.56" y2="267.38" xlink:href="#linear-gradient-2"/>
    <linearGradient id="linear-gradient-5" x1="120.13" y1="257.47" x2="153.36" y2="257.47" gradientUnits="userSpaceOnUse">
      <stop offset=".21" stop-color="#00a61f"/>
      <stop offset=".38" stop-color="#00a61f" stop-opacity=".75"/>
      <stop offset=".77" stop-color="#00a61f" stop-opacity=".13"/>
      <stop offset=".85" stop-color="#00a61f" stop-opacity="0"/>
    </linearGradient>
    <linearGradient id="linear-gradient-6" x1=".47" y1="267.38" x2="-24.86" y2="267.38" gradientTransform="translate(3.34) rotate(-180) scale(1 -1)" xlink:href="#linear-gradient-2"/>
    <linearGradient id="linear-gradient-7" x1="-40.3" y1="257.47" x2="-7.06" y2="257.47" gradientTransform="translate(3.34) rotate(-180) scale(1 -1)" xlink:href="#linear-gradient-5"/>
    <linearGradient id="linear-gradient-8" x1="84.39" y1="181.92" x2="80.21" y2="197.02" gradientUnits="userSpaceOnUse">
      <stop offset=".18" stop-color="#828899"/>
      <stop offset=".49" stop-color="#828899" stop-opacity=".59"/>
      <stop offset=".84" stop-color="#828899" stop-opacity=".17"/>
      <stop offset="1" stop-color="#828899" stop-opacity="0"/>
    </linearGradient>
    <linearGradient id="Orchid_10" data-name="Orchid 10" x1="82.08" y1="385.81" x2="82.08" y2="351.19" gradientUnits="userSpaceOnUse">
      <stop offset="0" stop-color="#00a61f"/>
      <stop offset=".42" stop-color="#00a61f" stop-opacity=".55"/>
      <stop offset=".81" stop-color="#00a61f" stop-opacity=".15"/>
      <stop offset="1" stop-color="#00a61f" stop-opacity="0"/>
    </linearGradient>
    <linearGradient id="Orchid_10-2" data-name="Orchid 10" x1="150.59" y1="390.23" x2="150.59" y2="365.18" gradientTransform="translate(-27.74 -25)" xlink:href="#Orchid_10"/>
    <linearGradient id="Orchid_10-3" data-name="Orchid 10" x1="213.45" y1="453.1" x2="213.45" y2="428.05" gradientTransform="translate(471.94 556.19) rotate(-90) scale(1 -1)" xlink:href="#Orchid_10"/>
  </defs>
  <g class="cls-17">
    <g id="Layer_2" data-name="Layer 2">
      <g id="artwork">
        <g>
          <path d="M85.61,357.98h8.56c1.99,0,3.6,1.61,3.6,3.6v9.69c0,1.99-1.61,3.6-3.6,3.6h-8.56v-16.88h0Z"/>
          <path d="M66.4,357.98h8.56c1.99,0,3.6,1.61,3.6,3.6v9.69c0,1.99-1.61,3.6-3.6,3.6h-8.56v-16.88h0Z" transform="translate(144.96 732.84) rotate(-180)"/>
          <g>
            <g>
              <polygon class="cls-14" points="153.05 47.75 11.12 47.75 6.12 27.2 158.05 27.2 153.05 47.75"/>
              <polygon class="cls-14" points="153.05 47.75 11.12 47.75 6.12 27.2 158.05 27.2 153.05 47.75"/>
            </g>
            <g>
              <g>
                <rect class="cls-14" x="6.12" width="151.93" height="27.25"/>
                <rect class="cls-12" x="6.12" width="151.93" height="27.25"/>
              </g>
              <rect x="6.12" width="151.93" height="7.58"/>
            </g>
          </g>
          <g>
            <g>
              <path class="cls-14" d="M133.14,124.14c-4.02,0-7.43,2.59-8.67,6.19h-19.18v6h19.18c1.24,3.6,4.65,6.19,8.67,6.19,5.07,0,9.19-4.11,9.19-9.19s-4.11-9.19-9.19-9.19Z"/>
              <path class="cls-8" d="M133.14,124.14c-4.02,0-7.43,2.59-8.67,6.19h-19.18v6h19.18c1.24,3.6,4.65,6.19,8.67,6.19,5.07,0,9.19-4.11,9.19-9.19s-4.11-9.19-9.19-9.19Z"/>
            </g>
            <g>
              <rect x="129.88" y="101.75" width="24.72" height="63.15" rx="6.73" ry="6.73"/>
              <path class="cls-5" d="M156.64,109.82h0c0-.88-.55-1.66-1.37-1.96l-21.4-7.79c-1.36-.49-2.8.51-2.8,1.96h0c0,.88.55,1.66,1.37,1.96l21.4,7.79c1.36.49,2.8-.51,2.8-1.96ZM156.64,122.11h0c0-.88-.55-1.66-1.37-1.96l-21.4-7.79c-1.36-.49-2.8.51-2.8,1.96h0c0,.88.55,1.66,1.37,1.96l21.4,7.79c1.36.49,2.8-.51,2.8-1.96ZM156.64,134.39h0c0-.88-.55-1.66-1.37-1.96l-21.4-7.79c-1.36-.49-2.8.51-2.8,1.96h0c0,.88.55,1.66,1.37,1.96l21.4,7.79c1.36.49,2.8-.51,2.8-1.96ZM156.64,146.68h0c0-.88-.55-1.66-1.37-1.96l-21.4-7.79c-1.36-.49-2.8.51-2.8,1.96h0c0,.88.55,1.66,1.37,1.96l21.4,7.79c1.36.49,2.8-.51,2.8-1.96ZM156.64,158.97h0c0-.88-.55-1.66-1.37-1.96l-21.4-7.79c-1.36-.49-2.8.51-2.8,1.96h0c0,.88.55,1.66,1.37,1.96l21.4,7.79c1.36.49,2.8-.51,2.8-1.96Z"/>
            </g>
            <g>
              <g>
                <path class="cls-14" d="M31.03,124.14c4.02,0,7.43,2.59,8.67,6.19h19.18v6h-19.18c-1.24,3.6-4.65,6.19-8.67,6.19-5.07,0-9.19-4.11-9.19-9.19,0-5.07,4.11-9.19,9.19-9.19Z"/>
                <path class="cls-8" d="M31.03,124.14c4.02,0,7.43,2.59,8.67,6.19h19.18v6h-19.18c-1.24,3.6-4.65,6.19-8.67,6.19-5.07,0-9.19-4.11-9.19-9.19,0-5.07,4.11-9.19,9.19-9.19Z"/>
              </g>
              <g>
                <rect x="9.57" y="101.75" width="24.72" height="63.15" rx="6.73" ry="6.73"/>
                <path class="cls-16" d="M10.32,111.78l21.4-7.79c.82-.3,1.37-1.08,1.37-1.96h0c0-1.45-1.44-2.45-2.8-1.96l-21.4,7.79c-.82.3-1.37,1.08-1.37,1.96h0c0,1.45,1.44,2.45,2.8,1.96ZM10.32,124.07l21.4-7.79c.82-.3,1.37-1.08,1.37-1.96h0c0-1.45-1.44-2.45-2.8-1.96l-21.4,7.79c-.82.3-1.37,1.08-1.37,1.96h0c0,1.45,1.44,2.45,2.8,1.96ZM10.32,136.35l21.4-7.79c.82-.3,1.37-1.08,1.37-1.96h0c0-1.45-1.44-2.45-2.8-1.96l-21.4,7.79c-.82.3-1.37,1.08-1.37,1.96h0c0,1.45,1.44,2.45,2.8,1.96ZM10.32,148.64l21.4-7.79c.82-.3,1.37-1.08,1.37-1.96h0c0-1.45-1.44-2.45-2.8-1.96l-21.4,7.79c-.82.3-1.37,1.08-1.37,1.96h0c0,1.45,1.44,2.45,2.8,1.96ZM10.32,160.93l21.4-7.79c.82-.3,1.37-1.08,1.37-1.96h0c0-1.45-1.44-2.45-2.8-1.96l-21.4,7.79c-.82.3-1.37,1.08-1.37,1.96h0c0,1.45,1.44,2.45,2.8,1.96Z"/>
              </g>
            </g>
          </g>
          <g>
            <path d="M107.83,164.19h15.91c1.25,0,2.37.78,2.81,1.95l2.37,6.37c.46,1.23.69,2.53.69,3.84v15.83c0,1.66-1.34,3-3,3h-21.33"/>
            <path d="M56.34,164.19h-15.91c-1.25,0-2.37.78-2.81,1.95l-2.37,6.37c-.46,1.23-.69,2.53-.69,3.84v15.83c0,1.66,1.34,3,3,3h21.33"/>
          </g>
          <g>
            <rect class="cls-14" x="52.12" y="138.88" width="59.93" height="59.93"/>
            <rect class="cls-8" x="52.12" y="138.88" width="59.93" height="59.93"/>
          </g>
          <g>
            <rect class="cls-14" x="52.12" y="300.02" width="59.93" height="31.93" rx="4.05" ry="4.05"/>
            <rect class="cls-8" x="52.12" y="300.02" width="59.93" height="31.93" rx="4.05" ry="4.05"/>
          </g>
          <path d="M72.07,323.24h20.03c2.21,0,4,1.79,4,4v4.71h-28.03v-4.71c0-2.21,1.79-4,4-4Z"/>
          <polygon class="cls-14" points="112.05 142.19 104.44 155.8 99.44 195.89 64.73 195.89 59.73 155.8 52.12 142.19 81.24 134.62 81.24 134.18 82.09 134.4 82.93 134.18 82.93 134.62 112.05 142.19"/>
          <rect class="cls-14" x="52.12" y="99.06" width="59.93" height="43.13"/>
          <g>
            <rect x="128.08" y="218.37" width="33.23" height="101.3" rx="9.18" ry="9.18"/>
            <path class="cls-15" d="M160.63,232.59l-24.01-8.74c-.92-.34-1.54-1.21-1.54-2.2h0c0-1.62,1.61-2.75,3.14-2.2l24.01,8.74c.92.34,1.54,1.21,1.54,2.2h0c0,1.62-1.61,2.75-3.14,2.2ZM163.76,244.18h0c0-.98-.61-1.86-1.54-2.2l-24.01-8.74c-1.52-.55-3.14.57-3.14,2.2h0c0,.98.61,1.86,1.54,2.2l24.01,8.74c1.52.55,3.14-.57,3.14-2.2ZM163.76,257.96h0c0-.98-.61-1.86-1.54-2.2l-24.01-8.74c-1.52-.55-3.14.57-3.14,2.2h0c0,.98.61,1.86,1.54,2.2l24.01,8.74c1.52.55,3.14-.57,3.14-2.2ZM163.76,271.75h0c0-.98-.61-1.86-1.54-2.2l-24.01-8.74c-1.52-.55-3.14.57-3.14,2.2h0c0,.98.61,1.86,1.54,2.2l24.01,8.74c1.52.55,3.14-.57,3.14-2.2ZM163.76,285.53h0c0-.98-.61-1.86-1.54-2.2l-24.01-8.74c-1.52-.55-3.14.57-3.14,2.2h0c0,.98.61,1.86,1.54,2.2l24.01,8.74c1.52.55,3.14-.57,3.14-2.2ZM163.76,299.32h0c0-.98-.61-1.86-1.54-2.2l-24.01-8.74c-1.52-.55-3.14.57-3.14,2.2h0c0,.98.61,1.86,1.54,2.2l24.01,8.74c1.52.55,3.14-.57,3.14-2.2ZM163.76,313.1h0c0-.98-.61-1.86-1.54-2.2l-24.01-8.74c-1.52-.55-3.14.57-3.14,2.2h0c0,.98.61,1.86,1.54,2.2l24.01,8.74c1.52.55,3.14-.57,3.14-2.2Z"/>
          </g>
          <g>
            <path class="cls-14" d="M138.28,311.36h-18.16l3.51-107.78h14.41c8.72,0,15.69,7.28,15.3,15.99l-3.59,80.81c-.27,6.14-5.33,10.98-11.48,10.98Z"/>
            <path class="cls-9" d="M138.28,311.36h-18.16l3.51-107.78h14.41c8.72,0,15.69,7.28,15.3,15.99l-3.59,80.81c-.27,6.14-5.33,10.98-11.48,10.98Z"/>
          </g>
          <g>
            <rect x="2.45" y="218.37" width="33.23" height="101.3" rx="9.18" ry="9.18"/>
            <path class="cls-19" d="M0,230.4H0c0-.98.61-1.86,1.54-2.2l24.01-8.74c1.52-.55,3.14.57,3.14,2.2h0c0,.98-.61,1.86-1.54,2.2l-24.01,8.74C1.61,233.15,0,232.02,0,230.4ZM3.14,246.38l24.01-8.74c.92-.34,1.54-1.21,1.54-2.2h0c0-1.62-1.61-2.75-3.14-2.2l-24.01,8.74C.61,242.32,0,243.2,0,244.18H0c0,1.62,1.61,2.75,3.14,2.2ZM3.14,260.16l24.01-8.74c.92-.34,1.54-1.21,1.54-2.2h0c0-1.62-1.61-2.75-3.14-2.2l-24.01,8.74C.61,256.1,0,256.98,0,257.96H0c0,1.62,1.61,2.75,3.14,2.2ZM3.14,273.95l24.01-8.74c.92-.34,1.54-1.21,1.54-2.2h0c0-1.62-1.61-2.75-3.14-2.2l-24.01,8.74C.61,269.89,0,270.77,0,271.75H0c0,1.62,1.61,2.75,3.14,2.2ZM3.14,287.73l24.01-8.74c.92-.34,1.54-1.21,1.54-2.2h0c0-1.62-1.61-2.75-3.14-2.2l-24.01,8.74C.61,283.67,0,284.55,0,285.53H0c0,1.62,1.61,2.75,3.14,2.2ZM3.14,301.51l24.01-8.74c.92-.34,1.54-1.21,1.54-2.2h0c0-1.62-1.61-2.75-3.14-2.2l-24.01,8.74C.61,297.45,0,298.33,0,299.32H0c0,1.62,1.61,2.75,3.14,2.2ZM3.14,315.3l24.01-8.74c.92-.34,1.54-1.21,1.54-2.2h0c0-1.62-1.61-2.75-3.14-2.2l-24.01,8.74C.61,311.24,0,312.12,0,313.1h0c0,1.62,1.61,2.75,3.14,2.2Z"/>
          </g>
          <g>
            <path class="cls-14" d="M25.48,311.36h18.16s-3.51-107.78-3.51-107.78h-14.41c-8.72,0-15.69,7.28-15.3,15.99l3.59,80.81c.27,6.14,5.33,10.98,11.48,10.98Z"/>
            <path class="cls-13" d="M25.48,311.36h18.16s-3.51-107.78-3.51-107.78h-14.41c-8.72,0-15.69,7.28-15.3,15.99l3.59,80.81c.27,6.14,5.33,10.98,11.48,10.98Z"/>
          </g>
          <path class="cls-14" d="M116.63,318.42H47.53c-4.78,0-8.9-3.39-9.82-8.09l-8.59-44.04c-1.54-7.9-1.54-16.03,0-23.93l8.59-44.04c.92-4.7,5.03-8.09,9.82-8.09h69.1c4.78,0,8.9,3.39,9.82,8.09l8.59,44.04c1.54,7.9,1.54,16.03,0,23.93l-8.59,44.04c-.92,4.7-5.03,8.09-9.82,8.09Z"/>
          <g class="cls-10">
            <circle class="cls-1" cx="82.08" cy="254.33" r="38.5"/>
            <line class="cls-1" x1="54.86" y1="227.11" x2="109.31" y2="281.56"/>
            <line class="cls-1" x1="109.31" y1="227.11" x2="54.86" y2="281.56"/>
          </g>
          <g>
            <circle cx="55.37" cy="243.55" r="4.48"/>
            <circle cx="108.8" cy="243.55" r="4.48"/>
            <circle cx="55.37" cy="265.12" r="4.48"/>
          </g>
          <g>
            <path d="M96.61,198.81h-29.05c-1.88,0-3.55-1.16-4.21-2.92l-2.12-5.65h41.71l-2.12,5.65c-.66,1.76-2.34,2.92-4.21,2.92Z"/>
            <path class="cls-18" d="M96.61,198.81h-29.05c-1.88,0-3.55-1.16-4.21-2.92l-2.12-5.65h41.71l-2.12,5.65c-.66,1.76-2.34,2.92-4.21,2.92Z"/>
          </g>
          <path class="cls-2" d="M91.18,137.89v-18.9c0-1.1-.89-1.99-1.99-1.99h-14.21c-1.1,0-1.99.89-1.99,1.99v18.9"/>
          <path d="M56.12,88.13h51.93c2.21,0,4,1.79,4,4v16.27h-59.93v-16.27c0-2.21,1.79-4,4-4Z"/>
          <g>
            <rect class="cls-14" x="44.83" y="62.34" width="74.42" height="10.3"/>
            <line class="cls-3" x1="119.25" y1="177.57" x2="119.25" y2="44.3"/>
            <line class="cls-3" x1="44.92" y1="177.57" x2="44.92" y2="44.3"/>
            <rect x="113.09" y="44.32" width="12.27" height="6.21" rx="3.1" ry="3.1"/>
            <rect x="38.79" y="44.32" width="12.27" height="6.21" rx="3.1" ry="3.1"/>
          </g>
          <g>
            <line class="cls-4" x1="87.3" y1="66.81" x2="87.3" y2="47.75"/>
            <line class="cls-4" x1="76.86" y1="66.81" x2="76.86" y2="47.75"/>
          </g>
          <g>
            <rect class="cls-14" x="73.42" y="327.01" width="17.34" height="55.42"/>
            <rect class="cls-11" x="73.42" y="327.01" width="17.34" height="55.42"/>
          </g>
          <g>
            <rect class="cls-14" x="118.09" y="322.69" width="9.51" height="40.1" transform="translate(-206.37 187.25) rotate(-45)"/>
            <rect class="cls-6" x="118.09" y="322.69" width="9.51" height="40.1" transform="translate(-206.37 187.25) rotate(-45)"/>
          </g>
          <rect x="66.4" y="381.93" width="31.36" height="6.88" rx="3.44" ry="3.44"/>
          <rect x="132.01" y="347.54" width="12.16" height="20.88" rx="4" ry="4" transform="translate(293.58 7.21) rotate(45)"/>
          <g>
            <rect class="cls-14" x="21.29" y="337.98" width="40.1" height="9.51" transform="translate(-230.24 129.62) rotate(-45)"/>
            <rect class="cls-7" x="21.29" y="337.98" width="40.1" height="9.51" transform="translate(-230.24 129.62) rotate(-45)"/>
          </g>
          <rect x="20.02" y="347.54" width="12.16" height="20.88" rx="4" ry="4" transform="translate(297.69 592.66) rotate(135)"/>
        </g>
      </g>
    </g>
  </g>
</svg>