<?xml version="1.0" encoding="UTF-8"?>
<svg xmlns="http://www.w3.org/2000/svg" xmlns:xlink="http://www.w3.org/1999/xlink" viewBox="0 0 165.82 399.06">
  <defs>
    <style>
      .cls-1, .cls-2, .cls-3, .cls-4, .cls-5, .cls-6, .cls-7 {
        fill: none;
      }

      .cls-1, .cls-2, .cls-3, .cls-7 {
        stroke: #898989;
      }

      .cls-1, .cls-2, .cls-7 {
        stroke-miterlimit: 10;
      }

      .cls-1, .cls-3, .cls-6 {
        stroke-width: 2.5px;
      }

      .cls-8 {
        fill: url(#linear-gradient-2);
      }

      .cls-8, .cls-9 {
        mix-blend-mode: overlay;
      }

      .cls-10 {
        fill: url(#linear-gradient-10);
      }

      .cls-11 {
        fill: url(#Orchid_12);
      }

      .cls-11, .cls-12, .cls-7, .cls-13 {
        mix-blend-mode: multiply;
      }

      .cls-2, .cls-7 {
        stroke-width: 8px;
      }

      .cls-14 {
        fill: url(#linear-gradient-4);
      }

      .cls-15 {
        fill: #828899;
      }

      .cls-16 {
        fill: url(#linear-gradient-3);
      }

      .cls-17, .cls-12 {
        fill: #898989;
      }

      .cls-18 {
        fill: url(#linear-gradient-5);
      }

      .cls-3, .cls-4, .cls-5, .cls-6 {
        stroke-linecap: round;
        stroke-linejoin: round;
      }

      .cls-19 {
        isolation: isolate;
      }

      .cls-4, .cls-6 {
        stroke: #000;
      }

      .cls-20 {
        fill: url(#linear-gradient-8);
      }

      .cls-5 {
        stroke: #828899;
      }

      .cls-21 {
        fill: url(#linear-gradient-7);
      }

      .cls-22 {
        fill: url(#linear-gradient-11);
      }

      .cls-23 {
        fill: url(#linear-gradient-6);
      }

      .cls-13 {
        fill: url(#linear-gradient);
      }

      .cls-9 {
        fill: url(#linear-gradient-9);
      }
    </style>
    <linearGradient id="linear-gradient" x1="-293.34" y1="-442.75" x2="-293.34" y2="-424.58" gradientTransform="translate(257.19 604.41) rotate(14.87)" gradientUnits="userSpaceOnUse">
      <stop offset="0" stop-color="#898989"/>
      <stop offset=".13" stop-color="#898989" stop-opacity=".82"/>
      <stop offset=".37" stop-color="#898989" stop-opacity=".53"/>
      <stop offset=".58" stop-color="#898989" stop-opacity=".3"/>
      <stop offset=".77" stop-color="#898989" stop-opacity=".14"/>
      <stop offset=".91" stop-color="#898989" stop-opacity=".04"/>
      <stop offset="1" stop-color="#898989" stop-opacity="0"/>
    </linearGradient>
    <linearGradient id="linear-gradient-2" x1="98.21" y1="124.61" x2="95.97" y2="82.45" gradientUnits="userSpaceOnUse">
      <stop offset=".11" stop-color="#a3aabf"/>
      <stop offset=".21" stop-color="#a3aabf" stop-opacity=".94"/>
      <stop offset=".37" stop-color="#a3aabf" stop-opacity=".79"/>
      <stop offset=".59" stop-color="#a3aabf" stop-opacity=".53"/>
      <stop offset=".85" stop-color="#a3aabf" stop-opacity=".19"/>
      <stop offset=".97" stop-color="#a3aabf" stop-opacity="0"/>
    </linearGradient>
    <linearGradient id="Orchid_12" data-name="Orchid 12" x1="83.24" y1="4.85" x2="83.24" y2="20.34" gradientUnits="userSpaceOnUse">
      <stop offset="0" stop-color="#898989"/>
      <stop offset=".18" stop-color="#898989" stop-opacity=".8"/>
      <stop offset=".59" stop-color="#898989" stop-opacity=".38"/>
      <stop offset=".87" stop-color="#898989" stop-opacity=".11"/>
      <stop offset="1" stop-color="#898989" stop-opacity="0"/>
    </linearGradient>
    <linearGradient id="linear-gradient-3" x1="140.24" y1="30.55" x2="117.66" y2="30.55" gradientUnits="userSpaceOnUse">
      <stop offset="0" stop-color="#828899"/>
      <stop offset=".22" stop-color="#828899" stop-opacity=".59"/>
      <stop offset=".46" stop-color="#828899" stop-opacity=".17"/>
      <stop offset=".58" stop-color="#828899" stop-opacity="0"/>
    </linearGradient>
    <linearGradient id="linear-gradient-4" x1="-4320.67" y1="30.55" x2="-4343.25" y2="30.55" gradientTransform="translate(-4294.44) rotate(-180) scale(1 -1)" xlink:href="#linear-gradient-3"/>
    <linearGradient id="linear-gradient-5" x1="160.24" y1="245.12" x2="137.66" y2="245.12" xlink:href="#linear-gradient-3"/>
    <linearGradient id="linear-gradient-6" x1="-4300.67" y1="245.12" x2="-4323.25" y2="245.12" gradientTransform="translate(-4294.44) rotate(-180) scale(1 -1)" xlink:href="#linear-gradient-3"/>
    <linearGradient id="linear-gradient-7" x1="160.24" y1="316.13" x2="137.66" y2="316.13" xlink:href="#linear-gradient-3"/>
    <linearGradient id="linear-gradient-8" x1="-4300.67" y1="316.13" x2="-4323.25" y2="316.13" gradientTransform="translate(-4294.44) rotate(-180) scale(1 -1)" xlink:href="#linear-gradient-3"/>
    <linearGradient id="linear-gradient-9" x1="70.47" y1="124.61" x2="68.24" y2="82.45" xlink:href="#linear-gradient-2"/>
    <linearGradient id="linear-gradient-10" x1="84.31" y1="278.23" x2="81.95" y2="347.1" gradientUnits="userSpaceOnUse">
      <stop offset="0" stop-color="#828899"/>
      <stop offset=".15" stop-color="#828899" stop-opacity=".89"/>
      <stop offset=".43" stop-color="#828899" stop-opacity=".61"/>
      <stop offset=".83" stop-color="#828899" stop-opacity=".17"/>
      <stop offset=".96" stop-color="#828899" stop-opacity="0"/>
    </linearGradient>
    <linearGradient id="linear-gradient-11" x1="82.74" y1="209" x2="82.74" y2="331.6" gradientUnits="userSpaceOnUse">
      <stop offset="0" stop-color="#828899"/>
      <stop offset=".18" stop-color="#828899" stop-opacity=".73"/>
      <stop offset=".43" stop-color="#828899" stop-opacity=".42"/>
      <stop offset=".64" stop-color="#828899" stop-opacity=".19"/>
      <stop offset=".82" stop-color="#828899" stop-opacity=".05"/>
      <stop offset=".93" stop-color="#828899" stop-opacity="0"/>
    </linearGradient>
  </defs>
  <g class="cls-19">
    <g id="Layer_2" data-name="Layer 2">
      <g id="artwork">
        <g>
          <g>
            <rect class="cls-17" x="121.12" y="364.7" width="3.8" height="12.73"/>
            <rect class="cls-17" x="124.86" y="373.37" width="3.8" height="12.73"/>
          </g>
          <g>
            <rect class="cls-17" x="41.55" y="364.7" width="3.8" height="12.73" transform="translate(86.9 742.13) rotate(-180)"/>
            <rect class="cls-17" x="37.81" y="373.37" width="3.8" height="12.73" transform="translate(79.41 759.46) rotate(-180)"/>
          </g>
          <g>
            <g>
              <line class="cls-6" x1="116.22" y1="173.38" x2="126.8" y2="162.81"/>
              <path d="M131.06,165.47l-9.14-3.44c-1.45-.55-2.37-1.98-2.26-3.53h0c.15-2.14,2.16-3.64,4.25-3.18l9.24,2.05c1.7.38,2.86,1.94,2.74,3.67l-.1,1.39c-.16,2.34-2.54,3.86-4.73,3.04Z"/>
            </g>
            <g>
              <line class="cls-6" x1="50.25" y1="173.38" x2="39.68" y2="162.81"/>
              <path d="M35.42,165.47l9.14-3.44c1.45-.55,2.37-1.98,2.26-3.53h0c-.15-2.14-2.16-3.64-4.25-3.18l-9.24,2.05c-1.7.38-2.86,1.94-2.74,3.67l.1,1.39c.16,2.34,2.54,3.86,4.73,3.04Z"/>
            </g>
          </g>
          <g>
            <g>
              <path class="cls-17" d="M161.21,137.47c-.78,2.94-1.32,5.87-1.63,8.8L2.22,104.48c1.19-2.7,2.17-5.51,2.95-8.45,1.12-4.22,1.75-8.45,1.91-12.64l158.75,42.16c-1.94,3.72-3.5,7.7-4.62,11.93Z"/>
              <path class="cls-13" d="M161.21,137.47c-.78,2.94-1.32,5.87-1.63,8.8L2.22,104.48c1.19-2.7,2.17-5.51,2.95-8.45,1.12-4.22,1.75-8.45,1.91-12.64l158.75,42.16c-1.94,3.72-3.5,7.7-4.62,11.93Z"/>
            </g>
            <g>
              <path class="cls-17" d="M159.26,151.29L0,108.99c.8-1.46,1.54-2.97,2.22-4.51l157.36,41.79c-.18,1.67-.29,3.35-.32,5.02Z"/>
              <path class="cls-12" d="M159.26,151.29L0,108.99c.8-1.46,1.54-2.97,2.22-4.51l157.36,41.79c-.18,1.67-.29,3.35-.32,5.02Z"/>
            </g>
          </g>
          <g>
            <rect class="cls-15" x="92.28" y="77.45" width="9.67" height="52.97" rx="3" ry="3"/>
            <rect class="cls-8" x="92.28" y="77.45" width="9.67" height="52.97" rx="3" ry="3"/>
          </g>
          <g>
            <polygon class="cls-17" points="94.31 23.71 72.16 23.71 74.16 2.82 92.31 2.82 94.31 23.71"/>
            <polygon class="cls-11" points="94.31 23.71 72.16 23.71 74.16 2.82 92.31 2.82 94.31 23.71"/>
          </g>
          <g>
            <rect class="cls-17" x="69.8" y="1.82" width="26.87" height="3.64" rx="1" ry="1"/>
            <rect class="cls-17" x="69.8" y="1.82" width="26.87" height="3.64" rx="1" ry="1"/>
          </g>
          <g>
            <g>
              <line class="cls-2" x1="125.31" y1="33.55" x2="94.31" y2="33.55"/>
              <line class="cls-7" x1="125.31" y1="33.55" x2="94.31" y2="33.55"/>
            </g>
            <g>
              <rect x="116.03" y="1.8" width="24.72" height="63.15" rx="6.73" ry="6.73"/>
              <path class="cls-16" d="M142.8,9.88h0c0-.88-.55-1.66-1.37-1.96L120.02.13c-1.36-.49-2.8.51-2.8,1.96h0c0,.88.55,1.66,1.37,1.96l21.4,7.79c1.36.49,2.8-.51,2.8-1.96ZM142.8,22.16h0c0-.88-.55-1.66-1.37-1.96l-21.4-7.79c-1.36-.49-2.8.51-2.8,1.96h0c0,.88.55,1.66,1.37,1.96l21.4,7.79c1.36.49,2.8-.51,2.8-1.96ZM142.8,34.45h0c0-.88-.55-1.66-1.37-1.96l-21.4-7.79c-1.36-.49-2.8.51-2.8,1.96h0c0,.88.55,1.66,1.37,1.96l21.4,7.79c1.36.49,2.8-.51,2.8-1.96ZM142.8,46.74h0c0-.88-.55-1.66-1.37-1.96l-21.4-7.79c-1.36-.49-2.8.51-2.8,1.96h0c0,.88.55,1.66,1.37,1.96l21.4,7.79c1.36.49,2.8-.51,2.8-1.96ZM142.8,59.02h0c0-.88-.55-1.66-1.37-1.96l-21.4-7.79c-1.36-.49-2.8.51-2.8,1.96h0c0,.88.55,1.66,1.37,1.96l21.4,7.79c1.36.49,2.8-.51,2.8-1.96Z"/>
            </g>
          </g>
          <g>
            <g>
              <line class="cls-2" x1="41.17" y1="33.55" x2="72.16" y2="33.55"/>
              <line class="cls-7" x1="41.17" y1="33.55" x2="72.16" y2="33.55"/>
            </g>
            <g>
              <rect x="25.73" y="1.8" width="24.72" height="63.15" rx="6.73" ry="6.73"/>
              <path class="cls-14" d="M26.47,11.83l21.4-7.79c.82-.3,1.37-1.08,1.37-1.96h0c0-1.45-1.44-2.45-2.8-1.96l-21.4,7.79c-.82.3-1.37,1.08-1.37,1.96h0c0,1.45,1.44,2.45,2.8,1.96ZM26.47,24.12l21.4-7.79c.82-.3,1.37-1.08,1.37-1.96h0c0-1.45-1.44-2.45-2.8-1.96l-21.4,7.79c-.82.3-1.37,1.08-1.37,1.96h0c0,1.45,1.44,2.45,2.8,1.96ZM26.47,36.41l21.4-7.79c.82-.3,1.37-1.08,1.37-1.96h0c0-1.45-1.44-2.45-2.8-1.96l-21.4,7.79c-.82.3-1.37,1.08-1.37,1.96h0c0,1.45,1.44,2.45,2.8,1.96ZM26.47,48.69l21.4-7.79c.82-.3,1.37-1.08,1.37-1.96h0c0-1.45-1.44-2.45-2.8-1.96l-21.4,7.79c-.82.3-1.37,1.08-1.37,1.96h0c0,1.45,1.44,2.45,2.8,1.96ZM26.47,60.98l21.4-7.79c.82-.3,1.37-1.08,1.37-1.96h0c0-1.45-1.44-2.45-2.8-1.96l-21.4,7.79c-.82.3-1.37,1.08-1.37,1.96h0c0,1.45,1.44,2.45,2.8,1.96Z"/>
            </g>
          </g>
          <g>
            <line class="cls-2" x1="145.31" y1="248.11" x2="114.31" y2="248.11"/>
            <g>
              <rect x="136.03" y="216.37" width="24.72" height="63.15" rx="6.73" ry="6.73"/>
              <path class="cls-18" d="M162.8,224.44h0c0-.88-.55-1.66-1.37-1.96l-21.4-7.79c-1.36-.49-2.8.51-2.8,1.96h0c0,.88.55,1.66,1.37,1.96l21.4,7.79c1.36.49,2.8-.51,2.8-1.96ZM162.8,236.73h0c0-.88-.55-1.66-1.37-1.96l-21.4-7.79c-1.36-.49-2.8.51-2.8,1.96h0c0,.88.55,1.66,1.37,1.96l21.4,7.79c1.36.49,2.8-.51,2.8-1.96ZM162.8,249.02h0c0-.88-.55-1.66-1.37-1.96l-21.4-7.79c-1.36-.49-2.8.51-2.8,1.96h0c0,.88.55,1.66,1.37,1.96l21.4,7.79c1.36.49,2.8-.51,2.8-1.96ZM162.8,261.3h0c0-.88-.55-1.66-1.37-1.96l-21.4-7.79c-1.36-.49-2.8.51-2.8,1.96h0c0,.88.55,1.66,1.37,1.96l21.4,7.79c1.36.49,2.8-.51,2.8-1.96ZM162.8,273.59h0c0-.88-.55-1.66-1.37-1.96l-21.4-7.79c-1.36-.49-2.8.51-2.8,1.96h0c0,.88.55,1.66,1.37,1.96l21.4,7.79c1.36.49,2.8-.51,2.8-1.96Z"/>
            </g>
          </g>
          <g>
            <line class="cls-2" x1="21.17" y1="248.11" x2="52.16" y2="248.11"/>
            <g>
              <rect x="5.73" y="216.37" width="24.72" height="63.15" rx="6.73" ry="6.73"/>
              <path class="cls-23" d="M6.47,226.4l21.4-7.79c.82-.3,1.37-1.08,1.37-1.96h0c0-1.45-1.44-2.45-2.8-1.96l-21.4,7.79c-.82.3-1.37,1.08-1.37,1.96h0c0,1.45,1.44,2.45,2.8,1.96ZM6.47,238.69l21.4-7.79c.82-.3,1.37-1.08,1.37-1.96h0c0-1.45-1.44-2.45-2.8-1.96l-21.4,7.79c-.82.3-1.37,1.08-1.37,1.96h0c0,1.45,1.44,2.45,2.8,1.96ZM6.47,250.97l21.4-7.79c.82-.3,1.37-1.08,1.37-1.96h0c0-1.45-1.44-2.45-2.8-1.96l-21.4,7.79c-.82.3-1.37,1.08-1.37,1.96h0c0,1.45,1.44,2.45,2.8,1.96ZM6.47,263.26l21.4-7.79c.82-.3,1.37-1.08,1.37-1.96h0c0-1.45-1.44-2.45-2.8-1.96l-21.4,7.79c-.82.3-1.37,1.08-1.37,1.96h0c0,1.45,1.44,2.45,2.8,1.96ZM6.47,275.55l21.4-7.79c.82-.3,1.37-1.08,1.37-1.96h0c0-1.45-1.44-2.45-2.8-1.96l-21.4,7.79c-.82.3-1.37,1.08-1.37,1.96h0c0,1.45,1.44,2.45,2.8,1.96Z"/>
            </g>
          </g>
          <g>
            <g>
              <line class="cls-2" x1="145.31" y1="319.13" x2="114.31" y2="319.13"/>
              <line class="cls-7" x1="145.31" y1="319.13" x2="114.31" y2="319.13"/>
            </g>
            <g>
              <rect x="136.03" y="287.38" width="24.72" height="63.15" rx="6.73" ry="6.73"/>
              <path class="cls-21" d="M162.8,295.45h0c0-.88-.55-1.66-1.37-1.96l-21.4-7.79c-1.36-.49-2.8.51-2.8,1.96h0c0,.88.55,1.66,1.37,1.96l21.4,7.79c1.36.49,2.8-.51,2.8-1.96ZM162.8,307.74h0c0-.88-.55-1.66-1.37-1.96l-21.4-7.79c-1.36-.49-2.8.51-2.8,1.96h0c0,.88.55,1.66,1.37,1.96l21.4,7.79c1.36.49,2.8-.51,2.8-1.96ZM162.8,320.03h0c0-.88-.55-1.66-1.37-1.96l-21.4-7.79c-1.36-.49-2.8.51-2.8,1.96h0c0,.88.55,1.66,1.37,1.96l21.4,7.79c1.36.49,2.8-.51,2.8-1.96ZM162.8,332.31h0c0-.88-.55-1.66-1.37-1.96l-21.4-7.79c-1.36-.49-2.8.51-2.8,1.96h0c0,.88.55,1.66,1.37,1.96l21.4,7.79c1.36.49,2.8-.51,2.8-1.96ZM162.8,344.6h0c0-.88-.55-1.66-1.37-1.96l-21.4-7.79c-1.36-.49-2.8.51-2.8,1.96h0c0,.88.55,1.66,1.37,1.96l21.4,7.79c1.36.49,2.8-.51,2.8-1.96Z"/>
            </g>
          </g>
          <g>
            <g>
              <line class="cls-2" x1="21.17" y1="319.13" x2="52.16" y2="319.13"/>
              <line class="cls-7" x1="21.17" y1="319.13" x2="52.16" y2="319.13"/>
            </g>
            <g>
              <rect x="5.73" y="287.38" width="24.72" height="63.15" rx="6.73" ry="6.73"/>
              <path class="cls-20" d="M6.47,297.41l21.4-7.79c.82-.3,1.37-1.08,1.37-1.96h0c0-1.45-1.44-2.45-2.8-1.96l-21.4,7.79c-.82.3-1.37,1.08-1.37,1.96h0c0,1.45,1.44,2.45,2.8,1.96ZM6.47,309.7l21.4-7.79c.82-.3,1.37-1.08,1.37-1.96h0c0-1.45-1.44-2.45-2.8-1.96l-21.4,7.79c-.82.3-1.37,1.08-1.37,1.96h0c0,1.45,1.44,2.45,2.8,1.96ZM6.47,321.99l21.4-7.79c.82-.3,1.37-1.08,1.37-1.96h0c0-1.45-1.44-2.45-2.8-1.96l-21.4,7.79c-.82.3-1.37,1.08-1.37,1.96h0c0,1.45,1.44,2.45,2.8,1.96ZM6.47,334.27l21.4-7.79c.82-.3,1.37-1.08,1.37-1.96h0c0-1.45-1.44-2.45-2.8-1.96l-21.4,7.79c-.82.3-1.37,1.08-1.37,1.96h0c0,1.45,1.44,2.45,2.8,1.96ZM6.47,346.56l21.4-7.79c.82-.3,1.37-1.08,1.37-1.96h0c0-1.45-1.44-2.45-2.8-1.96l-21.4,7.79c-.82.3-1.37,1.08-1.37,1.96h0c0,1.45,1.44,2.45,2.8,1.96Z"/>
            </g>
          </g>
          <rect x="74.2" y="48.41" width="18.08" height="98.81"/>
          <path class="cls-15" d="M91.73,145.71h-16.99c-2.25,0-4.13,1.69-4.37,3.93l-2.35,21.67c-.28,2.6,1.76,4.87,4.37,4.87h21.68c2.62,0,4.66-2.27,4.37-4.87l-2.35-21.67c-.24-2.23-2.13-3.93-4.37-3.93Z"/>
          <g>
            <line class="cls-4" x1="91.45" y1="174.64" x2="88.15" y2="144.17"/>
            <line class="cls-4" x1="75.03" y1="174.64" x2="78.33" y2="144.17"/>
          </g>
          <path class="cls-17" d="M50.98,167.09h64.51c3.31,0,6,2.69,6,6v90.46H44.98v-90.46c0-3.31,2.69-6,6-6Z"/>
          <path class="cls-15" d="M72.16,23.71h22.15v22.71c0,1.1-.9,2-2,2h-18.15c-1.1,0-2-.9-2-2v-22.71h0Z"/>
          <g>
            <rect class="cls-17" x="93.67" y="60.42" width="6.89" height="8.89" rx="2" ry="2"/>
            <path class="cls-1" d="M97.11,83.03v-18.17h-4.07c-1.1,0-2,.9-2,2v4.13c0,1.1-.9,2-2,2h-11.42"/>
          </g>
          <g>
            <rect class="cls-17" x="65.93" y="60.42" width="6.89" height="8.89" rx="2" ry="2" transform="translate(138.75 129.73) rotate(-180)"/>
            <path class="cls-1" d="M69.37,83.03v-18.17h4.07c1.1,0,2,.9,2,2v4.13c0,1.1.9,2,2,2h11.42"/>
          </g>
          <g>
            <rect class="cls-15" x="64.54" y="77.45" width="9.67" height="52.97" rx="3" ry="3"/>
            <rect class="cls-9" x="64.54" y="77.45" width="9.67" height="52.97" rx="3" ry="3"/>
          </g>
          <line class="cls-3" x1="97.11" y1="114.46" x2="97.11" y2="120.07"/>
          <line class="cls-3" x1="69.37" y1="114.46" x2="69.37" y2="120.07"/>
          <g>
            <g>
              <path d="M33.25,324.26h98.98l-4.25,38.4c-.28,2.53-2.42,4.45-4.97,4.45H41.4c-2.6,0-4.77-1.99-4.98-4.59l-3.18-38.26Z"/>
              <path class="cls-10" d="M33.25,324.26h98.98l-4.25,38.4c-.28,2.53-2.42,4.45-4.97,4.45H41.4c-2.6,0-4.77-1.99-4.98-4.59l-3.18-38.26Z"/>
            </g>
            <g>
              <path d="M124.24,252.01h-.11v-2.58c0-1.27-.86-2.44-2.11-2.68-1.68-.32-3.15.96-3.15,2.58v2.68H47.62v-2.58c0-1.27-.86-2.44-2.11-2.68-1.68-.32-3.15.96-3.15,2.58v2.68h0c-2.46,0-4.49,1.9-4.65,4.35l-4.46,67.9h98.98l-3.34-67.82c-.12-2.48-2.17-4.43-4.65-4.43Z"/>
              <path class="cls-22" d="M124.24,252.01h-.11v-2.58c0-1.27-.86-2.44-2.11-2.68-1.68-.32-3.15.96-3.15,2.58v2.68H47.62v-2.58c0-1.27-.86-2.44-2.11-2.68-1.68-.32-3.15.96-3.15,2.58v2.68h0c-2.46,0-4.49,1.9-4.65,4.35l-4.46,67.9h98.98l-3.34-67.82c-.12-2.48-2.17-4.43-4.65-4.43Z"/>
            </g>
          </g>
          <circle class="cls-17" cx="111.05" cy="339.11" r="4.71"/>
          <circle class="cls-5" cx="83.24" cy="275.68" r="10.94"/>
          <circle class="cls-15" cx="53.94" cy="275.68" r="5.58"/>
          <g>
            <rect x="50.25" y="173.38" width="10.54" height="10.54" rx="2" ry="2"/>
            <rect x="105.68" y="173.38" width="10.54" height="10.54" rx="2" ry="2"/>
          </g>
          <path class="cls-17" d="M128.66,385.72v13.34h-8.82v-2.21c0-2.47-2.01-4.48-4.49-4.48s-4.48,2.01-4.48,4.48v2.21h-7.1v-2.21c0-2.47-2.01-4.48-4.49-4.48s-4.48,2.01-4.48,4.48v2.21h-7.1v-2.21c0-2.47-2.01-4.48-4.49-4.48s-4.48,2.01-4.48,4.48v2.21h-7.1v-2.21c0-2.47-2.01-4.48-4.49-4.48s-4.48,2.01-4.48,4.48v2.21h-7.1v-2.21c0-2.47-2.01-4.48-4.49-4.48s-4.48,2.01-4.48,4.48v2.21h-8.82v-13.34h90.85Z"/>
          <g>
            <path d="M57.89,363.78h5.63v7.91c0,.55-.45,1-1,1h-3.63c-.55,0-1-.45-1-1v-7.91h0Z"/>
            <path d="M101.95,363.78h5.63v7.91c0,.55-.45,1-1,1h-3.63c-.55,0-1-.45-1-1v-7.91h0Z"/>
          </g>
        </g>
      </g>
    </g>
  </g>
</svg>