<?xml version="1.0" encoding="UTF-8"?>
<svg xmlns="http://www.w3.org/2000/svg" xmlns:xlink="http://www.w3.org/1999/xlink" viewBox="0 0 254.35 435.95">
  <defs>
    <style>
      .cls-1 {
        fill: url(#linear-gradient-2);
      }

      .cls-1, .cls-2, .cls-3, .cls-4, .cls-5, .cls-6, .cls-7 {
        mix-blend-mode: multiply;
      }

      .cls-8, .cls-2, .cls-9, .cls-10, .cls-6, .cls-11, .cls-7 {
        fill: none;
      }

      .cls-8, .cls-2, .cls-9, .cls-6, .cls-11, .cls-7 {
        stroke: #3081f2;
      }

      .cls-8, .cls-2, .cls-6 {
        stroke-miterlimit: 10;
      }

      .cls-12 {
        fill: url(#radial-gradient);
      }

      .cls-13 {
        fill: #828899;
      }

      .cls-14 {
        fill: url(#linear-gradient-3);
      }

      .cls-15, .cls-4 {
        fill: #3081f2;
      }

      .cls-9 {
        stroke-width: 2.5px;
      }

      .cls-9, .cls-10, .cls-11, .cls-7 {
        stroke-linecap: round;
        stroke-linejoin: round;
      }

      .cls-3 {
        fill: url(#linear-gradient-4);
      }

      .cls-16 {
        isolation: isolate;
      }

      .cls-10 {
        stroke: #41444d;
      }

      .cls-17 {
        fill: #41444d;
      }

      .cls-6 {
        stroke-width: 1.01px;
      }

      .cls-18 {
        fill: url(#linear-gradient);
      }
    </style>
    <linearGradient id="linear-gradient" x1="190.66" y1="2560.44" x2="136.63" y2="2487.22" gradientTransform="translate(-85.77 -2149.22)" gradientUnits="userSpaceOnUse">
      <stop offset=".09" stop-color="#828899"/>
      <stop offset=".36" stop-color="#828899" stop-opacity=".59"/>
      <stop offset=".65" stop-color="#828899" stop-opacity=".17"/>
      <stop offset=".79" stop-color="#828899" stop-opacity="0"/>
    </linearGradient>
    <radialGradient id="radial-gradient" cx="76.31" cy="136.39" fx="76.31" fy="121.92" r="14.47" gradientUnits="userSpaceOnUse">
      <stop offset=".06" stop-color="#fff"/>
      <stop offset=".08" stop-color="#fffbf4"/>
      <stop offset=".18" stop-color="#ffebbb"/>
      <stop offset=".3" stop-color="#ffdd89"/>
      <stop offset=".41" stop-color="#ffd15f"/>
      <stop offset=".52" stop-color="#ffc83c"/>
      <stop offset=".64" stop-color="#ffc022"/>
      <stop offset=".75" stop-color="#ffbb0f"/>
      <stop offset=".87" stop-color="#ffb803"/>
      <stop offset="1" stop-color="#ffb700"/>
    </radialGradient>
    <linearGradient id="linear-gradient-2" x1="76.51" y1="308.23" x2="76.51" y2="251.84" gradientUnits="userSpaceOnUse">
      <stop offset=".35" stop-color="#3081f2"/>
      <stop offset=".46" stop-color="#3081f2" stop-opacity=".8"/>
      <stop offset=".73" stop-color="#3081f2" stop-opacity=".38"/>
      <stop offset=".91" stop-color="#3081f2" stop-opacity=".11"/>
      <stop offset="1" stop-color="#3081f2" stop-opacity="0"/>
    </linearGradient>
    <linearGradient id="linear-gradient-3" x1="-5144.71" y1="-2699.42" x2="-5216.78" y2="-2740.37" gradientTransform="translate(-2960.62 5354.22) rotate(95.05)" gradientUnits="userSpaceOnUse">
      <stop offset=".16" stop-color="#a3aabf"/>
      <stop offset=".57" stop-color="#a3aabf" stop-opacity=".47"/>
      <stop offset=".86" stop-color="#a3aabf" stop-opacity=".13"/>
      <stop offset="1" stop-color="#a3aabf" stop-opacity="0"/>
    </linearGradient>
    <linearGradient id="linear-gradient-4" x1="219.61" y1="392.24" x2="127.44" y2="392.24" gradientTransform="translate(254.37 -33.32) rotate(35.32)" gradientUnits="userSpaceOnUse">
      <stop offset="0" stop-color="#3081f2"/>
      <stop offset=".18" stop-color="#3081f2" stop-opacity=".8"/>
      <stop offset=".59" stop-color="#3081f2" stop-opacity=".38"/>
      <stop offset=".87" stop-color="#3081f2" stop-opacity=".11"/>
      <stop offset="1" stop-color="#3081f2" stop-opacity="0"/>
    </linearGradient>
  </defs>
  <g class="cls-16">
    <g id="Layer_2" data-name="Layer 2">
      <g id="artwork">
        <g>
          <g>
            <g>
              <rect x="123.21" y="188.31" width="29.81" height="145.83" rx="11.18" ry="11.18"/>
              <g>
                <line class="cls-10" x1="135.72" y1="199.79" x2="152.44" y2="199.79"/>
                <line class="cls-10" x1="135.72" y1="211.88" x2="152.44" y2="211.88"/>
                <line class="cls-10" x1="135.72" y1="223.96" x2="152.44" y2="223.96"/>
                <line class="cls-10" x1="135.72" y1="236.05" x2="152.44" y2="236.05"/>
                <line class="cls-10" x1="135.72" y1="248.14" x2="152.44" y2="248.14"/>
                <line class="cls-10" x1="135.72" y1="260.23" x2="152.44" y2="260.23"/>
                <line class="cls-10" x1="135.72" y1="272.31" x2="152.44" y2="272.31"/>
                <line class="cls-10" x1="135.72" y1="284.4" x2="152.44" y2="284.4"/>
                <line class="cls-10" x1="135.72" y1="296.49" x2="152.44" y2="296.49"/>
                <line class="cls-10" x1="135.72" y1="308.57" x2="152.44" y2="308.57"/>
                <line class="cls-10" x1="135.72" y1="320.66" x2="152.44" y2="320.66"/>
              </g>
            </g>
            <g>
              <rect x="0" y="188.31" width="29.81" height="145.83" rx="11.18" ry="11.18" transform="translate(29.81 522.45) rotate(180)"/>
              <g>
                <line class="cls-10" x1="17.31" y1="322.66" x2=".59" y2="322.66"/>
                <line class="cls-10" x1="17.31" y1="310.57" x2=".59" y2="310.57"/>
                <line class="cls-10" x1="17.31" y1="298.48" x2=".59" y2="298.48"/>
                <line class="cls-10" x1="17.31" y1="286.4" x2=".59" y2="286.4"/>
                <line class="cls-10" x1="17.31" y1="274.31" x2=".59" y2="274.31"/>
                <line class="cls-10" x1="17.31" y1="262.22" x2=".59" y2="262.22"/>
                <line class="cls-10" x1="17.31" y1="250.13" x2=".59" y2="250.13"/>
                <line class="cls-10" x1="17.31" y1="238.05" x2=".59" y2="238.05"/>
                <line class="cls-10" x1="17.31" y1="225.96" x2=".59" y2="225.96"/>
                <line class="cls-10" x1="17.31" y1="213.87" x2=".59" y2="213.87"/>
                <line class="cls-10" x1="17.31" y1="201.79" x2=".59" y2="201.79"/>
              </g>
            </g>
          </g>
          <g>
            <polygon class="cls-4" points="119.71 89.06 33.31 89.06 18.01 157.47 135.01 157.47 119.71 89.06"/>
            <polygon class="cls-4" points="119.71 89.06 33.31 89.06 18.01 157.47 135.01 157.47 119.71 89.06"/>
          </g>
          <g>
            <g>
              <path d="M78.48,76.32l-1.24,10.41c-.09.8-.02,1.61.21,2.38l20.79,68.42,11.03-3.35-20.79-68.42c-.23-.77-.62-1.48-1.15-2.09l-6.82-7.97c-.66-.77-1.92-.39-2.04.62Z"/>
              <g>
                <line class="cls-10" x1="78.01" y1="90.93" x2="91.26" y2="94.89"/>
                <line class="cls-10" x1="80.39" y1="98.75" x2="93.64" y2="102.71"/>
                <line class="cls-10" x1="82.76" y1="106.57" x2="96.01" y2="110.53"/>
                <line class="cls-10" x1="85.14" y1="114.39" x2="98.39" y2="118.34"/>
                <line class="cls-10" x1="87.51" y1="122.2" x2="100.77" y2="126.16"/>
                <line class="cls-10" x1="89.89" y1="130.02" x2="103.14" y2="133.98"/>
                <line class="cls-10" x1="92.26" y1="137.84" x2="105.52" y2="141.8"/>
              </g>
            </g>
            <ellipse class="cls-17" cx="103.87" cy="156.27" rx="5.79" ry="4.87" transform="translate(-40.95 36.95) rotate(-16.9)"/>
          </g>
          <g>
            <g>
              <path d="M74.07,76.32l1.24,10.41c.09.8.02,1.61-.21,2.38l-20.79,68.42-11.03-3.35,20.79-68.42c.23-.77.62-1.48,1.15-2.09l6.82-7.97c.66-.77,1.92-.39,2.04.62Z"/>
              <g>
                <line class="cls-10" x1="74.54" y1="90.93" x2="61.29" y2="94.89"/>
                <line class="cls-10" x1="72.17" y1="98.75" x2="58.91" y2="102.71"/>
                <line class="cls-10" x1="69.79" y1="106.57" x2="56.54" y2="110.53"/>
                <line class="cls-10" x1="67.41" y1="114.39" x2="54.16" y2="118.34"/>
                <line class="cls-10" x1="65.04" y1="122.2" x2="51.79" y2="126.16"/>
                <line class="cls-10" x1="62.66" y1="130.02" x2="49.41" y2="133.98"/>
                <line class="cls-10" x1="60.29" y1="137.84" x2="47.03" y2="141.8"/>
              </g>
            </g>
            <ellipse class="cls-17" cx="48.69" cy="156.27" rx="4.87" ry="5.79" transform="translate(-114.99 157.42) rotate(-73.1)"/>
          </g>
          <g>
            <rect class="cls-15" x="11.81" y="172.61" width="129.41" height="201.89" rx="4.78" ry="4.78"/>
            <rect class="cls-4" x="11.81" y="172.61" width="129.41" height="201.89" rx="4.78" ry="4.78"/>
          </g>
          <g>
            <rect class="cls-15" x="63.71" y="342" width="25.6" height="38.56"/>
            <rect class="cls-4" x="63.71" y="342" width="25.6" height="38.56"/>
          </g>
          <g>
            <g>
              <path d="M80.45,346.54h0c13.36,0,24.21,10.85,24.21,24.21v14.68c0,13.36-10.85,24.21-24.21,24.21h0c-13.36,0-24.21-10.85-24.21-24.21v-14.68c0-13.36,10.85-24.21,24.21-24.21Z" transform="translate(-166.55 80.74) rotate(-27.7)"/>
              <path class="cls-18" d="M80.45,346.54h0c13.36,0,24.21,10.85,24.21,24.21v14.68c0,13.36-10.85,24.21-24.21,24.21h0c-13.36,0-24.21-10.85-24.21-24.21v-14.68c0-13.36,10.85-24.21,24.21-24.21Z" transform="translate(-166.55 80.74) rotate(-27.7)"/>
            </g>
            <g>
              <line class="cls-9" x1="62.6" y1="396.19" x2="105.48" y2="373.68"/>
              <line class="cls-9" x1="55.42" y1="382.5" x2="98.29" y2="359.99"/>
              <rect class="cls-15" x="72.72" y="370.36" width="15.46" height="15.46" transform="translate(-166.55 80.74) rotate(-27.7)"/>
            </g>
          </g>
          <path class="cls-15" d="M123.44,163.87h-10.92l-33.02-107.05c-1.04-3.36,1.47-6.76,4.99-6.76h0c2.29,0,4.31,1.49,4.99,3.68l33.96,110.12Z"/>
          <path class="cls-15" d="M29.17,163.87h10.92s33.02-107.05,33.02-107.05c1.04-3.36-1.47-6.76-4.99-6.76h0c-2.29,0-4.31,1.49-4.99,3.68l-33.96,110.12Z"/>
          <path class="cls-15" d="M131.36,156.1c-14.18-13.75-33.52-22.22-54.84-22.22s-40.64,8.46-54.84,22.21c-1.42,1.38-1.43,3.66-.03,5.06h0c1.36,1.37,3.58,1.4,4.96.06.67-.65,1.35-1.28,2.05-1.9h0l-.57,8.29-1.52,22.55c-.03.33-.04.67-.04,1.01,0,3.26,1.07,6.45,3.07,9.15.91,1.22,1.63,2.55,2.14,3.94l5.73,15.58s4.45,8.53,23.54,11.7c4.36.73,9.48,1.17,15.49,1.17s11.13-.44,15.5-1.17c19.09-3.17,23.54-11.7,23.54-11.7l5.73-15.58c.51-1.4,1.23-2.72,2.13-3.94,2.21-2.98,3.28-6.55,3.04-10.16l-1.52-22.55-.57-8.29c.68.61,1.36,1.23,2.02,1.87,1.4,1.35,3.61,1.35,4.99-.02h0c1.4-1.4,1.39-3.68-.03-5.06Z"/>
          <path class="cls-7" d="M27.04,189.25h16.72l9.15-9.15c3.91-3.91,9.22-6.11,14.75-6.11h17.66c5.53,0,10.84,2.2,14.75,6.11l9.15,9.15h16.76"/>
          <path class="cls-7" d="M85.33,134.79v21.06c0,4.87-3.95,8.82-8.82,8.82h0c-4.87,0-8.82-3.95-8.82-8.82v-21.06"/>
          <path class="cls-12" d="M76.51,130.07h0c3.11,0,5.63,2.52,5.63,5.63v8.84h-11.25v-8.84c0-3.11,2.52-5.63,5.63-5.63Z"/>
          <g>
            <g>
              <g>
                <path class="cls-15" d="M107.9.43l2.33,5.47c.18.43.73.56,1.09.27l4.61-3.76c.48-.39,1.19-.02,1.14.6l-.47,5.93c-.04.46.38.84.84.74l5.83-1.19c.6-.12,1.06.54.73,1.06l-3.17,5.03c-.25.39-.05.92.4,1.05l5.71,1.66c.59.17.69.97.16,1.28l-5.15,2.98c-.4.23-.47.79-.13,1.11l4.29,4.12c.44.43.16,1.18-.46,1.2l-5.94.24c-.47.02-.78.48-.64.92l1.88,5.64c.19.59-.41,1.12-.96.85l-5.37-2.55c-.42-.2-.92.06-.99.52l-.96,5.87c-.1.61-.88.8-1.25.31l-3.58-4.75c-.28-.37-.84-.37-1.12,0l-3.58,4.75c-.37.49-1.15.3-1.25-.31l-.96-5.87c-.08-.46-.57-.72-.99-.52l-5.37,2.55c-.56.26-1.16-.27-.96-.85l1.88-5.64c.15-.44-.17-.9-.64-.92l-5.94-.24c-.62-.03-.9-.78-.46-1.2l4.29-4.12c.34-.32.27-.88-.13-1.11l-5.15-2.98c-.53-.31-.44-1.11.16-1.28l5.71-1.66c.45-.13.65-.65.4-1.05l-3.17-5.03c-.33-.52.13-1.18.73-1.06l5.83,1.19c.46.09.88-.28.84-.74l-.47-5.93c-.05-.61.66-.99,1.14-.6l4.61,3.76c.36.29.9.16,1.09-.27l2.33-5.47c.24-.57,1.05-.57,1.29,0Z"/>
                <path class="cls-4" d="M107.9.43l2.33,5.47c.18.43.73.56,1.09.27l4.61-3.76c.48-.39,1.19-.02,1.14.6l-.47,5.93c-.04.46.38.84.84.74l5.83-1.19c.6-.12,1.06.54.73,1.06l-3.17,5.03c-.25.39-.05.92.4,1.05l5.71,1.66c.59.17.69.97.16,1.28l-5.15,2.98c-.4.23-.47.79-.13,1.11l4.29,4.12c.44.43.16,1.18-.46,1.2l-5.94.24c-.47.02-.78.48-.64.92l1.88,5.64c.19.59-.41,1.12-.96.85l-5.37-2.55c-.42-.2-.92.06-.99.52l-.96,5.87c-.1.61-.88.8-1.25.31l-3.58-4.75c-.28-.37-.84-.37-1.12,0l-3.58,4.75c-.37.49-1.15.3-1.25-.31l-.96-5.87c-.08-.46-.57-.72-.99-.52l-5.37,2.55c-.56.26-1.16-.27-.96-.85l1.88-5.64c.15-.44-.17-.9-.64-.92l-5.94-.24c-.62-.03-.9-.78-.46-1.2l4.29-4.12c.34-.32.27-.88-.13-1.11l-5.15-2.98c-.53-.31-.44-1.11.16-1.28l5.71-1.66c.45-.13.65-.65.4-1.05l-3.17-5.03c-.33-.52.13-1.18.73-1.06l5.83,1.19c.46.09.88-.28.84-.74l-.47-5.93c-.05-.61.66-.99,1.14-.6l4.61,3.76c.36.29.9.16,1.09-.27l2.33-5.47c.24-.57,1.05-.57,1.29,0Z"/>
              </g>
              <circle class="cls-15" cx="107.26" cy="20.03" r="3.03"/>
            </g>
            <g>
              <g>
                <path class="cls-15" d="M46.31.43l2.33,5.47c.18.43.73.56,1.09.27l4.61-3.76c.48-.39,1.19-.02,1.14.6l-.47,5.93c-.04.46.38.84.84.74l5.83-1.19c.6-.12,1.06.54.73,1.06l-3.17,5.03c-.25.39-.05.92.4,1.05l5.71,1.66c.59.17.69.97.16,1.28l-5.15,2.98c-.4.23-.47.79-.13,1.11l4.29,4.12c.44.43.16,1.18-.46,1.2l-5.94.24c-.47.02-.78.48-.64.92l1.88,5.64c.19.59-.41,1.12-.96.85l-5.37-2.55c-.42-.2-.92.06-.99.52l-.96,5.87c-.1.61-.88.8-1.25.31l-3.58-4.75c-.28-.37-.84-.37-1.12,0l-3.58,4.75c-.37.49-1.15.3-1.25-.31l-.96-5.87c-.08-.46-.57-.72-.99-.52l-5.37,2.55c-.56.26-1.16-.27-.96-.85l1.88-5.64c.15-.44-.17-.9-.64-.92l-5.94-.24c-.62-.03-.9-.78-.46-1.2l4.29-4.12c.34-.32.27-.88-.13-1.11l-5.15-2.98c-.53-.31-.44-1.11.16-1.28l5.71-1.66c.45-.13.65-.65.4-1.05l-3.17-5.03c-.33-.52.13-1.18.73-1.06l5.83,1.19c.46.09.88-.28.84-.74l-.47-5.93c-.05-.61.66-.99,1.14-.6l4.61,3.76c.36.29.9.16,1.09-.27l2.33-5.47c.24-.57,1.05-.57,1.29,0Z"/>
                <path class="cls-4" d="M46.31.43l2.33,5.47c.18.43.73.56,1.09.27l4.61-3.76c.48-.39,1.19-.02,1.14.6l-.47,5.93c-.04.46.38.84.84.74l5.83-1.19c.6-.12,1.06.54.73,1.06l-3.17,5.03c-.25.39-.05.92.4,1.05l5.71,1.66c.59.17.69.97.16,1.28l-5.15,2.98c-.4.23-.47.79-.13,1.11l4.29,4.12c.44.43.16,1.18-.46,1.2l-5.94.24c-.47.02-.78.48-.64.92l1.88,5.64c.19.59-.41,1.12-.96.85l-5.37-2.55c-.42-.2-.92.06-.99.52l-.96,5.87c-.1.61-.88.8-1.25.31l-3.58-4.75c-.28-.37-.84-.37-1.12,0l-3.58,4.75c-.37.49-1.15.3-1.25-.31l-.96-5.87c-.08-.46-.57-.72-.99-.52l-5.37,2.55c-.56.26-1.16-.27-.96-.85l1.88-5.64c.15-.44-.17-.9-.64-.92l-5.94-.24c-.62-.03-.9-.78-.46-1.2l4.29-4.12c.34-.32.27-.88-.13-1.11l-5.15-2.98c-.53-.31-.44-1.11.16-1.28l5.71-1.66c.45-.13.65-.65.4-1.05l-3.17-5.03c-.33-.52.13-1.18.73-1.06l5.83,1.19c.46.09.88-.28.84-.74l-.47-5.93c-.05-.61.66-.99,1.14-.6l4.61,3.76c.36.29.9.16,1.09-.27l2.33-5.47c.24-.57,1.05-.57,1.29,0Z"/>
              </g>
              <circle class="cls-15" cx="45.67" cy="20.03" r="3.03"/>
            </g>
            <path class="cls-15" d="M134.36,19.14c3.82,0,5.97,4.42,3.59,7.42-14.38,18.07-36.56,29.65-61.45,29.65S29.45,44.63,15.07,26.56c-2.38-2.99-.23-7.42,3.59-7.42h0c1.56,0,3.01.79,3.84,2.1,4.84,7.66,13.38,12.75,23.12,12.75s18.6-5.28,23.39-13.19c.62-1.03,1.72-1.67,2.91-1.67h9.17c1.2,0,2.29.64,2.91,1.67,4.79,7.91,13.48,13.19,23.39,13.19s18.28-5.09,23.12-12.75c.83-1.32,2.29-2.1,3.84-2.1h0Z"/>
          </g>
          <g class="cls-5">
            <path class="cls-11" d="M79.28,55.73c-.26-2.96,2.07-5.66,5.2-5.66h0c2.29,0,4.31,1.49,4.99,3.68l.36,1.18"/>
          </g>
          <g class="cls-5">
            <path class="cls-11" d="M73.34,55.61c.19-2.91-2.13-5.54-5.21-5.54h0c-2.29,0-4.31,1.49-4.99,3.68l-.31,1.01"/>
          </g>
          <g>
            <path class="cls-15" d="M121.44,275.66H31.59l11.49-29.5c.62-1.6,2.17-2.66,3.89-2.66h59.09c1.72,0,3.27,1.06,3.89,2.66l11.49,29.5Z"/>
            <path class="cls-1" d="M121.44,275.66H31.59l11.49-29.5c.62-1.6,2.17-2.66,3.89-2.66h59.09c1.72,0,3.27,1.06,3.89,2.66l11.49,29.5Z"/>
          </g>
          <rect class="cls-15" x="31.59" y="272.25" width="89.86" height="64.33" rx="4.18" ry="4.18"/>
          <line class="cls-2" x1="31.59" y1="309.13" x2="121.44" y2="309.13"/>
          <path class="cls-15" d="M103.43,352h-53.84c-1.49,0-2.7-1.21-2.7-2.7v-12.94h59.24v12.94c0,1.49-1.21,2.7-2.7,2.7Z"/>
          <rect x="49.93" y="341.78" width="53.17" height="7.5" rx="1.8" ry="1.8"/>
          <line class="cls-2" x1="46.89" y1="337.05" x2="106.13" y2="337.05"/>
          <g>
            <rect class="cls-15" x="157.32" y="380.12" width="62.23" height="41.19" transform="translate(266.39 -35.18) rotate(35.32)"/>
            <circle class="cls-2" cx="193.8" cy="404.49" r="14.79"/>
            <g>
              <path d="M216.57,434.07l30.54-12.72.28.68c.77,1.84,2.89,2.71,4.73,1.94,1.84-.77,2.71-2.89,1.94-4.73l-19.25-46.11c-.77-1.84-2.89-2.71-4.73-1.94s-2.71,2.89-1.94,4.73l.31.75-30.54,12.72c-12.34,5.15-18.17,19.33-13.02,31.67h0c5.15,12.34,19.33,18.17,31.67,13.02Z"/>
              <path class="cls-14" d="M216.57,434.07l30.54-12.72.28.68c.77,1.84,2.89,2.71,4.73,1.94,1.84-.77,2.71-2.89,1.94-4.73l-19.25-46.11c-.77-1.84-2.89-2.71-4.73-1.94s-2.71,2.89-1.94,4.73l.31.75-30.54,12.72c-12.34,5.15-18.17,19.33-13.02,31.67h0c5.15,12.34,19.33,18.17,31.67,13.02Z"/>
            </g>
            <line class="cls-6" x1="187.88" y1="375.08" x2="164.05" y2="408.71"/>
            <g>
              <path class="cls-15" d="M163.7,408.4l-47.23-33.45c-1.62-1.15-2.01-3.4-.86-5.02l19.65-27.73c1.15-1.62,3.4-2.01,5.02-.86l47.23,33.45-23.82,33.61Z"/>
              <path class="cls-3" d="M163.7,408.4l-47.23-33.45c-1.62-1.15-2.01-3.4-.86-5.02l19.65-27.73c1.15-1.62,3.4-2.01,5.02-.86l47.23,33.45-23.82,33.61Z"/>
            </g>
            <line class="cls-2" x1="155.13" y1="352.39" x2="131.51" y2="385.71"/>
          </g>
          <g>
            <path class="cls-8" d="M141.22,211.29h-12.53c-1.49,0-2.7,1.21-2.7,2.7v9.83c0,1.49,1.21,2.7,2.7,2.7h12.53"/>
            <path class="cls-8" d="M141.22,233.27h-12.53c-1.49,0-2.7,1.21-2.7,2.7v9.83c0,1.49,1.21,2.7,2.7,2.7h12.53"/>
            <path class="cls-8" d="M141.22,255.25h-12.53c-1.49,0-2.7,1.21-2.7,2.7v9.83c0,1.49,1.21,2.7,2.7,2.7h12.53"/>
          </g>
          <g>
            <path class="cls-8" d="M11.81,270.48h12.53c1.49,0,2.7-1.21,2.7-2.7v-9.83c0-1.49-1.21-2.7-2.7-2.7h-12.53"/>
            <path class="cls-8" d="M11.81,248.5h12.53c1.49,0,2.7-1.21,2.7-2.7v-9.83c0-1.49-1.21-2.7-2.7-2.7h-12.53"/>
            <path class="cls-8" d="M11.81,226.51h12.53c1.49,0,2.7-1.21,2.7-2.7v-9.83c0-1.49-1.21-2.7-2.7-2.7h-12.53"/>
          </g>
          <g>
            <g>
              <path d="M110.82,76.34l-1.03,10.44c-.08.8,0,1.61.26,2.37l22.13,68,10.96-3.57-22.13-68c-.25-.76-.65-1.47-1.19-2.07l-6.98-7.83c-.67-.76-1.93-.35-2.03.66Z"/>
              <g>
                <line class="cls-10" x1="110.64" y1="90.96" x2="123.97" y2="94.66"/>
                <line class="cls-10" x1="113.17" y1="98.73" x2="126.49" y2="102.43"/>
                <line class="cls-10" x1="115.69" y1="106.5" x2="129.02" y2="110.2"/>
                <line class="cls-10" x1="118.22" y1="114.27" x2="131.55" y2="117.97"/>
                <line class="cls-10" x1="120.75" y1="122.04" x2="134.08" y2="125.74"/>
                <line class="cls-10" x1="123.28" y1="129.81" x2="136.61" y2="133.51"/>
                <line class="cls-10" x1="125.81" y1="137.58" x2="139.13" y2="141.28"/>
              </g>
            </g>
            <ellipse class="cls-13" cx="137.77" cy="155.78" rx="5.79" ry="4.87" transform="translate(-41.44 50.27) rotate(-18.02)"/>
          </g>
          <g>
            <g>
              <path d="M42.22,76.34l1.03,10.44c.08.8,0,1.61-.26,2.37l-22.13,68-10.96-3.57,22.13-68c.25-.76.65-1.47,1.19-2.07l6.98-7.83c.67-.76,1.93-.35,2.03.66Z"/>
              <g>
                <line class="cls-10" x1="42.4" y1="90.96" x2="29.08" y2="94.66"/>
                <line class="cls-10" x1="39.87" y1="98.73" x2="26.55" y2="102.43"/>
                <line class="cls-10" x1="37.35" y1="106.5" x2="24.02" y2="110.2"/>
                <line class="cls-10" x1="34.82" y1="114.27" x2="21.49" y2="117.97"/>
                <line class="cls-10" x1="32.29" y1="122.04" x2="18.96" y2="125.74"/>
                <line class="cls-10" x1="29.76" y1="129.81" x2="16.43" y2="133.51"/>
                <line class="cls-10" x1="27.23" y1="137.58" x2="13.91" y2="141.28"/>
              </g>
            </g>
            <ellipse class="cls-13" cx="15.27" cy="155.78" rx="4.87" ry="5.79" transform="translate(-137.59 122.1) rotate(-71.98)"/>
          </g>
          <path class="cls-7" d="M47.67,139.34c-4.51,1.77-8.82,3.95-12.88,6.49"/>
          <path class="cls-7" d="M117.67,145.48c-4-2.45-8.23-4.56-12.65-6.28"/>
        </g>
      </g>
    </g>
  </g>
</svg>