<?xml version="1.0" encoding="UTF-8"?>
<svg xmlns="http://www.w3.org/2000/svg" xmlns:xlink="http://www.w3.org/1999/xlink" viewBox="0 0 195.55 385.02">
  <defs>
    <style>
      .cls-1 {
        fill: url(#linear-gradient-2);
      }

      .cls-1, .cls-2, .cls-3, .cls-4, .cls-5, .cls-6, .cls-7 {
        mix-blend-mode: multiply;
      }

      .cls-2 {
        fill: url(#linear-gradient-13);
      }

      .cls-8 {
        fill: url(#linear-gradient-10);
      }

      .cls-9, .cls-10, .cls-11, .cls-12 {
        fill: none;
      }

      .cls-13 {
        fill: url(#linear-gradient-4);
      }

      .cls-3 {
        fill: url(#linear-gradient-12);
      }

      .cls-14 {
        fill: url(#radial-gradient);
      }

      .cls-15 {
        fill: #828899;
      }

      .cls-16 {
        fill: url(#linear-gradient-3);
      }

      .cls-17 {
        fill: #3081f2;
      }

      .cls-18 {
        fill: url(#linear-gradient-5);
      }

      .cls-19 {
        isolation: isolate;
      }

      .cls-4 {
        fill: url(#linear-gradient-8);
      }

      .cls-20 {
        fill: url(#radial-gradient-2);
      }

      .cls-10 {
        stroke: #000;
        stroke-width: 2.5px;
      }

      .cls-10, .cls-12 {
        stroke-linecap: round;
        stroke-linejoin: round;
      }

      .cls-11 {
        stroke: #828899;
        stroke-miterlimit: 10;
      }

      .cls-21 {
        fill: url(#linear-gradient-9);
      }

      .cls-22 {
        fill: url(#linear-gradient-11);
      }

      .cls-23 {
        fill: url(#Summer_3);
      }

      .cls-12 {
        stroke: #3081f2;
      }

      .cls-24 {
        fill: url(#linear-gradient);
      }

      .cls-6 {
        fill: url(#linear-gradient-6);
      }

      .cls-7 {
        fill: url(#linear-gradient-7);
      }
    </style>
    <linearGradient id="linear-gradient" x1="102.28" y1="317.56" x2="97.56" y2="276.62" gradientUnits="userSpaceOnUse">
      <stop offset=".34" stop-color="#000"/>
      <stop offset=".67" stop-color="#000" stop-opacity="0"/>
      <stop offset="1" stop-color="#000"/>
    </linearGradient>
    <linearGradient id="linear-gradient-2" x1="97.53" y1="292.65" x2="97.82" y2="266.85" gradientUnits="userSpaceOnUse">
      <stop offset=".18" stop-color="#3081f2"/>
      <stop offset=".33" stop-color="#3081f2" stop-opacity=".8"/>
      <stop offset=".66" stop-color="#3081f2" stop-opacity=".38"/>
      <stop offset=".89" stop-color="#3081f2" stop-opacity=".11"/>
      <stop offset="1" stop-color="#3081f2" stop-opacity="0"/>
    </linearGradient>
    <linearGradient id="linear-gradient-3" x1="-384.21" y1="368.09" x2="-388.92" y2="327.29" gradientTransform="translate(562.96 132.61) rotate(15.79)" gradientUnits="userSpaceOnUse">
      <stop offset=".34" stop-color="#000"/>
      <stop offset=".68" stop-color="#000" stop-opacity="0"/>
      <stop offset="1" stop-color="#000"/>
    </linearGradient>
    <linearGradient id="linear-gradient-4" x1="138.45" y1="-4.08" x2="138.45" y2="19.91" gradientUnits="userSpaceOnUse">
      <stop offset=".18" stop-color="#828899"/>
      <stop offset=".49" stop-color="#828899" stop-opacity=".59"/>
      <stop offset=".84" stop-color="#828899" stop-opacity=".17"/>
      <stop offset="1" stop-color="#828899" stop-opacity="0"/>
    </linearGradient>
    <linearGradient id="linear-gradient-5" x1="57.11" x2="57.11" y2="19.91" xlink:href="#linear-gradient-4"/>
    <linearGradient id="linear-gradient-6" x1="118.12" y1="41.57" x2="138.05" y2="41.57" gradientUnits="userSpaceOnUse">
      <stop offset=".05" stop-color="#828899"/>
      <stop offset=".37" stop-color="#828899" stop-opacity=".59"/>
      <stop offset=".71" stop-color="#828899" stop-opacity=".17"/>
      <stop offset=".88" stop-color="#828899" stop-opacity="0"/>
    </linearGradient>
    <linearGradient id="linear-gradient-7" x1="-4984.59" y1="3506.36" x2="-4964.66" y2="3506.36" gradientTransform="translate(-4907.15 3547.93) rotate(-180)" xlink:href="#linear-gradient-6"/>
    <linearGradient id="linear-gradient-8" x1="97.78" y1="87.33" x2="97.78" y2="19.01" gradientUnits="userSpaceOnUse">
      <stop offset="0" stop-color="#3081f2"/>
      <stop offset=".11" stop-color="#3081f2" stop-opacity=".77"/>
      <stop offset=".23" stop-color="#3081f2" stop-opacity=".54"/>
      <stop offset=".35" stop-color="#3081f2" stop-opacity=".34"/>
      <stop offset=".46" stop-color="#3081f2" stop-opacity=".19"/>
      <stop offset=".56" stop-color="#3081f2" stop-opacity=".09"/>
      <stop offset=".66" stop-color="#3081f2" stop-opacity=".02"/>
      <stop offset=".73" stop-color="#3081f2" stop-opacity="0"/>
    </linearGradient>
    <linearGradient id="linear-gradient-9" x1="72.98" y1="220.31" x2="131.45" y2="220.31" gradientUnits="userSpaceOnUse">
      <stop offset="0" stop-color="#828899"/>
      <stop offset=".06" stop-color="#828899" stop-opacity=".95"/>
      <stop offset=".15" stop-color="#828899" stop-opacity=".82"/>
      <stop offset=".26" stop-color="#828899" stop-opacity=".59"/>
      <stop offset=".39" stop-color="#828899" stop-opacity=".29"/>
      <stop offset=".49" stop-color="#828899" stop-opacity="0"/>
    </linearGradient>
    <linearGradient id="linear-gradient-10" x1="174.4" y1="174.85" x2="147.57" y2="174.85" gradientUnits="userSpaceOnUse">
      <stop offset="0" stop-color="#828899"/>
      <stop offset=".22" stop-color="#828899" stop-opacity=".59"/>
      <stop offset=".46" stop-color="#828899" stop-opacity=".17"/>
      <stop offset=".58" stop-color="#828899" stop-opacity="0"/>
    </linearGradient>
    <linearGradient id="linear-gradient-11" x1="-4927.78" y1="174.85" x2="-4954.61" y2="174.85" gradientTransform="translate(-4906.62) rotate(-180) scale(1 -1)" xlink:href="#linear-gradient-10"/>
    <linearGradient id="linear-gradient-12" x1="133.34" y1="165.74" x2="164.39" y2="165.74" gradientUnits="userSpaceOnUse">
      <stop offset=".09" stop-color="#3081f2"/>
      <stop offset=".23" stop-color="#3081f2" stop-opacity=".83"/>
      <stop offset=".54" stop-color="#3081f2" stop-opacity=".4"/>
      <stop offset=".81" stop-color="#3081f2" stop-opacity="0"/>
    </linearGradient>
    <linearGradient id="linear-gradient-13" x1="-4583.34" y1="165.74" x2="-4552.29" y2="165.74" gradientTransform="translate(-4521.12) rotate(-180) scale(1 -1)" xlink:href="#linear-gradient-12"/>
    <radialGradient id="Summer_3" data-name="Summer 3" cx="97.78" cy="101.12" fx="97.78" fy="101.12" r="7.61" gradientUnits="userSpaceOnUse">
      <stop offset="0" stop-color="#fff"/>
      <stop offset=".02" stop-color="#fffbf4"/>
      <stop offset=".14" stop-color="#ffebbb"/>
      <stop offset=".25" stop-color="#ffdd89"/>
      <stop offset=".37" stop-color="#ffd15f"/>
      <stop offset=".49" stop-color="#ffc83c"/>
      <stop offset=".61" stop-color="#ffc022"/>
      <stop offset=".74" stop-color="#ffbb0f"/>
      <stop offset=".87" stop-color="#ffb803"/>
      <stop offset="1" stop-color="#ffb700"/>
    </radialGradient>
    <radialGradient id="radial-gradient" cx="147.73" cy="208.68" fx="147.73" fy="208.68" r="14.14" gradientUnits="userSpaceOnUse">
      <stop offset="0" stop-color="#ff192e"/>
      <stop offset=".07" stop-color="#ec1528"/>
      <stop offset=".24" stop-color="#c80d1e"/>
      <stop offset=".41" stop-color="#ab0716"/>
      <stop offset=".58" stop-color="#970310"/>
      <stop offset=".74" stop-color="#8b000d"/>
      <stop offset=".91" stop-color="#87000c"/>
    </radialGradient>
    <radialGradient id="radial-gradient-2" cx="47.83" fx="47.83" r="14.14" xlink:href="#radial-gradient"/>
  </defs>
  <g class="cls-19">
    <g id="Layer_2" data-name="Layer 2">
      <g id="artwork">
        <g>
          <g>
            <g>
              <path class="cls-15" d="M183.47,296.53h0c-1.43.16-2.72-.88-2.88-2.31l-2.66-24.33c-.16-1.43.88-2.72,2.31-2.88h0c1.43-.16,2.72.88,2.88,2.31l2.66,24.33c.16,1.43-.88,2.72-2.31,2.88ZM173.97,294.95l-2.66-24.33c-.16-1.43-1.44-2.47-2.88-2.31h0c-1.43.16-2.47,1.44-2.31,2.88l2.66,24.33c.16,1.43,1.44,2.47,2.88,2.31h0c1.43-.16,2.47-1.44,2.31-2.88ZM162.16,296.24l-2.66-24.33c-.16-1.43-1.44-2.47-2.88-2.31h0c-1.43.16-2.47,1.44-2.31,2.88l2.66,24.33c.16,1.43,1.44,2.47,2.88,2.31h0c1.43-.16,2.47-1.44,2.31-2.88ZM150.35,297.53l-2.66-24.33c-.16-1.43-1.44-2.47-2.88-2.31h0c-1.43.16-2.47,1.44-2.31,2.88l2.66,24.33c.16,1.43,1.44,2.47,2.88,2.31h0c1.43-.16,2.47-1.44,2.31-2.88ZM138.54,298.82l-2.66-24.33c-.16-1.43-1.44-2.47-2.88-2.31h0c-1.43.16-2.47,1.44-2.31,2.88l2.66,24.33c.16,1.43,1.44,2.47,2.88,2.31h0c1.43-.16,2.47-1.44,2.31-2.88ZM126.74,300.11l-2.66-24.33c-.16-1.43-1.44-2.47-2.88-2.31h0c-1.43.16-2.47,1.44-2.31,2.88l2.66,24.33c.16,1.43,1.44,2.47,2.88,2.31h0c1.43-.16,2.47-1.44,2.31-2.88ZM114.93,301.41l-2.66-24.33c-.16-1.43-1.44-2.47-2.88-2.31h0c-1.43.16-2.47,1.44-2.31,2.88l2.66,24.33c.16,1.43,1.44,2.47,2.88,2.31h0c1.43-.16,2.47-1.44,2.31-2.88ZM103.12,302.7l-2.66-24.33c-.16-1.43-1.44-2.47-2.88-2.31h0c-1.43.16-2.47,1.44-2.31,2.88l2.66,24.33c.16,1.43,1.44,2.47,2.88,2.31h0c1.43-.16,2.47-1.44,2.31-2.88ZM91.31,303.99l-2.66-24.33c-.16-1.43-1.44-2.47-2.88-2.31h0c-1.43.16-2.47,1.44-2.31,2.88l2.66,24.33c.16,1.43,1.44,2.47,2.88,2.31h0c1.43-.16,2.47-1.44,2.31-2.88ZM79.51,305.28l-2.66-24.33c-.16-1.43-1.44-2.47-2.88-2.31h0c-1.43.16-2.47,1.44-2.31,2.88l2.66,24.33c.16,1.43,1.44,2.47,2.88,2.31h0c1.43-.16,2.47-1.44,2.31-2.88ZM67.7,306.57l-2.66-24.33c-.16-1.43-1.44-2.47-2.88-2.31h0c-1.43.16-2.47,1.44-2.31,2.88l2.66,24.33c.16,1.43,1.44,2.47,2.88,2.31h0c1.43-.16,2.47-1.44,2.31-2.88ZM55.89,307.86l-2.66-24.33c-.16-1.43-1.44-2.47-2.88-2.31h0c-1.43.16-2.47,1.44-2.31,2.88l2.66,24.33c.16,1.43,1.44,2.47,2.88,2.31h0c1.43-.16,2.47-1.44,2.31-2.88ZM44.08,309.16l-2.66-24.33c-.16-1.43-1.44-2.47-2.88-2.31h0c-1.43.16-2.47,1.44-2.31,2.88l2.66,24.33c.16,1.43,1.44,2.47,2.88,2.31h0c1.43-.16,2.47-1.44,2.31-2.88ZM32.27,310.45l-2.66-24.33c-.16-1.43-1.44-2.47-2.88-2.31h0c-1.43.16-2.47,1.44-2.31,2.88l2.66,24.33c.16,1.43,1.44,2.47,2.88,2.31h0c1.43-.16,2.47-1.44,2.31-2.88ZM20.47,311.74l-2.66-24.33c-.16-1.43-1.44-2.47-2.88-2.31h0c-1.43.16-2.47,1.44-2.31,2.88l2.66,24.33c.16,1.43,1.44,2.47,2.88,2.31h0c1.43-.16,2.47-1.44,2.31-2.88Z"/>
              <path class="cls-24" d="M183.47,296.53h0c-1.43.16-2.72-.88-2.88-2.31l-2.66-24.33c-.16-1.43.88-2.72,2.31-2.88h0c1.43-.16,2.72.88,2.88,2.31l2.66,24.33c.16,1.43-.88,2.72-2.31,2.88ZM173.97,294.95l-2.66-24.33c-.16-1.43-1.44-2.47-2.88-2.31h0c-1.43.16-2.47,1.44-2.31,2.88l2.66,24.33c.16,1.43,1.44,2.47,2.88,2.31h0c1.43-.16,2.47-1.44,2.31-2.88ZM162.16,296.24l-2.66-24.33c-.16-1.43-1.44-2.47-2.88-2.31h0c-1.43.16-2.47,1.44-2.31,2.88l2.66,24.33c.16,1.43,1.44,2.47,2.88,2.31h0c1.43-.16,2.47-1.44,2.31-2.88ZM150.35,297.53l-2.66-24.33c-.16-1.43-1.44-2.47-2.88-2.31h0c-1.43.16-2.47,1.44-2.31,2.88l2.66,24.33c.16,1.43,1.44,2.47,2.88,2.31h0c1.43-.16,2.47-1.44,2.31-2.88ZM138.54,298.82l-2.66-24.33c-.16-1.43-1.44-2.47-2.88-2.31h0c-1.43.16-2.47,1.44-2.31,2.88l2.66,24.33c.16,1.43,1.44,2.47,2.88,2.31h0c1.43-.16,2.47-1.44,2.31-2.88ZM126.74,300.11l-2.66-24.33c-.16-1.43-1.44-2.47-2.88-2.31h0c-1.43.16-2.47,1.44-2.31,2.88l2.66,24.33c.16,1.43,1.44,2.47,2.88,2.31h0c1.43-.16,2.47-1.44,2.31-2.88ZM114.93,301.41l-2.66-24.33c-.16-1.43-1.44-2.47-2.88-2.31h0c-1.43.16-2.47,1.44-2.31,2.88l2.66,24.33c.16,1.43,1.44,2.47,2.88,2.31h0c1.43-.16,2.47-1.44,2.31-2.88ZM103.12,302.7l-2.66-24.33c-.16-1.43-1.44-2.47-2.88-2.31h0c-1.43.16-2.47,1.44-2.31,2.88l2.66,24.33c.16,1.43,1.44,2.47,2.88,2.31h0c1.43-.16,2.47-1.44,2.31-2.88ZM91.31,303.99l-2.66-24.33c-.16-1.43-1.44-2.47-2.88-2.31h0c-1.43.16-2.47,1.44-2.31,2.88l2.66,24.33c.16,1.43,1.44,2.47,2.88,2.31h0c1.43-.16,2.47-1.44,2.31-2.88ZM79.51,305.28l-2.66-24.33c-.16-1.43-1.44-2.47-2.88-2.31h0c-1.43.16-2.47,1.44-2.31,2.88l2.66,24.33c.16,1.43,1.44,2.47,2.88,2.31h0c1.43-.16,2.47-1.44,2.31-2.88ZM67.7,306.57l-2.66-24.33c-.16-1.43-1.44-2.47-2.88-2.31h0c-1.43.16-2.47,1.44-2.31,2.88l2.66,24.33c.16,1.43,1.44,2.47,2.88,2.31h0c1.43-.16,2.47-1.44,2.31-2.88ZM55.89,307.86l-2.66-24.33c-.16-1.43-1.44-2.47-2.88-2.31h0c-1.43.16-2.47,1.44-2.31,2.88l2.66,24.33c.16,1.43,1.44,2.47,2.88,2.31h0c1.43-.16,2.47-1.44,2.31-2.88ZM44.08,309.16l-2.66-24.33c-.16-1.43-1.44-2.47-2.88-2.31h0c-1.43.16-2.47,1.44-2.31,2.88l2.66,24.33c.16,1.43,1.44,2.47,2.88,2.31h0c1.43-.16,2.47-1.44,2.31-2.88ZM32.27,310.45l-2.66-24.33c-.16-1.43-1.44-2.47-2.88-2.31h0c-1.43.16-2.47,1.44-2.31,2.88l2.66,24.33c.16,1.43,1.44,2.47,2.88,2.31h0c1.43-.16,2.47-1.44,2.31-2.88ZM20.47,311.74l-2.66-24.33c-.16-1.43-1.44-2.47-2.88-2.31h0c-1.43.16-2.47,1.44-2.31,2.88l2.66,24.33c.16,1.43,1.44,2.47,2.88,2.31h0c1.43-.16,2.47-1.44,2.31-2.88Z"/>
            </g>
            <g>
              <rect class="cls-17" x="93.96" y="250.19" width="7.64" height="41.47"/>
              <rect class="cls-1" x="93.96" y="250.19" width="7.64" height="41.47"/>
            </g>
            <path class="cls-15" d="M176.92,384.11h0c-1.42-.24-2.38-1.58-2.14-3.01l4.06-24.14c.24-1.42,1.58-2.38,3.01-2.14h0c1.42.24,2.38,1.58,2.14,3.01l-4.06,24.14c-.24,1.42-1.58,2.38-3.01,2.14ZM168.21,380l4.06-24.14c.24-1.42-.72-2.77-2.14-3.01h0c-1.42-.24-2.77.72-3.01,2.14l-4.06,24.14c-.24,1.42.72,2.77,2.14,3.01h0c1.42.24,2.77-.72,3.01-2.14ZM156.49,378.03l4.06-24.14c.24-1.42-.72-2.77-2.14-3.01h0c-1.42-.24-2.77.72-3.01,2.14l-4.06,24.14c-.24,1.42.72,2.77,2.14,3.01h0c1.42.24,2.77-.72,3.01-2.14ZM144.78,376.06l4.06-24.14c.24-1.42-.72-2.77-2.14-3.01h0c-1.42-.24-2.77.72-3.01,2.14l-4.06,24.14c-.24,1.42.72,2.77,2.14,3.01h0c1.42.24,2.77-.72,3.01-2.14ZM133.07,374.08l4.06-24.14c.24-1.42-.72-2.77-2.14-3.01h0c-1.42-.24-2.77.72-3.01,2.14l-4.06,24.14c-.24,1.42.72,2.77,2.14,3.01h0c1.42.24,2.77-.72,3.01-2.14ZM121.35,372.11l4.06-24.14c.24-1.42-.72-2.77-2.14-3.01h0c-1.42-.24-2.77.72-3.01,2.14l-4.06,24.14c-.24,1.42.72,2.77,2.14,3.01h0c1.42.24,2.77-.72,3.01-2.14ZM109.64,370.14l4.06-24.14c.24-1.42-.72-2.77-2.14-3.01h0c-1.42-.24-2.77.72-3.01,2.14l-4.06,24.14c-.24,1.42.72,2.77,2.14,3.01h0c1.42.24,2.77-.72,3.01-2.14ZM97.93,368.17l4.06-24.14c.24-1.42-.72-2.77-2.14-3.01h0c-1.42-.24-2.77.72-3.01,2.14l-4.06,24.14c-.24,1.42.72,2.77,2.14,3.01h0c1.42.24,2.77-.72,3.01-2.14ZM86.21,366.2l4.06-24.14c.24-1.42-.72-2.77-2.14-3.01h0c-1.42-.24-2.77.72-3.01,2.14l-4.06,24.14c-.24,1.42.72,2.77,2.14,3.01h0c1.42.24,2.77-.72,3.01-2.14ZM74.5,364.23l4.06-24.14c.24-1.42-.72-2.77-2.14-3.01h0c-1.42-.24-2.77.72-3.01,2.14l-4.06,24.14c-.24,1.42.72,2.77,2.14,3.01h0c1.42.24,2.77-.72,3.01-2.14ZM62.78,362.26l4.06-24.14c.24-1.42-.72-2.77-2.14-3.01h0c-1.42-.24-2.77.72-3.01,2.14l-4.06,24.14c-.24,1.42.72,2.77,2.14,3.01h0c1.42.24,2.77-.72,3.01-2.14ZM51.07,360.29l4.06-24.14c.24-1.42-.72-2.77-2.14-3.01h0c-1.42-.24-2.77.72-3.01,2.14l-4.06,24.14c-.24,1.42.72,2.77,2.14,3.01h0c1.42.24,2.77-.72,3.01-2.14ZM39.36,358.32l4.06-24.14c.24-1.42-.72-2.77-2.14-3.01h0c-1.42-.24-2.77.72-3.01,2.14l-4.06,24.14c-.24,1.42.72,2.77,2.14,3.01h0c1.42.24,2.77-.72,3.01-2.14ZM27.64,356.35l4.06-24.14c.24-1.42-.72-2.77-2.14-3.01h0c-1.42-.24-2.77.72-3.01,2.14l-4.06,24.14c-.24,1.42.72,2.77,2.14,3.01h0c1.42.24,2.77-.72,3.01-2.14ZM15.93,354.38l4.06-24.14c.24-1.42-.72-2.77-2.14-3.01h0c-1.42-.24-2.77.72-3.01,2.14l-4.06,24.14c-.24,1.42.72,2.77,2.14,3.01h0c1.42.24,2.77-.72,3.01-2.14Z"/>
            <path class="cls-16" d="M176.92,384.11h0c-1.42-.24-2.38-1.58-2.14-3.01l4.06-24.14c.24-1.42,1.58-2.38,3.01-2.14h0c1.42.24,2.38,1.58,2.14,3.01l-4.06,24.14c-.24,1.42-1.58,2.38-3.01,2.14ZM168.21,380l4.06-24.14c.24-1.42-.72-2.77-2.14-3.01h0c-1.42-.24-2.77.72-3.01,2.14l-4.06,24.14c-.24,1.42.72,2.77,2.14,3.01h0c1.42.24,2.77-.72,3.01-2.14ZM156.49,378.03l4.06-24.14c.24-1.42-.72-2.77-2.14-3.01h0c-1.42-.24-2.77.72-3.01,2.14l-4.06,24.14c-.24,1.42.72,2.77,2.14,3.01h0c1.42.24,2.77-.72,3.01-2.14ZM144.78,376.06l4.06-24.14c.24-1.42-.72-2.77-2.14-3.01h0c-1.42-.24-2.77.72-3.01,2.14l-4.06,24.14c-.24,1.42.72,2.77,2.14,3.01h0c1.42.24,2.77-.72,3.01-2.14ZM133.07,374.08l4.06-24.14c.24-1.42-.72-2.77-2.14-3.01h0c-1.42-.24-2.77.72-3.01,2.14l-4.06,24.14c-.24,1.42.72,2.77,2.14,3.01h0c1.42.24,2.77-.72,3.01-2.14ZM121.35,372.11l4.06-24.14c.24-1.42-.72-2.77-2.14-3.01h0c-1.42-.24-2.77.72-3.01,2.14l-4.06,24.14c-.24,1.42.72,2.77,2.14,3.01h0c1.42.24,2.77-.72,3.01-2.14ZM109.64,370.14l4.06-24.14c.24-1.42-.72-2.77-2.14-3.01h0c-1.42-.24-2.77.72-3.01,2.14l-4.06,24.14c-.24,1.42.72,2.77,2.14,3.01h0c1.42.24,2.77-.72,3.01-2.14ZM97.93,368.17l4.06-24.14c.24-1.42-.72-2.77-2.14-3.01h0c-1.42-.24-2.77.72-3.01,2.14l-4.06,24.14c-.24,1.42.72,2.77,2.14,3.01h0c1.42.24,2.77-.72,3.01-2.14ZM86.21,366.2l4.06-24.14c.24-1.42-.72-2.77-2.14-3.01h0c-1.42-.24-2.77.72-3.01,2.14l-4.06,24.14c-.24,1.42.72,2.77,2.14,3.01h0c1.42.24,2.77-.72,3.01-2.14ZM74.5,364.23l4.06-24.14c.24-1.42-.72-2.77-2.14-3.01h0c-1.42-.24-2.77.72-3.01,2.14l-4.06,24.14c-.24,1.42.72,2.77,2.14,3.01h0c1.42.24,2.77-.72,3.01-2.14ZM62.78,362.26l4.06-24.14c.24-1.42-.72-2.77-2.14-3.01h0c-1.42-.24-2.77.72-3.01,2.14l-4.06,24.14c-.24,1.42.72,2.77,2.14,3.01h0c1.42.24,2.77-.72,3.01-2.14ZM51.07,360.29l4.06-24.14c.24-1.42-.72-2.77-2.14-3.01h0c-1.42-.24-2.77.72-3.01,2.14l-4.06,24.14c-.24,1.42.72,2.77,2.14,3.01h0c1.42.24,2.77-.72,3.01-2.14ZM39.36,358.32l4.06-24.14c.24-1.42-.72-2.77-2.14-3.01h0c-1.42-.24-2.77.72-3.01,2.14l-4.06,24.14c-.24,1.42.72,2.77,2.14,3.01h0c1.42.24,2.77-.72,3.01-2.14ZM27.64,356.35l4.06-24.14c.24-1.42-.72-2.77-2.14-3.01h0c-1.42-.24-2.77.72-3.01,2.14l-4.06,24.14c-.24,1.42.72,2.77,2.14,3.01h0c1.42.24,2.77-.72,3.01-2.14ZM15.93,354.38l4.06-24.14c.24-1.42-.72-2.77-2.14-3.01h0c-1.42-.24-2.77.72-3.01,2.14l-4.06,24.14c-.24,1.42.72,2.77,2.14,3.01h0c1.42.24,2.77-.72,3.01-2.14Z"/>
            <line class="cls-9" x1="17.25" y1="298.15" x2="182.6" y2="280.06"/>
            <rect class="cls-17" x="2.77" y="285.06" width="192.98" height="10.81" rx="2" ry="2" transform="translate(-31 12.52) rotate(-6.24)"/>
            <polygon class="cls-17" points="52.78 321.14 47.48 321.72 31.33 302.77 64.45 299.15 52.78 321.14"/>
            <rect class="cls-17" x="-.77" y="349.36" width="196.05" height="10.81" rx="2" ry="2" transform="translate(60.32 -11.23) rotate(9.57)"/>
            <polygon class="cls-17" points="52.63 321.45 47.38 320.56 30.16 338.54 63.01 344.08 52.63 321.45"/>
            <circle cx="49.72" cy="320.56" r="4.92"/>
            <circle class="cls-11" cx="49.72" cy="320.56" r="1.9"/>
            <rect class="cls-17" x="152.96" y="283.13" width="8.67" height="101.84" rx="2" ry="2" transform="translate(14.27 -6.35) rotate(2.42)"/>
          </g>
          <rect x="93.96" y="203.43" width="7.64" height="46.12"/>
          <rect x="89.66" y="247.42" width="16.23" height="6.59" rx="3.29" ry="3.29"/>
          <g>
            <g>
              <line class="cls-10" x1="118.43" y1="80.56" x2="154.16" y2="80.56"/>
              <path d="M164.71,88.04l-9.14-3.44c-1.45-.55-2.37-1.98-2.26-3.53h0c.15-2.14,2.16-3.64,4.25-3.18l9.24,2.05c1.7.38,2.86,1.94,2.74,3.67l-.1,1.39c-.16,2.34-2.54,3.86-4.73,3.04Z"/>
            </g>
            <g>
              <line class="cls-10" x1="77.12" y1="80.56" x2="41.4" y2="80.56"/>
              <path d="M30.85,88.04l9.14-3.44c1.45-.55,2.37-1.98,2.26-3.53h0c-.15-2.14-2.16-3.64-4.25-3.18l-9.24,2.05c-1.7.38-2.86,1.94-2.74,3.67l.1,1.39c.16,2.34,2.54,3.86,4.73,3.04Z"/>
            </g>
          </g>
          <g>
            <rect x="127.19" y="0" width="22.51" height="62.62" rx="10" ry="10"/>
            <rect class="cls-13" x="127.19" y="0" width="22.51" height="62.62" rx="10" ry="10"/>
          </g>
          <g>
            <rect x="45.85" y="0" width="22.51" height="62.62" rx="10" ry="10"/>
            <rect class="cls-18" x="45.85" y="0" width="22.51" height="62.62" rx="10" ry="10"/>
          </g>
          <g>
            <rect class="cls-15" x="118.12" y="17.13" width="19.92" height="48.89" rx="6" ry="6"/>
            <rect class="cls-6" x="118.12" y="17.13" width="19.92" height="48.89" rx="6" ry="6"/>
          </g>
          <g>
            <rect class="cls-15" x="57.51" y="17.13" width="19.92" height="48.89" rx="6" ry="6"/>
            <rect class="cls-7" x="57.51" y="17.13" width="19.92" height="48.89" rx="6" ry="6"/>
          </g>
          <g>
            <path class="cls-17" d="M124.49,77.27V17.68c0-1.01-.76-2.3-1.71-2.84-15.53-8.71-34.49-8.71-50.01,0-.95.53-1.7,1.83-1.71,2.84v59.59c0,3.88-2.5,7.17-5.98,8.34h65.39c-3.48-1.18-5.98-4.47-5.98-8.34Z"/>
            <path class="cls-4" d="M124.49,77.27V17.68c0-1.01-.76-2.3-1.71-2.84-15.53-8.71-34.49-8.71-50.01,0-.95.53-1.7,1.83-1.71,2.84v59.59c0,3.88-2.5,7.17-5.98,8.34h65.39c-3.48-1.18-5.98-4.47-5.98-8.34Z"/>
          </g>
          <path d="M69.33,186.61h56.89v11.31c0,6-4.87,10.87-10.87,10.87h-35.15c-6,0-10.87-4.87-10.87-10.87v-11.31h0Z"/>
          <path class="cls-21" d="M126.22,186.61v11.31c0,6-4.87,10.87-10.87,10.87h-13.76v38.64h1.01c1.81,0,3.29,1.47,3.29,3.29,0,.91-.37,1.73-.97,2.33-.59.59-1.42.96-2.32.96h-9.65c-1.82,0-3.29-1.47-3.29-3.29,0-.91.37-1.73.96-2.33.6-.59,1.42-.96,2.33-.96h1v-38.64h-13.75c-6,0-10.87-4.87-10.87-10.87v-11.31h56.89Z"/>
          <g>
            <rect x="139.65" y="122.95" width="35.19" height="107.28" rx="9.72" ry="9.72"/>
            <path class="cls-8" d="M174.11,138.01l-25.43-9.25c-.98-.36-1.63-1.29-1.63-2.33h0c0-1.72,1.71-2.91,3.32-2.33l25.43,9.25c.98.36,1.63,1.29,1.63,2.33h0c0,1.72-1.71,2.91-3.32,2.33ZM177.44,150.28h0c0-1.04-.65-1.97-1.63-2.33l-25.43-9.25c-1.61-.59-3.32.61-3.32,2.33h0c0,1.04.65,1.97,1.63,2.33l25.43,9.25c1.61.59,3.32-.61,3.32-2.33ZM177.44,164.88h0c0-1.04-.65-1.97-1.63-2.33l-25.43-9.25c-1.61-.59-3.32.61-3.32,2.33h0c0,1.04.65,1.97,1.63,2.33l25.43,9.25c1.61.59,3.32-.61,3.32-2.33ZM177.44,179.48h0c0-1.04-.65-1.97-1.63-2.33l-25.43-9.25c-1.61-.59-3.32.61-3.32,2.33h0c0,1.04.65,1.97,1.63,2.33l25.43,9.25c1.61.59,3.32-.61,3.32-2.33ZM177.44,194.07h0c0-1.04-.65-1.97-1.63-2.33l-25.43-9.25c-1.61-.59-3.32.61-3.32,2.33h0c0,1.04.65,1.97,1.63,2.33l25.43,9.25c1.61.59,3.32-.61,3.32-2.33ZM177.44,208.67h0c0-1.04-.65-1.97-1.63-2.33l-25.43-9.25c-1.61-.59-3.32.61-3.32,2.33h0c0,1.04.65,1.97,1.63,2.33l25.43,9.25c1.61.59,3.32-.61,3.32-2.33ZM177.44,223.27h0c0-1.04-.65-1.97-1.63-2.33l-25.43-9.25c-1.61-.59-3.32.61-3.32,2.33h0c0,1.04.65,1.97,1.63,2.33l25.43,9.25c1.61.59,3.32-.61,3.32-2.33Z"/>
          </g>
          <g>
            <rect x="20.71" y="122.95" width="35.19" height="107.28" rx="9.72" ry="9.72"/>
            <path class="cls-22" d="M18.12,135.68h0c0-1.04.65-1.97,1.63-2.33l25.43-9.25c1.61-.59,3.32.61,3.32,2.33h0c0,1.04-.65,1.97-1.63,2.33l-25.43,9.25c-1.61.59-3.32-.61-3.32-2.33ZM21.44,152.61l25.43-9.25c.98-.36,1.63-1.29,1.63-2.33h0c0-1.72-1.71-2.91-3.32-2.33l-25.43,9.25c-.98.36-1.63,1.29-1.63,2.33h0c0,1.72,1.71,2.91,3.32,2.33ZM21.44,167.21l25.43-9.25c.98-.36,1.63-1.29,1.63-2.33h0c0-1.72-1.71-2.91-3.32-2.33l-25.43,9.25c-.98.36-1.63,1.29-1.63,2.33h0c0,1.72,1.71,2.91,3.32,2.33ZM21.44,181.8l25.43-9.25c.98-.36,1.63-1.29,1.63-2.33h0c0-1.72-1.71-2.91-3.32-2.33l-25.43,9.25c-.98.36-1.63,1.29-1.63,2.33h0c0,1.72,1.71,2.91,3.32,2.33ZM21.44,196.4l25.43-9.25c.98-.36,1.63-1.29,1.63-2.33h0c0-1.72-1.71-2.91-3.32-2.33l-25.43,9.25c-.98.36-1.63,1.29-1.63,2.33h0c0,1.72,1.71,2.91,3.32,2.33ZM21.44,211l25.43-9.25c.98-.36,1.63-1.29,1.63-2.33h0c0-1.72-1.71-2.91-3.32-2.33l-25.43,9.25c-.98.36-1.63,1.29-1.63,2.33h0c0,1.72,1.71,2.91,3.32,2.33ZM21.44,225.6l25.43-9.25c.98-.36,1.63-1.29,1.63-2.33h0c0-1.72-1.71-2.91-3.32-2.33l-25.43,9.25c-.98.36-1.63,1.29-1.63,2.33h0c0,1.72,1.71,2.91,3.32,2.33Z"/>
          </g>
          <g>
            <path class="cls-17" d="M148.63,222.04h-3.3c-6.63,0-12-5.37-12-12v-92.6c0-4.42,3.58-8,8-8h7.05c9.12,0,16.39,7.6,15.98,16.71l-3.75,84.42c-.28,6.41-5.57,11.47-11.99,11.47Z"/>
            <path class="cls-3" d="M148.63,222.04h-3.3c-6.63,0-12-5.37-12-12v-92.6c0-4.42,3.58-8,8-8h7.05c9.12,0,16.39,7.6,15.98,16.71l-3.75,84.42c-.28,6.41-5.57,11.47-11.99,11.47Z"/>
          </g>
          <g>
            <path class="cls-17" d="M46.92,222.04h3.3c6.63,0,12-5.37,12-12v-92.6c0-4.42-3.58-8-8-8h-7.05c-9.12,0-16.39,7.6-15.98,16.71l3.75,84.42c.28,6.41,5.57,11.47,11.99,11.47Z"/>
            <path class="cls-2" d="M46.92,222.04h3.3c6.63,0,12-5.37,12-12v-92.6c0-4.42-3.58-8-8-8h-7.05c-9.12,0-16.39,7.6-15.98,16.71l3.75,84.42c.28,6.41,5.57,11.47,11.99,11.47Z"/>
          </g>
          <rect class="cls-17" x="53.55" y="85" width="88.46" height="112.55" rx="16" ry="16"/>
          <g class="cls-5">
            <g>
              <line class="cls-12" x1="65.86" y1="185.78" x2="65.86" y2="161.59"/>
              <line class="cls-12" x1="70.77" y1="185.78" x2="70.77" y2="161.59"/>
              <line class="cls-12" x1="75.68" y1="185.78" x2="75.68" y2="161.59"/>
              <line class="cls-12" x1="80.59" y1="185.78" x2="80.59" y2="161.59"/>
              <line class="cls-12" x1="85.5" y1="185.78" x2="85.5" y2="161.59"/>
              <line class="cls-12" x1="90.41" y1="185.78" x2="90.41" y2="161.59"/>
              <line class="cls-12" x1="95.32" y1="185.78" x2="95.32" y2="161.59"/>
              <line class="cls-12" x1="100.23" y1="185.78" x2="100.23" y2="161.59"/>
              <line class="cls-12" x1="105.14" y1="185.78" x2="105.14" y2="161.59"/>
              <line class="cls-12" x1="110.05" y1="185.78" x2="110.05" y2="161.59"/>
              <line class="cls-12" x1="114.97" y1="185.78" x2="114.97" y2="161.59"/>
              <line class="cls-12" x1="119.88" y1="185.78" x2="119.88" y2="161.59"/>
              <line class="cls-12" x1="124.79" y1="185.78" x2="124.79" y2="161.59"/>
              <line class="cls-12" x1="129.7" y1="185.78" x2="129.7" y2="161.59"/>
            </g>
            <polyline class="cls-12" points="65.86 152.59 65.86 101.12 129.7 101.12 129.7 152.59"/>
          </g>
          <g class="cls-5">
            <path class="cls-17" d="M149.18,201.04c1.1,0,2,.9,2,2v11.28c0,1.1-.9,2-2,2h-2.92c-1.1,0-2-.9-2-2v-11.28c0-1.1.9-2,2-2h2.92M149.18,200.04h-2.92c-1.65,0-3,1.35-3,3v11.28c0,1.65,1.35,3,3,3h2.92c1.65,0,3-1.35,3-3v-11.28c0-1.65-1.35-3-3-3h0Z"/>
          </g>
          <circle class="cls-23" cx="97.78" cy="101.12" r="7.61"/>
          <g class="cls-5">
            <path class="cls-17" d="M49.29,201.04c1.1,0,2,.9,2,2v11.28c0,1.1-.9,2-2,2h-2.92c-1.1,0-2-.9-2-2v-11.28c0-1.1.9-2,2-2h2.92M49.29,200.04h-2.92c-1.65,0-3,1.35-3,3v11.28c0,1.65,1.35,3,3,3h2.92c1.65,0,3-1.35,3-3v-11.28c0-1.65-1.35-3-3-3h0Z"/>
          </g>
          <rect class="cls-14" x="144.27" y="201.04" width="6.92" height="15.28" rx="2" ry="2"/>
          <rect class="cls-20" x="44.37" y="201.04" width="6.92" height="15.28" rx="2" ry="2"/>
          <g class="cls-5">
            <path class="cls-17" d="M97.78,93.51c4.21,0,7.61,3.41,7.61,7.61s-3.41,7.61-7.61,7.61-7.62-3.41-7.62-7.61,3.41-7.61,7.62-7.61M97.78,92.76c-4.61,0-8.37,3.75-8.37,8.36s3.75,8.36,8.37,8.36,8.36-3.75,8.36-8.36-3.75-8.36-8.36-8.36h0Z"/>
          </g>
        </g>
      </g>
    </g>
  </g>
</svg>