<?xml version="1.0" encoding="UTF-8"?>
<svg xmlns="http://www.w3.org/2000/svg" xmlns:xlink="http://www.w3.org/1999/xlink" viewBox="0 0 188.61 517.52">
  <defs>
    <style>
      .cls-1, .cls-2 {
        fill: #e64545;
      }

      .cls-3 {
        fill: url(#linear-gradient-2);
      }

      .cls-4 {
        fill: url(#linear-gradient-9);
      }

      .cls-4, .cls-5, .cls-6, .cls-7, .cls-8, .cls-9, .cls-2, .cls-10, .cls-11, .cls-12, .cls-13, .cls-14, .cls-15, .cls-16 {
        mix-blend-mode: multiply;
      }

      .cls-5 {
        fill: url(#linear-gradient-13);
      }

      .cls-17 {
        fill: url(#linear-gradient-10);
      }

      .cls-18 {
        fill: url(#linear-gradient-12);
      }

      .cls-6 {
        fill: url(#linear-gradient-20);
      }

      .cls-19 {
        fill: url(#linear-gradient-4);
      }

      .cls-7, .cls-20, .cls-21, .cls-22, .cls-23, .cls-13 {
        fill: none;
      }

      .cls-7, .cls-20, .cls-21, .cls-22, .cls-13 {
        stroke: #e64545;
      }

      .cls-7, .cls-20, .cls-22 {
        stroke-miterlimit: 10;
      }

      .cls-24 {
        fill: #828899;
      }

      .cls-25 {
        fill: url(#linear-gradient-3);
      }

      .cls-26 {
        fill: url(#linear-gradient-5);
      }

      .cls-21, .cls-23, .cls-13 {
        stroke-linecap: round;
        stroke-linejoin: round;
      }

      .cls-27 {
        isolation: isolate;
      }

      .cls-8 {
        fill: url(#linear-gradient-21);
      }

      .cls-9 {
        fill: url(#linear-gradient-8);
      }

      .cls-22 {
        stroke-width: 6px;
      }

      .cls-23 {
        stroke: #000;
        stroke-width: 2.5px;
      }

      .cls-10 {
        fill: url(#linear-gradient-18);
      }

      .cls-28 {
        fill: url(#linear-gradient-17);
      }

      .cls-29 {
        fill: url(#linear-gradient-11);
      }

      .cls-30 {
        fill: url(#Summer_3);
      }

      .cls-31 {
        fill: url(#linear-gradient-6);
      }

      .cls-32 {
        fill: #a3aabf;
      }

      .cls-33 {
        fill: url(#Summer_3-3);
      }

      .cls-12 {
        fill: url(#linear-gradient-15);
      }

      .cls-34 {
        fill: url(#linear-gradient-16);
      }

      .cls-14 {
        fill: url(#linear-gradient-19);
      }

      .cls-35 {
        fill: url(#linear-gradient);
      }

      .cls-15 {
        fill: url(#linear-gradient-14);
      }

      .cls-36 {
        fill: url(#Summer_3-2);
      }

      .cls-16 {
        fill: url(#linear-gradient-7);
      }
    </style>
    <linearGradient id="linear-gradient" x1="157.31" y1="314.78" x2="157.31" y2="327.59" gradientUnits="userSpaceOnUse">
      <stop offset=".18" stop-color="#828899"/>
      <stop offset=".49" stop-color="#828899" stop-opacity=".59"/>
      <stop offset=".84" stop-color="#828899" stop-opacity=".17"/>
      <stop offset="1" stop-color="#828899" stop-opacity="0"/>
    </linearGradient>
    <linearGradient id="linear-gradient-2" x1="31.3" x2="31.3" xlink:href="#linear-gradient"/>
    <linearGradient id="linear-gradient-3" x1="180.9" y1="427.79" x2="180.9" y2="440.6" xlink:href="#linear-gradient"/>
    <linearGradient id="linear-gradient-4" x1="180.9" y1="463.78" x2="180.9" y2="476.6" xlink:href="#linear-gradient"/>
    <linearGradient id="linear-gradient-5" x1="7.72" y1="427.79" x2="7.72" y2="440.6" xlink:href="#linear-gradient"/>
    <linearGradient id="linear-gradient-6" x1="7.72" y1="463.78" x2="7.72" y2="476.6" xlink:href="#linear-gradient"/>
    <linearGradient id="linear-gradient-7" x1="94.31" y1="488.7" x2="94.31" y2="515.68" gradientUnits="userSpaceOnUse">
      <stop offset="0" stop-color="#e64545"/>
      <stop offset=".1" stop-color="#e64545" stop-opacity=".85"/>
      <stop offset=".41" stop-color="#e64545" stop-opacity=".39"/>
      <stop offset=".63" stop-color="#e64545" stop-opacity=".11"/>
      <stop offset=".73" stop-color="#e64545" stop-opacity="0"/>
    </linearGradient>
    <linearGradient id="linear-gradient-8" x1="156.74" y1="434.64" x2="172.4" y2="434.64" gradientUnits="userSpaceOnUse">
      <stop offset=".05" stop-color="#e64545"/>
      <stop offset=".19" stop-color="#e64545" stop-opacity=".85"/>
      <stop offset=".59" stop-color="#e64545" stop-opacity=".39"/>
      <stop offset=".87" stop-color="#e64545" stop-opacity=".11"/>
      <stop offset="1" stop-color="#e64545" stop-opacity="0"/>
    </linearGradient>
    <linearGradient id="linear-gradient-9" x1="305.77" y1="434.64" x2="321.43" y2="434.64" gradientTransform="translate(337.64) rotate(-180) scale(1 -1)" xlink:href="#linear-gradient-8"/>
    <linearGradient id="linear-gradient-10" x1="69.51" y1="207.31" x2="127.98" y2="207.31" gradientUnits="userSpaceOnUse">
      <stop offset="0" stop-color="#828899"/>
      <stop offset=".06" stop-color="#828899" stop-opacity=".95"/>
      <stop offset=".15" stop-color="#828899" stop-opacity=".82"/>
      <stop offset=".26" stop-color="#828899" stop-opacity=".59"/>
      <stop offset=".39" stop-color="#828899" stop-opacity=".29"/>
      <stop offset=".49" stop-color="#828899" stop-opacity="0"/>
    </linearGradient>
    <linearGradient id="linear-gradient-11" x1="135.01" y1="-4.08" x2="135.01" y2="19.91" xlink:href="#linear-gradient"/>
    <linearGradient id="linear-gradient-12" x1="53.67" y1="-4.08" x2="53.67" y2="19.91" xlink:href="#linear-gradient"/>
    <linearGradient id="linear-gradient-13" x1="114.68" y1="41.57" x2="134.61" y2="41.57" gradientUnits="userSpaceOnUse">
      <stop offset=".05" stop-color="#828899"/>
      <stop offset=".37" stop-color="#828899" stop-opacity=".59"/>
      <stop offset=".71" stop-color="#828899" stop-opacity=".17"/>
      <stop offset=".88" stop-color="#828899" stop-opacity="0"/>
    </linearGradient>
    <linearGradient id="linear-gradient-14" x1="4649.66" y1="-817.15" x2="4669.58" y2="-817.15" gradientTransform="translate(4723.65 -775.58) rotate(-180)" xlink:href="#linear-gradient-13"/>
    <linearGradient id="linear-gradient-15" x1="94.34" y1="87.33" x2="94.34" y2="19.01" gradientUnits="userSpaceOnUse">
      <stop offset="0" stop-color="#e64545"/>
      <stop offset=".09" stop-color="#e64545" stop-opacity=".81"/>
      <stop offset=".21" stop-color="#e64545" stop-opacity=".56"/>
      <stop offset=".34" stop-color="#e64545" stop-opacity=".36"/>
      <stop offset=".45" stop-color="#e64545" stop-opacity=".2"/>
      <stop offset=".56" stop-color="#e64545" stop-opacity=".09"/>
      <stop offset=".65" stop-color="#e64545" stop-opacity=".02"/>
      <stop offset=".73" stop-color="#e64545" stop-opacity="0"/>
    </linearGradient>
    <linearGradient id="linear-gradient-16" x1="170.96" y1="174.85" x2="144.13" y2="174.85" gradientUnits="userSpaceOnUse">
      <stop offset="0" stop-color="#828899"/>
      <stop offset=".22" stop-color="#828899" stop-opacity=".59"/>
      <stop offset=".46" stop-color="#828899" stop-opacity=".17"/>
      <stop offset=".58" stop-color="#828899" stop-opacity="0"/>
    </linearGradient>
    <linearGradient id="linear-gradient-17" x1="4706.46" y1="174.85" x2="4679.64" y2="174.85" gradientTransform="translate(4724.18) rotate(-180) scale(1 -1)" xlink:href="#linear-gradient-16"/>
    <linearGradient id="linear-gradient-18" x1="129.9" y1="165.74" x2="160.95" y2="165.74" gradientUnits="userSpaceOnUse">
      <stop offset=".09" stop-color="#e64545"/>
      <stop offset=".23" stop-color="#e64545" stop-opacity=".82"/>
      <stop offset=".56" stop-color="#e64545" stop-opacity=".37"/>
      <stop offset=".81" stop-color="#e64545" stop-opacity="0"/>
    </linearGradient>
    <linearGradient id="linear-gradient-19" x1="3797.31" y1="165.74" x2="3828.36" y2="165.74" gradientTransform="translate(3856.09) rotate(-180) scale(1 -1)" xlink:href="#linear-gradient-18"/>
    <linearGradient id="linear-gradient-20" x1="3797.31" y1="165.74" x2="3828.36" y2="165.74" gradientTransform="translate(3856.09) rotate(-180) scale(1 -1)" xlink:href="#linear-gradient-18"/>
    <linearGradient id="linear-gradient-21" x1="3797.31" y1="165.74" x2="3828.36" y2="165.74" gradientTransform="translate(3856.09) rotate(-180) scale(1 -1)" xlink:href="#linear-gradient-18"/>
    <radialGradient id="Summer_3" data-name="Summer 3" cx="94.34" cy="101.12" fx="94.34" fy="101.12" r="7.61" gradientUnits="userSpaceOnUse">
      <stop offset="0" stop-color="#fff"/>
      <stop offset=".02" stop-color="#fffbf4"/>
      <stop offset=".14" stop-color="#ffebbb"/>
      <stop offset=".25" stop-color="#ffdd89"/>
      <stop offset=".37" stop-color="#ffd15f"/>
      <stop offset=".49" stop-color="#ffc83c"/>
      <stop offset=".61" stop-color="#ffc022"/>
      <stop offset=".74" stop-color="#ffbb0f"/>
      <stop offset=".87" stop-color="#ffb803"/>
      <stop offset="1" stop-color="#ffb700"/>
    </radialGradient>
    <radialGradient id="Summer_3-2" data-name="Summer 3" cx="144.29" cy="208.68" fx="144.29" fy="208.68" r="14.14" xlink:href="#Summer_3"/>
    <radialGradient id="Summer_3-3" data-name="Summer 3" cx="44.39" cy="208.68" fx="44.39" fy="208.68" r="14.14" xlink:href="#Summer_3"/>
  </defs>
  <g class="cls-27">
    <g id="Layer_2" data-name="Layer 2">
      <g id="artwork">
        <g>
          <g>
            <g>
              <rect x="149.6" y="316.95" width="15.43" height="33.47" rx="5.52" ry="5.52"/>
              <rect class="cls-35" x="149.6" y="316.95" width="15.43" height="33.47" rx="5.52" ry="5.52"/>
            </g>
            <g>
              <rect x="23.59" y="316.95" width="15.43" height="33.47" rx="5.52" ry="5.52"/>
              <rect class="cls-3" x="23.59" y="316.95" width="15.43" height="33.47" rx="5.52" ry="5.52"/>
            </g>
            <g>
              <rect x="173.18" y="429.97" width="15.43" height="33.47" rx="5.52" ry="5.52"/>
              <rect class="cls-25" x="173.18" y="429.97" width="15.43" height="33.47" rx="5.52" ry="5.52"/>
            </g>
            <g>
              <rect x="173.18" y="465.96" width="15.43" height="33.47" rx="5.52" ry="5.52"/>
              <rect class="cls-19" x="173.18" y="465.96" width="15.43" height="33.47" rx="5.52" ry="5.52"/>
            </g>
            <g>
              <rect x="0" y="429.97" width="15.43" height="33.47" rx="5.52" ry="5.52"/>
              <rect class="cls-26" x="0" y="429.97" width="15.43" height="33.47" rx="5.52" ry="5.52"/>
            </g>
            <g>
              <rect x="0" y="465.96" width="15.43" height="33.47" rx="5.52" ry="5.52"/>
              <rect class="cls-31" x="0" y="465.96" width="15.43" height="33.47" rx="5.52" ry="5.52"/>
            </g>
          </g>
          <g>
            <polygon class="cls-1" points="152.65 480.53 35.97 480.53 7.71 517.52 180.9 517.52 152.65 480.53"/>
            <polygon class="cls-16" points="152.65 480.53 35.97 480.53 7.71 517.52 180.9 517.52 152.65 480.53"/>
          </g>
          <g>
            <polygon class="cls-1" points="175.13 412.1 175.13 368.23 156.74 351.77 156.74 487.22 180.9 517.52 180.9 421.14 175.13 412.1"/>
            <polygon class="cls-9" points="175.13 412.1 175.13 368.23 156.74 351.77 156.74 487.22 180.9 517.52 180.9 421.14 175.13 412.1"/>
          </g>
          <g>
            <polygon class="cls-1" points="13.48 412.1 13.48 368.23 31.87 351.77 31.87 487.22 7.72 517.52 7.72 421.14 13.48 412.1"/>
            <polygon class="cls-4" points="13.48 412.1 13.48 368.23 31.87 351.77 31.87 487.22 7.72 517.52 7.72 421.14 13.48 412.1"/>
          </g>
          <g>
            <polyline class="cls-22" points="109.83 274.05 95.83 227.38 92.78 227.38 78.78 274.05"/>
            <g>
              <rect x="90.49" y="203.43" width="7.64" height="20.12"/>
              <rect x="86.19" y="221.43" width="16.23" height="6.59" rx="3.29" ry="3.29"/>
              <path d="M65.86,186.61h56.89v11.31c0,6-4.87,10.87-10.87,10.87h-35.15c-6,0-10.87-4.87-10.87-10.87v-11.31h0Z"/>
              <path class="cls-17" d="M122.75,186.61v11.31c0,6-4.87,10.87-10.87,10.87h-13.76v12.64h1.01c1.81,0,3.29,1.47,3.29,3.29,0,.91-.37,1.73-.97,2.33-.59.59-1.42.96-2.32.96h-9.65c-1.82,0-3.29-1.47-3.29-3.29,0-.91.37-1.73.96-2.33.6-.59,1.42-.96,2.33-.96h1v-12.64h-13.75c-6,0-10.87-4.87-10.87-10.87v-11.31h56.89Z"/>
            </g>
          </g>
          <g>
            <rect class="cls-1" x="52.44" y="263.63" width="83.74" height="41.41" rx="4" ry="4"/>
            <rect class="cls-2" x="52.44" y="263.63" width="83.74" height="41.41" rx="4" ry="4"/>
          </g>
          <path class="cls-20" d="M59.42,300.72v-27.23c0-1.66,1.34-3,3-3h63.78c1.66,0,3,1.34,3,3v28.46"/>
          <rect class="cls-1" x="31.3" y="299.96" width="126.01" height="187.99"/>
          <rect class="cls-7" x="8.56" y="339.19" width="171.49" height="109.51" transform="translate(488.25 299.64) rotate(90)"/>
          <line class="cls-7" x1="31.86" y1="350.32" x2="31.86" y2="487.89"/>
          <line class="cls-7" x1="156.82" y1="352.19" x2="156.82" y2="487.94"/>
          <g>
            <g>
              <g>
                <line class="cls-23" x1="115" y1="80.56" x2="150.72" y2="80.56"/>
                <path d="M161.27,88.04l-9.14-3.44c-1.45-.55-2.37-1.98-2.26-3.53h0c.15-2.14,2.16-3.64,4.25-3.18l9.24,2.05c1.7.38,2.86,1.94,2.74,3.67l-.1,1.39c-.16,2.34-2.54,3.86-4.73,3.04Z"/>
              </g>
              <g>
                <line class="cls-23" x1="73.68" y1="80.56" x2="37.96" y2="80.56"/>
                <path d="M27.41,88.04l9.14-3.44c1.45-.55,2.37-1.98,2.26-3.53h0c-.15-2.14-2.16-3.64-4.25-3.18l-9.24,2.05c-1.7.38-2.86,1.94-2.74,3.67l.1,1.39c.16,2.34,2.54,3.86,4.73,3.04Z"/>
              </g>
            </g>
            <g>
              <rect x="123.75" y="0" width="22.51" height="62.62" rx="10" ry="10"/>
              <rect class="cls-29" x="123.75" y="0" width="22.51" height="62.62" rx="10" ry="10"/>
            </g>
            <g>
              <rect x="42.41" y="0" width="22.51" height="62.62" rx="10" ry="10"/>
              <rect class="cls-18" x="42.41" y="0" width="22.51" height="62.62" rx="10" ry="10"/>
            </g>
            <g>
              <rect class="cls-24" x="114.68" y="17.13" width="19.92" height="48.89" rx="6" ry="6"/>
              <rect class="cls-5" x="114.68" y="17.13" width="19.92" height="48.89" rx="6" ry="6"/>
            </g>
            <g>
              <rect class="cls-24" x="54.07" y="17.13" width="19.92" height="48.89" rx="6" ry="6"/>
              <rect class="cls-15" x="54.07" y="17.13" width="19.92" height="48.89" rx="6" ry="6"/>
            </g>
            <g>
              <path class="cls-1" d="M121.05,77.27V17.68c0-1.01-.76-2.3-1.71-2.84-15.53-8.71-34.49-8.71-50.01,0-.95.53-1.7,1.83-1.71,2.84v59.59c0,3.88-2.5,7.17-5.98,8.34h65.39c-3.48-1.18-5.98-4.47-5.98-8.34Z"/>
              <path class="cls-12" d="M121.05,77.27V17.68c0-1.01-.76-2.3-1.71-2.84-15.53-8.71-34.49-8.71-50.01,0-.95.53-1.7,1.83-1.71,2.84v59.59c0,3.88-2.5,7.17-5.98,8.34h65.39c-3.48-1.18-5.98-4.47-5.98-8.34Z"/>
              <path class="cls-12" d="M121.05,77.27V17.68c0-1.01-.76-2.3-1.71-2.84-15.53-8.71-34.49-8.71-50.01,0-.95.53-1.7,1.83-1.71,2.84v59.59c0,3.88-2.5,7.17-5.98,8.34h65.39c-3.48-1.18-5.98-4.47-5.98-8.34Z"/>
            </g>
            <g>
              <rect x="136.21" y="122.95" width="35.19" height="107.28" rx="9.72" ry="9.72"/>
              <path class="cls-34" d="M170.67,138.01l-25.43-9.25c-.98-.36-1.63-1.29-1.63-2.33h0c0-1.72,1.71-2.91,3.32-2.33l25.43,9.25c.98.36,1.63,1.29,1.63,2.33h0c0,1.72-1.71,2.91-3.32,2.33ZM174,150.28h0c0-1.04-.65-1.97-1.63-2.33l-25.43-9.25c-1.61-.59-3.32.61-3.32,2.33h0c0,1.04.65,1.97,1.63,2.33l25.43,9.25c1.61.59,3.32-.61,3.32-2.33ZM174,164.88h0c0-1.04-.65-1.97-1.63-2.33l-25.43-9.25c-1.61-.59-3.32.61-3.32,2.33h0c0,1.04.65,1.97,1.63,2.33l25.43,9.25c1.61.59,3.32-.61,3.32-2.33ZM174,179.48h0c0-1.04-.65-1.97-1.63-2.33l-25.43-9.25c-1.61-.59-3.32.61-3.32,2.33h0c0,1.04.65,1.97,1.63,2.33l25.43,9.25c1.61.59,3.32-.61,3.32-2.33ZM174,194.07h0c0-1.04-.65-1.97-1.63-2.33l-25.43-9.25c-1.61-.59-3.32.61-3.32,2.33h0c0,1.04.65,1.97,1.63,2.33l25.43,9.25c1.61.59,3.32-.61,3.32-2.33ZM174,208.67h0c0-1.04-.65-1.97-1.63-2.33l-25.43-9.25c-1.61-.59-3.32.61-3.32,2.33h0c0,1.04.65,1.97,1.63,2.33l25.43,9.25c1.61.59,3.32-.61,3.32-2.33ZM174,223.27h0c0-1.04-.65-1.97-1.63-2.33l-25.43-9.25c-1.61-.59-3.32.61-3.32,2.33h0c0,1.04.65,1.97,1.63,2.33l25.43,9.25c1.61.59,3.32-.61,3.32-2.33Z"/>
            </g>
            <g>
              <rect x="17.27" y="122.95" width="35.19" height="107.28" rx="9.72" ry="9.72"/>
              <path class="cls-28" d="M14.68,135.68h0c0-1.04.65-1.97,1.63-2.33l25.43-9.25c1.61-.59,3.32.61,3.32,2.33h0c0,1.04-.65,1.97-1.63,2.33l-25.43,9.25c-1.61.59-3.32-.61-3.32-2.33ZM18,152.61l25.43-9.25c.98-.36,1.63-1.29,1.63-2.33h0c0-1.72-1.71-2.91-3.32-2.33l-25.43,9.25c-.98.36-1.63,1.29-1.63,2.33h0c0,1.72,1.71,2.91,3.32,2.33ZM18,167.21l25.43-9.25c.98-.36,1.63-1.29,1.63-2.33h0c0-1.72-1.71-2.91-3.32-2.33l-25.43,9.25c-.98.36-1.63,1.29-1.63,2.33h0c0,1.72,1.71,2.91,3.32,2.33ZM18,181.8l25.43-9.25c.98-.36,1.63-1.29,1.63-2.33h0c0-1.72-1.71-2.91-3.32-2.33l-25.43,9.25c-.98.36-1.63,1.29-1.63,2.33h0c0,1.72,1.71,2.91,3.32,2.33ZM18,196.4l25.43-9.25c.98-.36,1.63-1.29,1.63-2.33h0c0-1.72-1.71-2.91-3.32-2.33l-25.43,9.25c-.98.36-1.63,1.29-1.63,2.33h0c0,1.72,1.71,2.91,3.32,2.33ZM18,211l25.43-9.25c.98-.36,1.63-1.29,1.63-2.33h0c0-1.72-1.71-2.91-3.32-2.33l-25.43,9.25c-.98.36-1.63,1.29-1.63,2.33h0c0,1.72,1.71,2.91,3.32,2.33ZM18,225.6l25.43-9.25c.98-.36,1.63-1.29,1.63-2.33h0c0-1.72-1.71-2.91-3.32-2.33l-25.43,9.25c-.98.36-1.63,1.29-1.63,2.33h0c0,1.72,1.71,2.91,3.32,2.33Z"/>
            </g>
            <g>
              <path class="cls-1" d="M145.2,222.04h-3.3c-6.63,0-12-5.37-12-12v-92.6c0-4.42,3.58-8,8-8h7.05c9.12,0,16.39,7.6,15.98,16.71l-3.75,84.42c-.28,6.41-5.57,11.47-11.99,11.47Z"/>
              <path class="cls-10" d="M145.2,222.04h-3.3c-6.63,0-12-5.37-12-12v-92.6c0-4.42,3.58-8,8-8h7.05c9.12,0,16.39,7.6,15.98,16.71l-3.75,84.42c-.28,6.41-5.57,11.47-11.99,11.47Z"/>
              <path class="cls-10" d="M145.2,222.04h-3.3c-6.63,0-12-5.37-12-12v-92.6c0-4.42,3.58-8,8-8h7.05c9.12,0,16.39,7.6,15.98,16.71l-3.75,84.42c-.28,6.41-5.57,11.47-11.99,11.47Z"/>
              <path class="cls-10" d="M145.2,222.04h-3.3c-6.63,0-12-5.37-12-12v-92.6c0-4.42,3.58-8,8-8h7.05c9.12,0,16.39,7.6,15.98,16.71l-3.75,84.42c-.28,6.41-5.57,11.47-11.99,11.47Z"/>
            </g>
            <g>
              <path class="cls-1" d="M43.48,222.04h3.3c6.63,0,12-5.37,12-12v-92.6c0-4.42-3.58-8-8-8h-7.05c-9.12,0-16.39,7.6-15.98,16.71l3.75,84.42c.28,6.41,5.57,11.47,11.99,11.47Z"/>
              <path class="cls-14" d="M43.48,222.04h3.3c6.63,0,12-5.37,12-12v-92.6c0-4.42-3.58-8-8-8h-7.05c-9.12,0-16.39,7.6-15.98,16.71l3.75,84.42c.28,6.41,5.57,11.47,11.99,11.47Z"/>
              <path class="cls-6" d="M43.48,222.04h3.3c6.63,0,12-5.37,12-12v-92.6c0-4.42-3.58-8-8-8h-7.05c-9.12,0-16.39,7.6-15.98,16.71l3.75,84.42c.28,6.41,5.57,11.47,11.99,11.47Z"/>
              <path class="cls-8" d="M43.48,222.04h3.3c6.63,0,12-5.37,12-12v-92.6c0-4.42-3.58-8-8-8h-7.05c-9.12,0-16.39,7.6-15.98,16.71l3.75,84.42c.28,6.41,5.57,11.47,11.99,11.47Z"/>
            </g>
            <rect class="cls-1" x="50.11" y="85" width="88.46" height="112.55" rx="16" ry="16"/>
            <g class="cls-11">
              <g>
                <line class="cls-21" x1="62.42" y1="185.78" x2="62.42" y2="161.59"/>
                <line class="cls-21" x1="67.33" y1="185.78" x2="67.33" y2="161.59"/>
                <line class="cls-21" x1="72.24" y1="185.78" x2="72.24" y2="161.59"/>
                <line class="cls-21" x1="77.15" y1="185.78" x2="77.15" y2="161.59"/>
                <line class="cls-21" x1="82.06" y1="185.78" x2="82.06" y2="161.59"/>
                <line class="cls-21" x1="86.97" y1="185.78" x2="86.97" y2="161.59"/>
                <line class="cls-21" x1="91.88" y1="185.78" x2="91.88" y2="161.59"/>
                <line class="cls-21" x1="96.79" y1="185.78" x2="96.79" y2="161.59"/>
                <line class="cls-21" x1="101.7" y1="185.78" x2="101.7" y2="161.59"/>
                <line class="cls-21" x1="106.62" y1="185.78" x2="106.62" y2="161.59"/>
                <line class="cls-21" x1="111.53" y1="185.78" x2="111.53" y2="161.59"/>
                <line class="cls-21" x1="116.44" y1="185.78" x2="116.44" y2="161.59"/>
                <line class="cls-21" x1="121.35" y1="185.78" x2="121.35" y2="161.59"/>
                <line class="cls-21" x1="126.26" y1="185.78" x2="126.26" y2="161.59"/>
              </g>
              <polyline class="cls-21" points="62.42 152.59 62.42 101.12 126.26 101.12 126.26 152.59"/>
            </g>
            <g class="cls-11">
              <g>
                <line class="cls-21" x1="62.42" y1="185.78" x2="62.42" y2="161.59"/>
                <line class="cls-21" x1="67.33" y1="185.78" x2="67.33" y2="161.59"/>
                <line class="cls-21" x1="72.24" y1="185.78" x2="72.24" y2="161.59"/>
                <line class="cls-21" x1="77.15" y1="185.78" x2="77.15" y2="161.59"/>
                <line class="cls-21" x1="82.06" y1="185.78" x2="82.06" y2="161.59"/>
                <line class="cls-21" x1="86.97" y1="185.78" x2="86.97" y2="161.59"/>
                <line class="cls-21" x1="91.88" y1="185.78" x2="91.88" y2="161.59"/>
                <line class="cls-21" x1="96.79" y1="185.78" x2="96.79" y2="161.59"/>
                <line class="cls-21" x1="101.7" y1="185.78" x2="101.7" y2="161.59"/>
                <line class="cls-21" x1="106.62" y1="185.78" x2="106.62" y2="161.59"/>
                <line class="cls-21" x1="111.53" y1="185.78" x2="111.53" y2="161.59"/>
                <line class="cls-21" x1="116.44" y1="185.78" x2="116.44" y2="161.59"/>
                <line class="cls-21" x1="121.35" y1="185.78" x2="121.35" y2="161.59"/>
                <line class="cls-21" x1="126.26" y1="185.78" x2="126.26" y2="161.59"/>
              </g>
              <polyline class="cls-21" points="62.42 152.59 62.42 101.12 126.26 101.12 126.26 152.59"/>
            </g>
            <g class="cls-11">
              <g>
                <line class="cls-21" x1="62.42" y1="185.78" x2="62.42" y2="161.59"/>
                <line class="cls-21" x1="67.33" y1="185.78" x2="67.33" y2="161.59"/>
                <line class="cls-21" x1="72.24" y1="185.78" x2="72.24" y2="161.59"/>
                <line class="cls-21" x1="77.15" y1="185.78" x2="77.15" y2="161.59"/>
                <line class="cls-21" x1="82.06" y1="185.78" x2="82.06" y2="161.59"/>
                <line class="cls-21" x1="86.97" y1="185.78" x2="86.97" y2="161.59"/>
                <line class="cls-21" x1="91.88" y1="185.78" x2="91.88" y2="161.59"/>
                <line class="cls-21" x1="96.79" y1="185.78" x2="96.79" y2="161.59"/>
                <line class="cls-21" x1="101.7" y1="185.78" x2="101.7" y2="161.59"/>
                <line class="cls-21" x1="106.62" y1="185.78" x2="106.62" y2="161.59"/>
                <line class="cls-21" x1="111.53" y1="185.78" x2="111.53" y2="161.59"/>
                <line class="cls-21" x1="116.44" y1="185.78" x2="116.44" y2="161.59"/>
                <line class="cls-21" x1="121.35" y1="185.78" x2="121.35" y2="161.59"/>
                <line class="cls-21" x1="126.26" y1="185.78" x2="126.26" y2="161.59"/>
              </g>
              <polyline class="cls-21" points="62.42 152.59 62.42 101.12 126.26 101.12 126.26 152.59"/>
            </g>
            <g class="cls-11">
              <path class="cls-1" d="M145.75,201.04c1.1,0,2,.9,2,2v11.28c0,1.1-.9,2-2,2h-2.92c-1.1,0-2-.9-2-2v-11.28c0-1.1.9-2,2-2h2.92M145.75,200.04h-2.92c-1.65,0-3,1.35-3,3v11.28c0,1.65,1.35,3,3,3h2.92c1.65,0,3-1.35,3-3v-11.28c0-1.65-1.35-3-3-3h0Z"/>
            </g>
            <circle class="cls-30" cx="94.34" cy="101.12" r="7.61"/>
            <g class="cls-11">
              <path class="cls-1" d="M45.85,201.04c1.1,0,2,.9,2,2v11.28c0,1.1-.9,2-2,2h-2.92c-1.1,0-2-.9-2-2v-11.28c0-1.1.9-2,2-2h2.92M45.85,200.04h-2.92c-1.65,0-3,1.35-3,3v11.28c0,1.65,1.35,3,3,3h2.92c1.65,0,3-1.35,3-3v-11.28c0-1.65-1.35-3-3-3h0Z"/>
            </g>
            <rect class="cls-36" x="140.83" y="201.04" width="6.92" height="15.28" rx="2" ry="2"/>
            <rect class="cls-33" x="40.93" y="201.04" width="6.92" height="15.28" rx="2" ry="2"/>
            <g class="cls-11">
              <path class="cls-1" d="M94.34,93.51c4.21,0,7.61,3.41,7.61,7.61s-3.41,7.61-7.61,7.61-7.61-3.41-7.61-7.61,3.41-7.61,7.61-7.61M94.34,92.76c-4.61,0-8.36,3.75-8.36,8.36s3.75,8.36,8.36,8.36,8.36-3.75,8.36-8.36-3.75-8.36-8.36-8.36h0Z"/>
            </g>
            <g class="cls-11">
              <path class="cls-1" d="M94.34,93.51c4.21,0,7.61,3.41,7.61,7.61s-3.41,7.61-7.61,7.61-7.61-3.41-7.61-7.61,3.41-7.61,7.61-7.61M94.34,92.76c-4.61,0-8.36,3.75-8.36,8.36s3.75,8.36,8.36,8.36,8.36-3.75,8.36-8.36-3.75-8.36-8.36-8.36h0Z"/>
            </g>
            <g class="cls-11">
              <path class="cls-1" d="M94.34,93.51c4.21,0,7.61,3.41,7.61,7.61s-3.41,7.61-7.61,7.61-7.61-3.41-7.61-7.61,3.41-7.61,7.61-7.61M94.34,92.76c-4.61,0-8.36,3.75-8.36,8.36s3.75,8.36,8.36,8.36,8.36-3.75,8.36-8.36-3.75-8.36-8.36-8.36h0Z"/>
            </g>
            <g class="cls-11">
              <path class="cls-1" d="M145.75,201.04c1.1,0,2,.9,2,2v11.28c0,1.1-.9,2-2,2h-2.92c-1.1,0-2-.9-2-2v-11.28c0-1.1.9-2,2-2h2.92M145.75,200.04h-2.92c-1.65,0-3,1.35-3,3v11.28c0,1.65,1.35,3,3,3h2.92c1.65,0,3-1.35,3-3v-11.28c0-1.65-1.35-3-3-3h0Z"/>
            </g>
            <g class="cls-11">
              <path class="cls-1" d="M45.85,201.04c1.1,0,2,.9,2,2v11.28c0,1.1-.9,2-2,2h-2.92c-1.1,0-2-.9-2-2v-11.28c0-1.1.9-2,2-2h2.92M45.85,200.04h-2.92c-1.65,0-3,1.35-3,3v11.28c0,1.65,1.35,3,3,3h2.92c1.65,0,3-1.35,3-3v-11.28c0-1.65-1.35-3-3-3h0Z"/>
            </g>
            <g class="cls-11">
              <path class="cls-1" d="M145.75,201.04c1.1,0,2,.9,2,2v11.28c0,1.1-.9,2-2,2h-2.92c-1.1,0-2-.9-2-2v-11.28c0-1.1.9-2,2-2h2.92M145.75,200.04h-2.92c-1.65,0-3,1.35-3,3v11.28c0,1.65,1.35,3,3,3h2.92c1.65,0,3-1.35,3-3v-11.28c0-1.65-1.35-3-3-3h0Z"/>
            </g>
            <g class="cls-11">
              <path class="cls-1" d="M45.85,201.04c1.1,0,2,.9,2,2v11.28c0,1.1-.9,2-2,2h-2.92c-1.1,0-2-.9-2-2v-11.28c0-1.1.9-2,2-2h2.92M45.85,200.04h-2.92c-1.65,0-3,1.35-3,3v11.28c0,1.65,1.35,3,3,3h2.92c1.65,0,3-1.35,3-3v-11.28c0-1.65-1.35-3-3-3h0Z"/>
            </g>
          </g>
          <line class="cls-13" x1="156.53" y1="488.35" x2="180.39" y2="516.91"/>
          <line class="cls-13" x1="32.15" y1="488.35" x2="8.29" y2="516.91"/>
          <rect class="cls-32" x="80" y="276.13" width="28.62" height="18.84" rx="3" ry="3"/>
          <rect x="84" y="280.13" width="20.62" height="10.84" rx="2" ry="2"/>
        </g>
      </g>
    </g>
  </g>
</svg>