<?xml version="1.0" encoding="UTF-8"?>
<svg xmlns="http://www.w3.org/2000/svg" xmlns:xlink="http://www.w3.org/1999/xlink" viewBox="0 0 499.06 415.71">
  <defs>
    <style>
      .cls-1 {
        fill: #e64545;
      }

      .cls-2, .cls-3, .cls-4, .cls-5, .cls-6, .cls-7, .cls-8, .cls-9, .cls-10, .cls-11 {
        mix-blend-mode: multiply;
      }

      .cls-2, .cls-12, .cls-13, .cls-14, .cls-15, .cls-16, .cls-17, .cls-18, .cls-19 {
        fill: none;
      }

      .cls-2, .cls-12, .cls-15, .cls-17, .cls-19 {
        stroke-miterlimit: 10;
      }

      .cls-2, .cls-19 {
        stroke: #828899;
      }

      .cls-20 {
        fill: url(#linear-gradient-2);
      }

      .cls-3 {
        fill: url(#linear-gradient-9);
      }

      .cls-4 {
        fill: url(#linear-gradient-13);
      }

      .cls-21 {
        fill: url(#linear-gradient-12);
      }

      .cls-12, .cls-13, .cls-14, .cls-15, .cls-16, .cls-17 {
        stroke: #e64545;
      }

      .cls-12, .cls-16 {
        stroke-width: 5px;
      }

      .cls-5 {
        fill: url(#linear-gradient-16);
      }

      .cls-13, .cls-14, .cls-16, .cls-18 {
        stroke-linecap: round;
        stroke-linejoin: round;
      }

      .cls-13, .cls-15 {
        stroke-width: 6px;
      }

      .cls-22 {
        fill: #828899;
      }

      .cls-23 {
        fill: url(#linear-gradient-3);
      }

      .cls-24 {
        fill: url(#linear-gradient-5);
      }

      .cls-25 {
        isolation: isolate;
      }

      .cls-6 {
        fill: url(#linear-gradient-8);
      }

      .cls-26 {
        fill: url(#linear-gradient-4);
        mix-blend-mode: overlay;
      }

      .cls-7 {
        fill: url(#linear-gradient-10);
      }

      .cls-17 {
        stroke-width: 3px;
      }

      .cls-18 {
        stroke: #000;
        stroke-width: 2.5px;
      }

      .cls-27 {
        fill: url(#linear-gradient-7);
      }

      .cls-28 {
        fill: url(#linear-gradient-11);
      }

      .cls-29 {
        fill: url(#Summer_3);
      }

      .cls-30 {
        fill: url(#linear-gradient-6);
      }

      .cls-31 {
        fill: #a3aabf;
      }

      .cls-32 {
        fill: url(#Summer_3-3);
      }

      .cls-9 {
        fill: url(#linear-gradient);
      }

      .cls-10 {
        fill: url(#linear-gradient-15);
      }

      .cls-11 {
        fill: url(#linear-gradient-14);
      }

      .cls-33 {
        fill: url(#Summer_3-2);
      }
    </style>
    <linearGradient id="linear-gradient" x1="5567.68" y1="1491.45" x2="5567.78" y2="1482.49" gradientTransform="translate(5817.01 1731.06) rotate(-180)" gradientUnits="userSpaceOnUse">
      <stop offset=".18" stop-color="#e64545"/>
      <stop offset=".3" stop-color="#e64545" stop-opacity=".85"/>
      <stop offset=".65" stop-color="#e64545" stop-opacity=".39"/>
      <stop offset=".89" stop-color="#e64545" stop-opacity=".11"/>
      <stop offset="1" stop-color="#e64545" stop-opacity="0"/>
    </linearGradient>
    <linearGradient id="linear-gradient-2" x1="-2173.11" y1="3907.84" x2="-2173.11" y2="3923.09" gradientTransform="translate(-1968.71 4281.53) rotate(-180)" gradientUnits="userSpaceOnUse">
      <stop offset=".18" stop-color="#828899"/>
      <stop offset=".49" stop-color="#828899" stop-opacity=".59"/>
      <stop offset=".84" stop-color="#828899" stop-opacity=".17"/>
      <stop offset="1" stop-color="#828899" stop-opacity="0"/>
    </linearGradient>
    <linearGradient id="linear-gradient-3" x1="224.45" y1="214.31" x2="282.92" y2="214.31" gradientUnits="userSpaceOnUse">
      <stop offset="0" stop-color="#828899"/>
      <stop offset=".06" stop-color="#828899" stop-opacity=".95"/>
      <stop offset=".15" stop-color="#828899" stop-opacity=".82"/>
      <stop offset=".26" stop-color="#828899" stop-opacity=".59"/>
      <stop offset=".39" stop-color="#828899" stop-opacity=".29"/>
      <stop offset=".49" stop-color="#828899" stop-opacity="0"/>
    </linearGradient>
    <linearGradient id="linear-gradient-4" x1="216.75" y1="326.65" x2="277.53" y2="326.65" gradientUnits="userSpaceOnUse">
      <stop offset=".22" stop-color="#a3aabf" stop-opacity="0"/>
      <stop offset=".78" stop-color="#a3aabf"/>
    </linearGradient>
    <linearGradient id="linear-gradient-5" x1="-2262.79" y1="3907.84" x2="-2262.79" y2="3923.09" xlink:href="#linear-gradient-2"/>
    <linearGradient id="linear-gradient-6" x1="290.2" y1="-4.08" x2="290.2" y2="19.91" gradientTransform="matrix(1,0,0,1,0,0)" xlink:href="#linear-gradient-2"/>
    <linearGradient id="linear-gradient-7" x1="208.86" y1="-4.08" x2="208.86" y2="19.91" gradientTransform="matrix(1,0,0,1,0,0)" xlink:href="#linear-gradient-2"/>
    <linearGradient id="linear-gradient-8" x1="269.88" y1="41.57" x2="289.8" y2="41.57" gradientUnits="userSpaceOnUse">
      <stop offset=".05" stop-color="#828899"/>
      <stop offset=".37" stop-color="#828899" stop-opacity=".59"/>
      <stop offset=".71" stop-color="#828899" stop-opacity=".17"/>
      <stop offset=".88" stop-color="#828899" stop-opacity="0"/>
    </linearGradient>
    <linearGradient id="linear-gradient-9" x1="-6809" y1="1411.59" x2="-6789.07" y2="1411.59" gradientTransform="translate(-6579.81 1453.16) rotate(-180)" xlink:href="#linear-gradient-8"/>
    <linearGradient id="linear-gradient-10" x1="249.53" y1="87.33" x2="249.53" y2="19.01" gradientUnits="userSpaceOnUse">
      <stop offset="0" stop-color="#e64545"/>
      <stop offset=".09" stop-color="#e64545" stop-opacity=".81"/>
      <stop offset=".21" stop-color="#e64545" stop-opacity=".56"/>
      <stop offset=".34" stop-color="#e64545" stop-opacity=".36"/>
      <stop offset=".45" stop-color="#e64545" stop-opacity=".2"/>
      <stop offset=".56" stop-color="#e64545" stop-opacity=".09"/>
      <stop offset=".65" stop-color="#e64545" stop-opacity=".02"/>
      <stop offset=".73" stop-color="#e64545" stop-opacity="0"/>
    </linearGradient>
    <linearGradient id="linear-gradient-11" x1="326.15" y1="174.85" x2="299.33" y2="174.85" gradientUnits="userSpaceOnUse">
      <stop offset="0" stop-color="#828899"/>
      <stop offset=".22" stop-color="#828899" stop-opacity=".59"/>
      <stop offset=".46" stop-color="#828899" stop-opacity=".17"/>
      <stop offset=".58" stop-color="#828899" stop-opacity="0"/>
    </linearGradient>
    <linearGradient id="linear-gradient-12" x1="-6752.19" y1="174.85" x2="-6779.02" y2="174.85" gradientTransform="translate(-6579.28) rotate(-180) scale(1 -1)" xlink:href="#linear-gradient-11"/>
    <linearGradient id="linear-gradient-13" x1="285.09" y1="165.74" x2="316.14" y2="165.74" gradientUnits="userSpaceOnUse">
      <stop offset=".09" stop-color="#e64545"/>
      <stop offset=".23" stop-color="#e64545" stop-opacity=".82"/>
      <stop offset=".56" stop-color="#e64545" stop-opacity=".37"/>
      <stop offset=".81" stop-color="#e64545" stop-opacity="0"/>
    </linearGradient>
    <linearGradient id="linear-gradient-14" x1="-7661.34" y1="165.74" x2="-7630.29" y2="165.74" gradientTransform="translate(-7447.37) rotate(-180) scale(1 -1)" xlink:href="#linear-gradient-13"/>
    <linearGradient id="linear-gradient-15" x1="-7661.34" y1="165.74" x2="-7630.29" y2="165.74" gradientTransform="translate(-7447.37) rotate(-180) scale(1 -1)" xlink:href="#linear-gradient-13"/>
    <linearGradient id="linear-gradient-16" x1="-7661.34" y1="165.74" x2="-7630.29" y2="165.74" gradientTransform="translate(-7447.37) rotate(-180) scale(1 -1)" xlink:href="#linear-gradient-13"/>
    <radialGradient id="Summer_3" data-name="Summer 3" cx="249.53" cy="101.12" fx="249.53" fy="101.12" r="7.61" gradientUnits="userSpaceOnUse">
      <stop offset="0" stop-color="#fff"/>
      <stop offset=".02" stop-color="#fffbf4"/>
      <stop offset=".14" stop-color="#ffebbb"/>
      <stop offset=".25" stop-color="#ffdd89"/>
      <stop offset=".37" stop-color="#ffd15f"/>
      <stop offset=".49" stop-color="#ffc83c"/>
      <stop offset=".61" stop-color="#ffc022"/>
      <stop offset=".74" stop-color="#ffbb0f"/>
      <stop offset=".87" stop-color="#ffb803"/>
      <stop offset="1" stop-color="#ffb700"/>
    </radialGradient>
    <radialGradient id="Summer_3-2" data-name="Summer 3" cx="299.48" cy="208.68" fx="299.48" fy="208.68" r="14.14" xlink:href="#Summer_3"/>
    <radialGradient id="Summer_3-3" data-name="Summer 3" cx="199.58" cy="208.68" fx="199.58" fy="208.68" r="14.14" xlink:href="#Summer_3"/>
  </defs>
  <g class="cls-25">
    <g id="Layer_2" data-name="Layer 2">
      <g id="artwork">
        <g>
          <g>
            <g>
              <rect class="cls-1" x="245.43" y="239.99" width="7.64" height="14.33"/>
              <rect class="cls-9" x="245.43" y="239.99" width="7.64" height="14.33"/>
            </g>
            <polyline class="cls-12" points="265.27 284.73 251.27 253.06 247.22 253.06 233.22 284.73"/>
          </g>
          <g>
            <line class="cls-15" x1="279.43" y1="414.25" x2="279.41" y2="367.43"/>
            <line class="cls-15" x1="219.44" y1="414.29" x2="219.42" y2="367.48"/>
          </g>
          <g>
            <rect x="197.24" y="331.26" width="14.32" height="39.84" rx="6.36" ry="6.36"/>
            <rect class="cls-20" x="197.24" y="331.26" width="14.32" height="39.84" rx="6.36" ry="6.36"/>
          </g>
          <g>
            <rect x="245.43" y="203.43" width="7.64" height="34.12"/>
            <rect x="241.13" y="235.42" width="16.23" height="6.59" rx="3.29" ry="3.29"/>
            <path d="M220.8,186.61h56.89v11.31c0,6-4.87,10.87-10.87,10.87h-35.15c-6,0-10.87-4.87-10.87-10.87v-11.31h0Z"/>
            <path class="cls-23" d="M277.69,186.61v11.31c0,6-4.87,10.87-10.87,10.87h-13.76v26.64h1.01c1.81,0,3.29,1.47,3.29,3.29,0,.91-.37,1.73-.97,2.33-.59.59-1.42.96-2.32.96h-9.65c-1.82,0-3.29-1.47-3.29-3.29,0-.91.37-1.73.96-2.33.6-.59,1.42-.96,2.33-.96h1v-26.64h-13.75c-6,0-10.87-4.87-10.87-10.87v-11.31h56.89Z"/>
          </g>
          <g>
            <rect class="cls-31" x="211.56" y="269.32" width="75.36" height="114.67" rx="30" ry="30"/>
            <rect class="cls-26" x="211.56" y="269.32" width="75.36" height="114.67" rx="30" ry="30"/>
          </g>
          <g>
            <rect x="286.92" y="331.26" width="14.32" height="39.84" rx="6.36" ry="6.36"/>
            <rect class="cls-24" x="286.92" y="331.26" width="14.32" height="39.84" rx="6.36" ry="6.36"/>
          </g>
          <g>
            <circle cx="249.24" cy="297.01" r="12.66"/>
            <circle class="cls-19" cx="249.24" cy="297.01" r="3.81"/>
            <circle class="cls-2" cx="249.24" cy="297.01" r="16.45"/>
          </g>
          <polygon class="cls-13" points="279.66 387 496.06 387 496.06 400.81 279.77 412.71 219.29 412.71 3 400.81 3 387 219.41 387 279.66 387"/>
          <g>
            <g>
              <line class="cls-17" x1="221.22" y1="387.6" x2="180.48" y2="408.51"/>
              <line class="cls-17" x1="184.42" y1="387.59" x2="146.51" y2="406.84"/>
              <line class="cls-17" x1="147.62" y1="387.58" x2="112.53" y2="405.18"/>
              <line class="cls-17" x1="110.82" y1="387.57" x2="78.55" y2="403.51"/>
              <line class="cls-17" x1="74.01" y1="387.56" x2="44.57" y2="401.84"/>
              <line class="cls-17" x1="37.21" y1="387.56" x2="10.59" y2="400.18"/>
            </g>
            <g>
              <line class="cls-17" x1="181.22" y1="387.26" x2="220.48" y2="410.84"/>
              <line class="cls-17" x1="147.01" y1="387.48" x2="183.54" y2="408.87"/>
              <line class="cls-17" x1="112.8" y1="387.7" x2="146.61" y2="406.89"/>
              <line class="cls-17" x1="78.6" y1="387.91" x2="109.67" y2="404.92"/>
              <line class="cls-17" x1="44.39" y1="388.13" x2="72.73" y2="402.94"/>
              <line class="cls-17" x1="10.18" y1="388.35" x2="35.8" y2="400.97"/>
            </g>
          </g>
          <g>
            <g>
              <line class="cls-17" x1="277.85" y1="387.6" x2="318.58" y2="408.51"/>
              <line class="cls-17" x1="314.65" y1="387.59" x2="352.56" y2="406.84"/>
              <line class="cls-17" x1="351.45" y1="387.58" x2="386.54" y2="405.18"/>
              <line class="cls-17" x1="388.25" y1="387.57" x2="420.52" y2="403.51"/>
              <line class="cls-17" x1="425.05" y1="387.56" x2="454.49" y2="401.84"/>
              <line class="cls-17" x1="461.85" y1="387.56" x2="488.47" y2="400.18"/>
            </g>
            <g>
              <line class="cls-17" x1="317.84" y1="387.26" x2="278.59" y2="410.84"/>
              <line class="cls-17" x1="352.05" y1="387.48" x2="315.52" y2="408.87"/>
              <line class="cls-17" x1="386.26" y1="387.7" x2="352.46" y2="406.89"/>
              <line class="cls-17" x1="420.47" y1="387.91" x2="389.4" y2="404.92"/>
              <line class="cls-17" x1="454.68" y1="388.13" x2="426.33" y2="402.94"/>
              <line class="cls-17" x1="488.89" y1="388.35" x2="463.27" y2="400.97"/>
            </g>
          </g>
          <line class="cls-17" x1="218.69" y1="389.47" x2="279.29" y2="410.06"/>
          <line class="cls-17" x1="279.29" y1="389.47" x2="218.69" y2="410.06"/>
          <line class="cls-16" x1="210.65" y1="321.37" x2="288.52" y2="321.37"/>
          <g>
            <g>
              <g>
                <line class="cls-18" x1="270.19" y1="80.56" x2="305.92" y2="80.56"/>
                <path d="M316.46,88.04l-9.14-3.44c-1.45-.55-2.37-1.98-2.26-3.53h0c.15-2.14,2.16-3.64,4.25-3.18l9.24,2.05c1.7.38,2.86,1.94,2.74,3.67l-.1,1.39c-.16,2.34-2.54,3.86-4.73,3.04Z"/>
              </g>
              <g>
                <line class="cls-18" x1="228.88" y1="80.56" x2="193.15" y2="80.56"/>
                <path d="M182.6,88.04l9.14-3.44c1.45-.55,2.37-1.98,2.26-3.53h0c-.15-2.14-2.16-3.64-4.25-3.18l-9.24,2.05c-1.7.38-2.86,1.94-2.74,3.67l.1,1.39c.16,2.34,2.54,3.86,4.73,3.04Z"/>
              </g>
            </g>
            <g>
              <rect x="278.95" y="0" width="22.51" height="62.62" rx="10" ry="10"/>
              <rect class="cls-30" x="278.95" y="0" width="22.51" height="62.62" rx="10" ry="10"/>
            </g>
            <g>
              <rect x="197.61" y="0" width="22.51" height="62.62" rx="10" ry="10"/>
              <rect class="cls-27" x="197.61" y="0" width="22.51" height="62.62" rx="10" ry="10"/>
            </g>
            <g>
              <rect class="cls-22" x="269.88" y="17.13" width="19.92" height="48.89" rx="6" ry="6"/>
              <rect class="cls-6" x="269.88" y="17.13" width="19.92" height="48.89" rx="6" ry="6"/>
            </g>
            <g>
              <rect class="cls-22" x="209.27" y="17.13" width="19.92" height="48.89" rx="6" ry="6"/>
              <rect class="cls-3" x="209.27" y="17.13" width="19.92" height="48.89" rx="6" ry="6"/>
            </g>
            <g>
              <path class="cls-1" d="M276.25,77.27V17.68c0-1.01-.76-2.3-1.71-2.84-15.53-8.71-34.49-8.71-50.01,0-.95.53-1.7,1.83-1.71,2.84v59.59c0,3.88-2.5,7.17-5.98,8.34h65.39c-3.48-1.18-5.98-4.47-5.98-8.34Z"/>
              <path class="cls-7" d="M276.25,77.27V17.68c0-1.01-.76-2.3-1.71-2.84-15.53-8.71-34.49-8.71-50.01,0-.95.53-1.7,1.83-1.71,2.84v59.59c0,3.88-2.5,7.17-5.98,8.34h65.39c-3.48-1.18-5.98-4.47-5.98-8.34Z"/>
              <path class="cls-7" d="M276.25,77.27V17.68c0-1.01-.76-2.3-1.71-2.84-15.53-8.71-34.49-8.71-50.01,0-.95.53-1.7,1.83-1.71,2.84v59.59c0,3.88-2.5,7.17-5.98,8.34h65.39c-3.48-1.18-5.98-4.47-5.98-8.34Z"/>
            </g>
            <g>
              <rect x="291.4" y="122.95" width="35.19" height="107.28" rx="9.72" ry="9.72"/>
              <path class="cls-28" d="M325.87,138.01l-25.43-9.25c-.98-.36-1.63-1.29-1.63-2.33h0c0-1.72,1.71-2.91,3.32-2.33l25.43,9.25c.98.36,1.63,1.29,1.63,2.33h0c0,1.72-1.71,2.91-3.32,2.33ZM329.19,150.28h0c0-1.04-.65-1.97-1.63-2.33l-25.43-9.25c-1.61-.59-3.32.61-3.32,2.33h0c0,1.04.65,1.97,1.63,2.33l25.43,9.25c1.61.59,3.32-.61,3.32-2.33ZM329.19,164.88h0c0-1.04-.65-1.97-1.63-2.33l-25.43-9.25c-1.61-.59-3.32.61-3.32,2.33h0c0,1.04.65,1.97,1.63,2.33l25.43,9.25c1.61.59,3.32-.61,3.32-2.33ZM329.19,179.48h0c0-1.04-.65-1.97-1.63-2.33l-25.43-9.25c-1.61-.59-3.32.61-3.32,2.33h0c0,1.04.65,1.97,1.63,2.33l25.43,9.25c1.61.59,3.32-.61,3.32-2.33ZM329.19,194.07h0c0-1.04-.65-1.97-1.63-2.33l-25.43-9.25c-1.61-.59-3.32.61-3.32,2.33h0c0,1.04.65,1.97,1.63,2.33l25.43,9.25c1.61.59,3.32-.61,3.32-2.33ZM329.19,208.67h0c0-1.04-.65-1.97-1.63-2.33l-25.43-9.25c-1.61-.59-3.32.61-3.32,2.33h0c0,1.04.65,1.97,1.63,2.33l25.43,9.25c1.61.59,3.32-.61,3.32-2.33ZM329.19,223.27h0c0-1.04-.65-1.97-1.63-2.33l-25.43-9.25c-1.61-.59-3.32.61-3.32,2.33h0c0,1.04.65,1.97,1.63,2.33l25.43,9.25c1.61.59,3.32-.61,3.32-2.33Z"/>
            </g>
            <g>
              <rect x="172.47" y="122.95" width="35.19" height="107.28" rx="9.72" ry="9.72"/>
              <path class="cls-21" d="M169.87,135.68h0c0-1.04.65-1.97,1.63-2.33l25.43-9.25c1.61-.59,3.32.61,3.32,2.33h0c0,1.04-.65,1.97-1.63,2.33l-25.43,9.25c-1.61.59-3.32-.61-3.32-2.33ZM173.2,152.61l25.43-9.25c.98-.36,1.63-1.29,1.63-2.33h0c0-1.72-1.71-2.91-3.32-2.33l-25.43,9.25c-.98.36-1.63,1.29-1.63,2.33h0c0,1.72,1.71,2.91,3.32,2.33ZM173.2,167.21l25.43-9.25c.98-.36,1.63-1.29,1.63-2.33h0c0-1.72-1.71-2.91-3.32-2.33l-25.43,9.25c-.98.36-1.63,1.29-1.63,2.33h0c0,1.72,1.71,2.91,3.32,2.33ZM173.2,181.8l25.43-9.25c.98-.36,1.63-1.29,1.63-2.33h0c0-1.72-1.71-2.91-3.32-2.33l-25.43,9.25c-.98.36-1.63,1.29-1.63,2.33h0c0,1.72,1.71,2.91,3.32,2.33ZM173.2,196.4l25.43-9.25c.98-.36,1.63-1.29,1.63-2.33h0c0-1.72-1.71-2.91-3.32-2.33l-25.43,9.25c-.98.36-1.63,1.29-1.63,2.33h0c0,1.72,1.71,2.91,3.32,2.33ZM173.2,211l25.43-9.25c.98-.36,1.63-1.29,1.63-2.33h0c0-1.72-1.71-2.91-3.32-2.33l-25.43,9.25c-.98.36-1.63,1.29-1.63,2.33h0c0,1.72,1.71,2.91,3.32,2.33ZM173.2,225.6l25.43-9.25c.98-.36,1.63-1.29,1.63-2.33h0c0-1.72-1.71-2.91-3.32-2.33l-25.43,9.25c-.98.36-1.63,1.29-1.63,2.33h0c0,1.72,1.71,2.91,3.32,2.33Z"/>
            </g>
            <g>
              <path class="cls-1" d="M300.39,222.04h-3.3c-6.63,0-12-5.37-12-12v-92.6c0-4.42,3.58-8,8-8h7.05c9.12,0,16.39,7.6,15.98,16.71l-3.75,84.42c-.28,6.41-5.57,11.47-11.99,11.47Z"/>
              <path class="cls-4" d="M300.39,222.04h-3.3c-6.63,0-12-5.37-12-12v-92.6c0-4.42,3.58-8,8-8h7.05c9.12,0,16.39,7.6,15.98,16.71l-3.75,84.42c-.28,6.41-5.57,11.47-11.99,11.47Z"/>
              <path class="cls-4" d="M300.39,222.04h-3.3c-6.63,0-12-5.37-12-12v-92.6c0-4.42,3.58-8,8-8h7.05c9.12,0,16.39,7.6,15.98,16.71l-3.75,84.42c-.28,6.41-5.57,11.47-11.99,11.47Z"/>
              <path class="cls-4" d="M300.39,222.04h-3.3c-6.63,0-12-5.37-12-12v-92.6c0-4.42,3.58-8,8-8h7.05c9.12,0,16.39,7.6,15.98,16.71l-3.75,84.42c-.28,6.41-5.57,11.47-11.99,11.47Z"/>
            </g>
            <g>
              <path class="cls-1" d="M198.68,222.04h3.3c6.63,0,12-5.37,12-12v-92.6c0-4.42-3.58-8-8-8h-7.05c-9.12,0-16.39,7.6-15.98,16.71l3.75,84.42c.28,6.41,5.57,11.47,11.99,11.47Z"/>
              <path class="cls-11" d="M198.68,222.04h3.3c6.63,0,12-5.37,12-12v-92.6c0-4.42-3.58-8-8-8h-7.05c-9.12,0-16.39,7.6-15.98,16.71l3.75,84.42c.28,6.41,5.57,11.47,11.99,11.47Z"/>
              <path class="cls-10" d="M198.68,222.04h3.3c6.63,0,12-5.37,12-12v-92.6c0-4.42-3.58-8-8-8h-7.05c-9.12,0-16.39,7.6-15.98,16.71l3.75,84.42c.28,6.41,5.57,11.47,11.99,11.47Z"/>
              <path class="cls-5" d="M198.68,222.04h3.3c6.63,0,12-5.37,12-12v-92.6c0-4.42-3.58-8-8-8h-7.05c-9.12,0-16.39,7.6-15.98,16.71l3.75,84.42c.28,6.41,5.57,11.47,11.99,11.47Z"/>
            </g>
            <rect class="cls-1" x="205.3" y="85" width="88.46" height="112.55" rx="16" ry="16"/>
            <g class="cls-8">
              <g>
                <line class="cls-14" x1="217.61" y1="185.78" x2="217.61" y2="161.59"/>
                <line class="cls-14" x1="222.52" y1="185.78" x2="222.52" y2="161.59"/>
                <line class="cls-14" x1="227.43" y1="185.78" x2="227.43" y2="161.59"/>
                <line class="cls-14" x1="232.34" y1="185.78" x2="232.34" y2="161.59"/>
                <line class="cls-14" x1="237.25" y1="185.78" x2="237.25" y2="161.59"/>
                <line class="cls-14" x1="242.17" y1="185.78" x2="242.17" y2="161.59"/>
                <line class="cls-14" x1="247.08" y1="185.78" x2="247.08" y2="161.59"/>
                <line class="cls-14" x1="251.99" y1="185.78" x2="251.99" y2="161.59"/>
                <line class="cls-14" x1="256.9" y1="185.78" x2="256.9" y2="161.59"/>
                <line class="cls-14" x1="261.81" y1="185.78" x2="261.81" y2="161.59"/>
                <line class="cls-14" x1="266.72" y1="185.78" x2="266.72" y2="161.59"/>
                <line class="cls-14" x1="271.63" y1="185.78" x2="271.63" y2="161.59"/>
                <line class="cls-14" x1="276.54" y1="185.78" x2="276.54" y2="161.59"/>
                <line class="cls-14" x1="281.45" y1="185.78" x2="281.45" y2="161.59"/>
              </g>
              <polyline class="cls-14" points="217.61 152.59 217.61 101.12 281.45 101.12 281.45 152.59"/>
            </g>
            <g class="cls-8">
              <g>
                <line class="cls-14" x1="217.61" y1="185.78" x2="217.61" y2="161.59"/>
                <line class="cls-14" x1="222.52" y1="185.78" x2="222.52" y2="161.59"/>
                <line class="cls-14" x1="227.43" y1="185.78" x2="227.43" y2="161.59"/>
                <line class="cls-14" x1="232.34" y1="185.78" x2="232.34" y2="161.59"/>
                <line class="cls-14" x1="237.25" y1="185.78" x2="237.25" y2="161.59"/>
                <line class="cls-14" x1="242.17" y1="185.78" x2="242.17" y2="161.59"/>
                <line class="cls-14" x1="247.08" y1="185.78" x2="247.08" y2="161.59"/>
                <line class="cls-14" x1="251.99" y1="185.78" x2="251.99" y2="161.59"/>
                <line class="cls-14" x1="256.9" y1="185.78" x2="256.9" y2="161.59"/>
                <line class="cls-14" x1="261.81" y1="185.78" x2="261.81" y2="161.59"/>
                <line class="cls-14" x1="266.72" y1="185.78" x2="266.72" y2="161.59"/>
                <line class="cls-14" x1="271.63" y1="185.78" x2="271.63" y2="161.59"/>
                <line class="cls-14" x1="276.54" y1="185.78" x2="276.54" y2="161.59"/>
                <line class="cls-14" x1="281.45" y1="185.78" x2="281.45" y2="161.59"/>
              </g>
              <polyline class="cls-14" points="217.61 152.59 217.61 101.12 281.45 101.12 281.45 152.59"/>
            </g>
            <g class="cls-8">
              <g>
                <line class="cls-14" x1="217.61" y1="185.78" x2="217.61" y2="161.59"/>
                <line class="cls-14" x1="222.52" y1="185.78" x2="222.52" y2="161.59"/>
                <line class="cls-14" x1="227.43" y1="185.78" x2="227.43" y2="161.59"/>
                <line class="cls-14" x1="232.34" y1="185.78" x2="232.34" y2="161.59"/>
                <line class="cls-14" x1="237.25" y1="185.78" x2="237.25" y2="161.59"/>
                <line class="cls-14" x1="242.17" y1="185.78" x2="242.17" y2="161.59"/>
                <line class="cls-14" x1="247.08" y1="185.78" x2="247.08" y2="161.59"/>
                <line class="cls-14" x1="251.99" y1="185.78" x2="251.99" y2="161.59"/>
                <line class="cls-14" x1="256.9" y1="185.78" x2="256.9" y2="161.59"/>
                <line class="cls-14" x1="261.81" y1="185.78" x2="261.81" y2="161.59"/>
                <line class="cls-14" x1="266.72" y1="185.78" x2="266.72" y2="161.59"/>
                <line class="cls-14" x1="271.63" y1="185.78" x2="271.63" y2="161.59"/>
                <line class="cls-14" x1="276.54" y1="185.78" x2="276.54" y2="161.59"/>
                <line class="cls-14" x1="281.45" y1="185.78" x2="281.45" y2="161.59"/>
              </g>
              <polyline class="cls-14" points="217.61 152.59 217.61 101.12 281.45 101.12 281.45 152.59"/>
            </g>
            <g class="cls-8">
              <path class="cls-1" d="M300.94,201.04c1.1,0,2,.9,2,2v11.28c0,1.1-.9,2-2,2h-2.92c-1.1,0-2-.9-2-2v-11.28c0-1.1.9-2,2-2h2.92M300.94,200.04h-2.92c-1.65,0-3,1.35-3,3v11.28c0,1.65,1.35,3,3,3h2.92c1.65,0,3-1.35,3-3v-11.28c0-1.65-1.35-3-3-3h0Z"/>
            </g>
            <circle class="cls-29" cx="249.53" cy="101.12" r="7.61"/>
            <g class="cls-8">
              <path class="cls-1" d="M201.04,201.04c1.1,0,2,.9,2,2v11.28c0,1.1-.9,2-2,2h-2.92c-1.1,0-2-.9-2-2v-11.28c0-1.1.9-2,2-2h2.92M201.04,200.04h-2.92c-1.65,0-3,1.35-3,3v11.28c0,1.65,1.35,3,3,3h2.92c1.65,0,3-1.35,3-3v-11.28c0-1.65-1.35-3-3-3h0Z"/>
            </g>
            <rect class="cls-33" x="296.02" y="201.04" width="6.92" height="15.28" rx="2" ry="2"/>
            <rect class="cls-32" x="196.13" y="201.04" width="6.92" height="15.28" rx="2" ry="2"/>
            <g class="cls-8">
              <path class="cls-1" d="M249.53,93.51c4.21,0,7.62,3.41,7.62,7.61s-3.41,7.62-7.62,7.62-7.61-3.41-7.61-7.62,3.41-7.61,7.61-7.61M249.53,92.76c-4.61,0-8.36,3.75-8.36,8.36s3.75,8.37,8.36,8.37,8.37-3.75,8.37-8.37-3.75-8.36-8.37-8.36h0Z"/>
            </g>
            <g class="cls-8">
              <path class="cls-1" d="M249.53,93.51c4.21,0,7.62,3.41,7.62,7.61s-3.41,7.62-7.62,7.62-7.61-3.41-7.61-7.62,3.41-7.61,7.61-7.61M249.53,92.76c-4.61,0-8.36,3.75-8.36,8.36s3.75,8.37,8.36,8.37,8.37-3.75,8.37-8.37-3.75-8.36-8.37-8.36h0Z"/>
            </g>
            <g class="cls-8">
              <path class="cls-1" d="M249.53,93.51c4.21,0,7.62,3.41,7.62,7.61s-3.41,7.62-7.62,7.62-7.61-3.41-7.61-7.62,3.41-7.61,7.61-7.61M249.53,92.76c-4.61,0-8.36,3.75-8.36,8.36s3.75,8.37,8.36,8.37,8.37-3.75,8.37-8.37-3.75-8.36-8.37-8.36h0Z"/>
            </g>
            <g class="cls-8">
              <path class="cls-1" d="M300.94,201.04c1.1,0,2,.9,2,2v11.28c0,1.1-.9,2-2,2h-2.92c-1.1,0-2-.9-2-2v-11.28c0-1.1.9-2,2-2h2.92M300.94,200.04h-2.92c-1.65,0-3,1.35-3,3v11.28c0,1.65,1.35,3,3,3h2.92c1.65,0,3-1.35,3-3v-11.28c0-1.65-1.35-3-3-3h0Z"/>
            </g>
            <g class="cls-8">
              <path class="cls-1" d="M201.04,201.04c1.1,0,2,.9,2,2v11.28c0,1.1-.9,2-2,2h-2.92c-1.1,0-2-.9-2-2v-11.28c0-1.1.9-2,2-2h2.92M201.04,200.04h-2.92c-1.65,0-3,1.35-3,3v11.28c0,1.65,1.35,3,3,3h2.92c1.65,0,3-1.35,3-3v-11.28c0-1.65-1.35-3-3-3h0Z"/>
            </g>
            <g class="cls-8">
              <path class="cls-1" d="M300.94,201.04c1.1,0,2,.9,2,2v11.28c0,1.1-.9,2-2,2h-2.92c-1.1,0-2-.9-2-2v-11.28c0-1.1.9-2,2-2h2.92M300.94,200.04h-2.92c-1.65,0-3,1.35-3,3v11.28c0,1.65,1.35,3,3,3h2.92c1.65,0,3-1.35,3-3v-11.28c0-1.65-1.35-3-3-3h0Z"/>
            </g>
            <g class="cls-8">
              <path class="cls-1" d="M201.04,201.04c1.1,0,2,.9,2,2v11.28c0,1.1-.9,2-2,2h-2.92c-1.1,0-2-.9-2-2v-11.28c0-1.1.9-2,2-2h2.92M201.04,200.04h-2.92c-1.65,0-3,1.35-3,3v11.28c0,1.65,1.35,3,3,3h2.92c1.65,0,3-1.35,3-3v-11.28c0-1.65-1.35-3-3-3h0Z"/>
            </g>
          </g>
        </g>
      </g>
    </g>
  </g>
</svg>