<?xml version="1.0" encoding="UTF-8"?>
<svg xmlns="http://www.w3.org/2000/svg" xmlns:xlink="http://www.w3.org/1999/xlink" viewBox="0 0 159.32 514.71">
  <defs>
    <style>
      .cls-1 {
        fill: url(#linear-gradient-13);
      }

      .cls-2 {
        fill: url(#Orchid_5);
      }

      .cls-2, .cls-3, .cls-4, .cls-5, .cls-6, .cls-7, .cls-8, .cls-9, .cls-10, .cls-11, .cls-12, .cls-13, .cls-14, .cls-15, .cls-16 {
        mix-blend-mode: multiply;
      }

      .cls-17 {
        fill: url(#linear-gradient-2);
      }

      .cls-3 {
        fill: url(#linear-gradient-9);
      }

      .cls-4 {
        fill: url(#Orchid_12-4);
      }

      .cls-18 {
        fill: url(#linear-gradient-12);
      }

      .cls-5 {
        fill: url(#Orchid_12);
      }

      .cls-6 {
        fill: url(#Orchid_5-3);
      }

      .cls-7 {
        fill: url(#Orchid_5-4);
      }

      .cls-8 {
        fill: url(#Orchid_12-3);
      }

      .cls-9 {
        fill: url(#Orchid_12-2);
      }

      .cls-19 {
        fill: url(#linear-gradient-4);
      }

      .cls-20 {
        fill: url(#radial-gradient);
      }

      .cls-21 {
        fill: #828899;
      }

      .cls-22 {
        fill: url(#linear-gradient-3);
      }

      .cls-23 {
        fill: #3081f2;
      }

      .cls-24 {
        isolation: isolate;
      }

      .cls-25 {
        fill: url(#linear-gradient-8);
      }

      .cls-26 {
        fill: url(#radial-gradient-2);
      }

      .cls-10 {
        fill: url(#linear-gradient-10);
      }

      .cls-27 {
        stroke: #000;
        stroke-width: 2.5px;
      }

      .cls-27, .cls-28 {
        stroke-linecap: round;
        stroke-linejoin: round;
      }

      .cls-27, .cls-28, .cls-29 {
        fill: none;
      }

      .cls-11 {
        fill: url(#linear-gradient-5);
      }

      .cls-30 {
        fill: url(#linear-gradient-7);
      }

      .cls-12 {
        fill: url(#linear-gradient-11);
      }

      .cls-31 {
        fill: url(#Summer_3);
      }

      .cls-32 {
        fill: url(#linear-gradient-6);
      }

      .cls-14 {
        fill: url(#Orchid_5-2);
      }

      .cls-33 {
        fill: #a3aabf;
      }

      .cls-28, .cls-29 {
        stroke: #3081f2;
      }

      .cls-15 {
        fill: url(#linear-gradient-15);
      }

      .cls-29 {
        stroke-miterlimit: 10;
        stroke-width: 5px;
      }

      .cls-34 {
        fill: url(#linear-gradient);
      }

      .cls-16 {
        fill: url(#linear-gradient-14);
      }
    </style>
    <linearGradient id="linear-gradient" x1="140.09" y1="429.96" x2="123.95" y2="429.96" gradientUnits="userSpaceOnUse">
      <stop offset="0" stop-color="#828899"/>
      <stop offset=".22" stop-color="#828899" stop-opacity=".59"/>
      <stop offset=".46" stop-color="#828899" stop-opacity=".17"/>
      <stop offset=".58" stop-color="#828899" stop-opacity="0"/>
    </linearGradient>
    <linearGradient id="linear-gradient-2" x1="140.09" y1="365.45" x2="123.95" y2="365.45" xlink:href="#linear-gradient"/>
    <linearGradient id="linear-gradient-3" x1="-8213.68" y1="429.96" x2="-8229.82" y2="429.96" gradientTransform="translate(-8194.45) rotate(-180) scale(1 -1)" xlink:href="#linear-gradient"/>
    <linearGradient id="linear-gradient-4" x1="-8213.68" y1="365.45" x2="-8229.82" y2="365.45" gradientTransform="translate(-8194.45) rotate(-180) scale(1 -1)" xlink:href="#linear-gradient"/>
    <linearGradient id="Orchid_12" data-name="Orchid 12" x1="-8465.53" y1="4995.92" x2="-8434.02" y2="4995.92" gradientTransform="translate(-8431.85 5395.84) rotate(-180)" gradientUnits="userSpaceOnUse">
      <stop offset="0" stop-color="#3081f2"/>
      <stop offset=".18" stop-color="#3081f2" stop-opacity=".8"/>
      <stop offset=".59" stop-color="#3081f2" stop-opacity=".38"/>
      <stop offset=".87" stop-color="#3081f2" stop-opacity=".11"/>
      <stop offset="1" stop-color="#3081f2" stop-opacity="0"/>
    </linearGradient>
    <linearGradient id="Orchid_12-2" data-name="Orchid 12" x1="125.64" y1="399.92" x2="157.15" y2="399.92" gradientTransform="matrix(1,0,0,1,0,0)" xlink:href="#Orchid_12"/>
    <linearGradient id="linear-gradient-5" x1="-506.37" y1="1530.97" x2="-506.21" y2="1516.98" gradientTransform="translate(-426.58 1755.6) rotate(-180)" gradientUnits="userSpaceOnUse">
      <stop offset=".18" stop-color="#3081f2"/>
      <stop offset=".33" stop-color="#3081f2" stop-opacity=".8"/>
      <stop offset=".66" stop-color="#3081f2" stop-opacity=".38"/>
      <stop offset=".89" stop-color="#3081f2" stop-opacity=".11"/>
      <stop offset="1" stop-color="#3081f2" stop-opacity="0"/>
    </linearGradient>
    <linearGradient id="linear-gradient-6" x1="54.86" y1="206.81" x2="113.33" y2="206.81" gradientUnits="userSpaceOnUse">
      <stop offset="0" stop-color="#828899"/>
      <stop offset=".06" stop-color="#828899" stop-opacity=".95"/>
      <stop offset=".15" stop-color="#828899" stop-opacity=".82"/>
      <stop offset=".26" stop-color="#828899" stop-opacity=".59"/>
      <stop offset=".39" stop-color="#828899" stop-opacity=".29"/>
      <stop offset=".49" stop-color="#828899" stop-opacity="0"/>
    </linearGradient>
    <linearGradient id="Orchid_12-3" data-name="Orchid 12" x1="79.66" y1="304.26" x2="79.66" y2="288.9" gradientTransform="matrix(1,0,0,1,0,0)" xlink:href="#Orchid_12"/>
    <linearGradient id="Orchid_12-4" data-name="Orchid 12" x1="-8386.24" y1="5104.56" x2="-8386.24" y2="5089.2" gradientTransform="translate(-8306.58 5600.45) rotate(-180)" xlink:href="#Orchid_12"/>
    <linearGradient id="Orchid_5" data-name="Orchid 5" x1="79.66" y1="386.66" x2="79.66" y2="315.71" gradientUnits="userSpaceOnUse">
      <stop offset="0" stop-color="#a3aabf"/>
      <stop offset=".49" stop-color="#a3aabf" stop-opacity=".47"/>
      <stop offset=".84" stop-color="#a3aabf" stop-opacity=".13"/>
      <stop offset="1" stop-color="#a3aabf" stop-opacity="0"/>
    </linearGradient>
    <linearGradient id="Orchid_5-2" data-name="Orchid 5" x1="79.66" y1="422.81" x2="79.66" y2="364.43" xlink:href="#Orchid_5"/>
    <linearGradient id="Orchid_5-3" data-name="Orchid 5" y1="477.22" x2="79.66" y2="404.5" xlink:href="#Orchid_5"/>
    <linearGradient id="Orchid_5-4" data-name="Orchid 5" y1="504.42" x2="79.66" y2="449.98" xlink:href="#Orchid_5"/>
    <linearGradient id="linear-gradient-7" x1="120.33" y1="-4.08" x2="120.33" y2="19.91" gradientUnits="userSpaceOnUse">
      <stop offset=".18" stop-color="#828899"/>
      <stop offset=".49" stop-color="#828899" stop-opacity=".59"/>
      <stop offset=".84" stop-color="#828899" stop-opacity=".17"/>
      <stop offset="1" stop-color="#828899" stop-opacity="0"/>
    </linearGradient>
    <linearGradient id="linear-gradient-8" x1="38.99" y1="-4.08" x2="38.99" y2="19.91" xlink:href="#linear-gradient-7"/>
    <linearGradient id="linear-gradient-9" x1="100" y1="41.57" x2="119.93" y2="41.57" gradientUnits="userSpaceOnUse">
      <stop offset=".05" stop-color="#828899"/>
      <stop offset=".37" stop-color="#828899" stop-opacity=".59"/>
      <stop offset=".71" stop-color="#828899" stop-opacity=".17"/>
      <stop offset=".88" stop-color="#828899" stop-opacity="0"/>
    </linearGradient>
    <linearGradient id="linear-gradient-10" x1="-12882.71" y1="1436.13" x2="-12862.78" y2="1436.13" gradientTransform="translate(-12823.39 1477.7) rotate(-180)" xlink:href="#linear-gradient-9"/>
    <linearGradient id="linear-gradient-11" x1="79.66" y1="87.33" x2="79.66" y2="19.01" gradientUnits="userSpaceOnUse">
      <stop offset="0" stop-color="#3081f2"/>
      <stop offset=".11" stop-color="#3081f2" stop-opacity=".77"/>
      <stop offset=".23" stop-color="#3081f2" stop-opacity=".54"/>
      <stop offset=".35" stop-color="#3081f2" stop-opacity=".34"/>
      <stop offset=".46" stop-color="#3081f2" stop-opacity=".19"/>
      <stop offset=".56" stop-color="#3081f2" stop-opacity=".09"/>
      <stop offset=".66" stop-color="#3081f2" stop-opacity=".02"/>
      <stop offset=".73" stop-color="#3081f2" stop-opacity="0"/>
    </linearGradient>
    <linearGradient id="linear-gradient-12" x1="156.28" y1="174.85" x2="129.45" y2="174.85" xlink:href="#linear-gradient"/>
    <linearGradient id="linear-gradient-13" x1="-12825.9" y1="174.85" x2="-12852.73" y2="174.85" gradientTransform="translate(-12822.86) rotate(-180) scale(1 -1)" xlink:href="#linear-gradient"/>
    <linearGradient id="linear-gradient-14" x1="115.22" y1="165.74" x2="146.27" y2="165.74" gradientUnits="userSpaceOnUse">
      <stop offset=".09" stop-color="#3081f2"/>
      <stop offset=".23" stop-color="#3081f2" stop-opacity=".83"/>
      <stop offset=".54" stop-color="#3081f2" stop-opacity=".4"/>
      <stop offset=".81" stop-color="#3081f2" stop-opacity="0"/>
    </linearGradient>
    <linearGradient id="linear-gradient-15" x1="-12481.46" y1="165.74" x2="-12450.41" y2="165.74" gradientTransform="translate(-12437.36) rotate(-180) scale(1 -1)" xlink:href="#linear-gradient-14"/>
    <radialGradient id="Summer_3" data-name="Summer 3" cx="79.66" cy="101.12" fx="79.66" fy="101.12" r="7.61" gradientUnits="userSpaceOnUse">
      <stop offset="0" stop-color="#fff"/>
      <stop offset=".02" stop-color="#fffbf4"/>
      <stop offset=".14" stop-color="#ffebbb"/>
      <stop offset=".25" stop-color="#ffdd89"/>
      <stop offset=".37" stop-color="#ffd15f"/>
      <stop offset=".49" stop-color="#ffc83c"/>
      <stop offset=".61" stop-color="#ffc022"/>
      <stop offset=".74" stop-color="#ffbb0f"/>
      <stop offset=".87" stop-color="#ffb803"/>
      <stop offset="1" stop-color="#ffb700"/>
    </radialGradient>
    <radialGradient id="radial-gradient" cx="129.61" cy="208.68" fx="129.61" fy="208.68" r="14.14" gradientUnits="userSpaceOnUse">
      <stop offset="0" stop-color="#ff192e"/>
      <stop offset=".07" stop-color="#ec1528"/>
      <stop offset=".24" stop-color="#c80d1e"/>
      <stop offset=".41" stop-color="#ab0716"/>
      <stop offset=".58" stop-color="#970310"/>
      <stop offset=".74" stop-color="#8b000d"/>
      <stop offset=".91" stop-color="#87000c"/>
    </radialGradient>
    <radialGradient id="radial-gradient-2" cx="29.71" fx="29.71" r="14.14" xlink:href="#radial-gradient"/>
  </defs>
  <g class="cls-24">
    <g id="Layer_2" data-name="Layer 2">
      <g id="artwork">
        <g>
          <g>
            <g>
              <g>
                <g>
                  <path class="cls-23" d="M149.68,401.09h-5v-31.13l-6.75-2v-3h8.75c1.66,0,3,1.34,3,3v33.13Z"/>
                  <path class="cls-23" d="M146.68,434.88h-8.75v-3l6.75-2v-31.13h5v33.13c0,1.66-1.34,3-3,3Z"/>
                </g>
                <g>
                  <rect x="125.64" y="409.4" width="14.81" height="45.14" rx="4.81" ry="4.81"/>
                  <path class="cls-34" d="M141.91,415.17h0c0-.63-.39-1.19-.98-1.4l-15.3-5.57c-.97-.35-2,.37-2,1.4h0c0,.63.39,1.19.98,1.4l15.3,5.57c.97.35,2-.37,2-1.4ZM141.91,423.96h0c0-.63-.39-1.19-.98-1.4l-15.3-5.57c-.97-.35-2,.37-2,1.4h0c0,.63.39,1.19.98,1.4l15.3,5.57c.97.35,2-.37,2-1.4ZM141.91,432.74h0c0-.63-.39-1.19-.98-1.4l-15.3-5.57c-.97-.35-2,.37-2,1.4h0c0,.63.39,1.19.98,1.4l15.3,5.57c.97.35,2-.37,2-1.4ZM141.91,441.52h0c0-.63-.39-1.19-.98-1.4l-15.3-5.57c-.97-.35-2,.37-2,1.4h0c0,.63.39,1.19.98,1.4l15.3,5.57c.97.35,2-.37,2-1.4ZM141.91,450.31h0c0-.63-.39-1.19-.98-1.4l-15.3-5.57c-.97-.35-2,.37-2,1.4h0c0,.63.39,1.19.98,1.4l15.3,5.57c.97.35,2-.37,2-1.4Z"/>
                </g>
                <g>
                  <rect x="125.64" y="344.89" width="14.81" height="45.14" rx="4.81" ry="4.81"/>
                  <path class="cls-17" d="M141.91,350.67h0c0-.63-.39-1.19-.98-1.4l-15.3-5.57c-.97-.35-2,.37-2,1.4h0c0,.63.39,1.19.98,1.4l15.3,5.57c.97.35,2-.37,2-1.4ZM141.91,359.45h0c0-.63-.39-1.19-.98-1.4l-15.3-5.57c-.97-.35-2,.37-2,1.4h0c0,.63.39,1.19.98,1.4l15.3,5.57c.97.35,2-.37,2-1.4ZM141.91,368.23h0c0-.63-.39-1.19-.98-1.4l-15.3-5.57c-.97-.35-2,.37-2,1.4h0c0,.63.39,1.19.98,1.4l15.3,5.57c.97.35,2-.37,2-1.4ZM141.91,377.01h0c0-.63-.39-1.19-.98-1.4l-15.3-5.57c-.97-.35-2,.37-2,1.4h0c0,.63.39,1.19.98,1.4l15.3,5.57c.97.35,2-.37,2-1.4ZM141.91,385.8h0c0-.63-.39-1.19-.98-1.4l-15.3-5.57c-.97-.35-2,.37-2,1.4h0c0,.63.39,1.19.98,1.4l15.3,5.57c.97.35,2-.37,2-1.4Z"/>
                </g>
              </g>
              <g>
                <g>
                  <path class="cls-23" d="M9.64,401.09h5s0-31.13,0-31.13l6.75-2v-3s-8.75,0-8.75,0c-1.66,0-3,1.34-3,3v33.13Z"/>
                  <path class="cls-23" d="M12.64,434.88h8.75s0-3,0-3l-6.75-2v-31.13s-5,0-5,0v33.13c0,1.66,1.34,3,3,3Z"/>
                </g>
                <g>
                  <rect x="18.87" y="409.4" width="14.81" height="45.14" rx="4.81" ry="4.81"/>
                  <path class="cls-22" d="M19.4,416.57l15.3-5.57c.59-.21.98-.77.98-1.4h0c0-1.03-1.03-1.75-2-1.4l-15.3,5.57c-.59.21-.98.77-.98,1.4h0c0,1.03,1.03,1.75,2,1.4ZM19.4,425.36l15.3-5.57c.59-.21.98-.77.98-1.4h0c0-1.03-1.03-1.75-2-1.4l-15.3,5.57c-.59.21-.98.77-.98,1.4h0c0,1.03,1.03,1.75,2,1.4ZM19.4,434.14l15.3-5.57c.59-.21.98-.77.98-1.4h0c0-1.03-1.03-1.75-2-1.4l-15.3,5.57c-.59.21-.98.77-.98,1.4h0c0,1.03,1.03,1.75,2,1.4ZM19.4,442.92l15.3-5.57c.59-.21.98-.77.98-1.4h0c0-1.03-1.03-1.75-2-1.4l-15.3,5.57c-.59.21-.98.77-.98,1.4h0c0,1.03,1.03,1.75,2,1.4ZM19.4,451.71l15.3-5.57c.59-.21.98-.77.98-1.4h0c0-1.03-1.03-1.75-2-1.4l-15.3,5.57c-.59.21-.98.77-.98,1.4h0c0,1.03,1.03,1.75,2,1.4Z"/>
                </g>
                <g>
                  <rect x="18.87" y="344.89" width="14.81" height="45.14" rx="4.81" ry="4.81"/>
                  <path class="cls-19" d="M19.4,352.07l15.3-5.57c.59-.21.98-.77.98-1.4h0c0-1.03-1.03-1.75-2-1.4l-15.3,5.57c-.59.21-.98.77-.98,1.4h0c0,1.03,1.03,1.75,2,1.4ZM19.4,360.85l15.3-5.57c.59-.21.98-.77.98-1.4h0c0-1.03-1.03-1.75-2-1.4l-15.3,5.57c-.59.21-.98.77-.98,1.4h0c0,1.03,1.03,1.75,2,1.4ZM19.4,369.63l15.3-5.57c.59-.21.98-.77.98-1.4h0c0-1.03-1.03-1.75-2-1.4l-15.3,5.57c-.59.21-.98.77-.98,1.4h0c0,1.03,1.03,1.75,2,1.4ZM19.4,378.41l15.3-5.57c.59-.21.98-.77.98-1.4h0c0-1.03-1.03-1.75-2-1.4l-15.3,5.57c-.59.21-.98.77-.98,1.4h0c0,1.03,1.03,1.75,2,1.4ZM19.4,387.2l15.3-5.57c.59-.21.98-.77.98-1.4h0c0-1.03-1.03-1.75-2-1.4l-15.3,5.57c-.59.21-.98.77-.98,1.4h0c0,1.03,1.03,1.75,2,1.4Z"/>
                </g>
              </g>
            </g>
            <rect class="cls-23" x="2.17" y="394.52" width="154.98" height="10.81" rx="2" ry="2"/>
            <g>
              <rect class="cls-23" x="2.17" y="394.52" width="31.51" height="10.81" rx="2" ry="2"/>
              <rect class="cls-5" x="2.17" y="394.52" width="31.51" height="10.81" rx="2" ry="2"/>
            </g>
            <g>
              <rect class="cls-23" x="125.64" y="394.52" width="31.51" height="10.81" rx="2" ry="2"/>
              <rect class="cls-9" x="125.64" y="394.52" width="31.51" height="10.81" rx="2" ry="2"/>
            </g>
            <g>
              <g>
                <rect class="cls-23" x="75.84" y="225.19" width="7.64" height="22.46"/>
                <rect class="cls-11" x="75.84" y="225.19" width="7.64" height="22.46"/>
              </g>
              <polyline class="cls-29" points="69.63 288.05 78.63 246.38 80.68 246.38 89.68 288.05"/>
              <g>
                <rect x="75.84" y="203.43" width="7.64" height="19.12"/>
                <rect x="71.54" y="220.43" width="16.23" height="6.59" rx="3.29" ry="3.29"/>
                <path d="M51.21,186.61h56.89v11.31c0,6-4.87,10.87-10.87,10.87h-35.15c-6,0-10.87-4.87-10.87-10.87v-11.31h0Z"/>
                <path class="cls-32" d="M108.1,186.61v11.31c0,6-4.87,10.87-10.87,10.87h-13.76v11.64h1.01c1.81,0,3.29,1.47,3.29,3.29,0,.91-.37,1.73-.97,2.33-.59.59-1.42.96-2.32.96h-9.65c-1.82,0-3.29-1.47-3.29-3.29,0-.91.37-1.73.96-2.33.6-.59,1.42-.96,2.33-.96h1v-11.64h-13.75c-6,0-10.87-4.87-10.87-10.87v-11.31h56.89Z"/>
              </g>
            </g>
            <g>
              <rect class="cls-23" x="74.25" y="285.44" width="10.81" height="20.98" rx="2" ry="2"/>
              <rect class="cls-8" x="74.25" y="285.44" width="10.81" height="20.98" rx="2" ry="2"/>
            </g>
            <g>
              <rect class="cls-23" x="68.25" y="493.74" width="22.81" height="20.98" rx="2" ry="2"/>
              <rect class="cls-4" x="68.25" y="493.74" width="22.81" height="20.98" rx="2" ry="2"/>
            </g>
            <rect class="cls-23" x="61" y="284.24" width="37.31" height="5.14" rx="2" ry="2"/>
            <path class="cls-23" d="M129.84,487.63c-32.13,13.31-68.23,13.31-100.37,0v-177.12c32.13-13.31,68.23-13.31,100.37,0v177.12Z"/>
            <path class="cls-33" d="M121.74,481.6c-26.94,11.16-57.22,11.16-84.16,0v-165.04c26.94-11.16,57.22-11.16,84.16,0v165.04Z"/>
            <g>
              <path class="cls-33" d="M121.74,316.56v38.05c-26.94-5.58-57.22-5.58-84.16,0v-38.05c26.94-11.16,57.22-11.16,84.16,0Z"/>
              <path class="cls-2" d="M121.74,316.56v38.05c-26.94-5.58-57.22-5.58-84.16,0v-38.05c26.94-11.16,57.22-11.16,84.16,0Z"/>
            </g>
            <path class="cls-14" d="M121.74,354.61v44.95H37.58v-44.95c26.94-5.58,57.22-5.58,84.16,0Z"/>
            <path class="cls-6" d="M121.74,399.56v44.94c-26.94,5.59-57.22,5.59-84.16,0v-44.94h84.16Z"/>
            <path class="cls-7" d="M121.74,444.5v37.1c-26.94,11.16-57.22,11.16-84.16,0v-37.1c26.94,5.59,57.22,5.59,84.16,0Z"/>
          </g>
          <g>
            <g>
              <g>
                <line class="cls-27" x1="100.32" y1="80.56" x2="136.04" y2="80.56"/>
                <path d="M146.59,88.04l-9.14-3.44c-1.45-.55-2.37-1.98-2.26-3.53h0c.15-2.14,2.16-3.64,4.25-3.18l9.24,2.05c1.7.38,2.86,1.94,2.74,3.67l-.1,1.39c-.16,2.34-2.54,3.86-4.73,3.04Z"/>
              </g>
              <g>
                <line class="cls-27" x1="59" y1="80.56" x2="23.28" y2="80.56"/>
                <path d="M12.73,88.04l9.14-3.44c1.45-.55,2.37-1.98,2.26-3.53h0c-.15-2.14-2.16-3.64-4.25-3.18l-9.24,2.05c-1.7.38-2.86,1.94-2.74,3.67l.1,1.39c.16,2.34,2.54,3.86,4.73,3.04Z"/>
              </g>
            </g>
            <g>
              <rect x="109.07" y="0" width="22.51" height="62.62" rx="10" ry="10"/>
              <rect class="cls-30" x="109.07" y="0" width="22.51" height="62.62" rx="10" ry="10"/>
            </g>
            <g>
              <rect x="27.73" y="0" width="22.51" height="62.62" rx="10" ry="10"/>
              <rect class="cls-25" x="27.73" y="0" width="22.51" height="62.62" rx="10" ry="10"/>
            </g>
            <g>
              <rect class="cls-21" x="100" y="17.13" width="19.92" height="48.89" rx="6" ry="6"/>
              <rect class="cls-3" x="100" y="17.13" width="19.92" height="48.89" rx="6" ry="6"/>
            </g>
            <g>
              <rect class="cls-21" x="39.39" y="17.13" width="19.92" height="48.89" rx="6" ry="6"/>
              <rect class="cls-10" x="39.39" y="17.13" width="19.92" height="48.89" rx="6" ry="6"/>
            </g>
            <g>
              <path class="cls-23" d="M106.37,77.27V17.68c0-1.01-.76-2.3-1.71-2.84-15.53-8.71-34.49-8.71-50.01,0-.95.53-1.7,1.83-1.71,2.84v59.59c0,3.88-2.5,7.17-5.98,8.34h65.39c-3.48-1.18-5.98-4.47-5.98-8.34Z"/>
              <path class="cls-12" d="M106.37,77.27V17.68c0-1.01-.76-2.3-1.71-2.84-15.53-8.71-34.49-8.71-50.01,0-.95.53-1.7,1.83-1.71,2.84v59.59c0,3.88-2.5,7.17-5.98,8.34h65.39c-3.48-1.18-5.98-4.47-5.98-8.34Z"/>
            </g>
            <g>
              <rect x="121.53" y="122.95" width="35.19" height="107.28" rx="9.72" ry="9.72"/>
              <path class="cls-18" d="M155.99,138.01l-25.43-9.25c-.98-.36-1.63-1.29-1.63-2.33h0c0-1.72,1.71-2.91,3.32-2.33l25.43,9.25c.98.36,1.63,1.29,1.63,2.33h0c0,1.72-1.71,2.91-3.32,2.33ZM159.32,150.28h0c0-1.04-.65-1.97-1.63-2.33l-25.43-9.25c-1.61-.59-3.32.61-3.32,2.33h0c0,1.04.65,1.97,1.63,2.33l25.43,9.25c1.61.59,3.32-.61,3.32-2.33ZM159.32,164.88h0c0-1.04-.65-1.97-1.63-2.33l-25.43-9.25c-1.61-.59-3.32.61-3.32,2.33h0c0,1.04.65,1.97,1.63,2.33l25.43,9.25c1.61.59,3.32-.61,3.32-2.33ZM159.32,179.48h0c0-1.04-.65-1.97-1.63-2.33l-25.43-9.25c-1.61-.59-3.32.61-3.32,2.33h0c0,1.04.65,1.97,1.63,2.33l25.43,9.25c1.61.59,3.32-.61,3.32-2.33ZM159.32,194.07h0c0-1.04-.65-1.97-1.63-2.33l-25.43-9.25c-1.61-.59-3.32.61-3.32,2.33h0c0,1.04.65,1.97,1.63,2.33l25.43,9.25c1.61.59,3.32-.61,3.32-2.33ZM159.32,208.67h0c0-1.04-.65-1.97-1.63-2.33l-25.43-9.25c-1.61-.59-3.32.61-3.32,2.33h0c0,1.04.65,1.97,1.63,2.33l25.43,9.25c1.61.59,3.32-.61,3.32-2.33ZM159.32,223.27h0c0-1.04-.65-1.97-1.63-2.33l-25.43-9.25c-1.61-.59-3.32.61-3.32,2.33h0c0,1.04.65,1.97,1.63,2.33l25.43,9.25c1.61.59,3.32-.61,3.32-2.33Z"/>
            </g>
            <g>
              <rect x="2.59" y="122.95" width="35.19" height="107.28" rx="9.72" ry="9.72"/>
              <path class="cls-1" d="M0,135.68H0c0-1.04.65-1.97,1.63-2.33l25.43-9.25c1.61-.59,3.32.61,3.32,2.33h0c0,1.04-.65,1.97-1.63,2.33l-25.43,9.25C1.71,138.6,0,137.4,0,135.68ZM3.32,152.61l25.43-9.25c.98-.36,1.63-1.29,1.63-2.33h0c0-1.72-1.71-2.91-3.32-2.33l-25.43,9.25C.65,148.31,0,149.24,0,150.28H0c0,1.72,1.71,2.91,3.32,2.33ZM3.32,167.21l25.43-9.25c.98-.36,1.63-1.29,1.63-2.33h0c0-1.72-1.71-2.91-3.32-2.33l-25.43,9.25C.65,162.91,0,163.84,0,164.88H0c0,1.72,1.71,2.91,3.32,2.33ZM3.32,181.8l25.43-9.25c.98-.36,1.63-1.29,1.63-2.33h0c0-1.72-1.71-2.91-3.32-2.33l-25.43,9.25C.65,177.51,0,178.44,0,179.48H0c0,1.72,1.71,2.91,3.32,2.33ZM3.32,196.4l25.43-9.25c.98-.36,1.63-1.29,1.63-2.33h0c0-1.72-1.71-2.91-3.32-2.33l-25.43,9.25C.65,192.1,0,193.03,0,194.07H0c0,1.72,1.71,2.91,3.32,2.33ZM3.32,211l25.43-9.25c.98-.36,1.63-1.29,1.63-2.33h0c0-1.72-1.71-2.91-3.32-2.33l-25.43,9.25C.65,206.7,0,207.63,0,208.67H0c0,1.72,1.71,2.91,3.32,2.33ZM3.32,225.6l25.43-9.25c.98-.36,1.63-1.29,1.63-2.33h0c0-1.72-1.71-2.91-3.32-2.33l-25.43,9.25C.65,221.3,0,222.23,0,223.27h0c0,1.72,1.71,2.91,3.32,2.33Z"/>
            </g>
            <g>
              <path class="cls-23" d="M130.52,222.04h-3.3c-6.63,0-12-5.37-12-12v-92.6c0-4.42,3.58-8,8-8h7.05c9.12,0,16.39,7.6,15.98,16.71l-3.75,84.42c-.28,6.41-5.57,11.47-11.99,11.47Z"/>
              <path class="cls-16" d="M130.52,222.04h-3.3c-6.63,0-12-5.37-12-12v-92.6c0-4.42,3.58-8,8-8h7.05c9.12,0,16.39,7.6,15.98,16.71l-3.75,84.42c-.28,6.41-5.57,11.47-11.99,11.47Z"/>
            </g>
            <g>
              <path class="cls-23" d="M28.8,222.04h3.3c6.63,0,12-5.37,12-12v-92.6c0-4.42-3.58-8-8-8h-7.05c-9.12,0-16.39,7.6-15.98,16.71l3.75,84.42c.28,6.41,5.57,11.47,11.99,11.47Z"/>
              <path class="cls-15" d="M28.8,222.04h3.3c6.63,0,12-5.37,12-12v-92.6c0-4.42-3.58-8-8-8h-7.05c-9.12,0-16.39,7.6-15.98,16.71l3.75,84.42c.28,6.41,5.57,11.47,11.99,11.47Z"/>
            </g>
            <rect class="cls-23" x="35.43" y="85" width="88.46" height="112.55" rx="16" ry="16"/>
            <g class="cls-13">
              <g>
                <line class="cls-28" x1="47.74" y1="185.78" x2="47.74" y2="161.59"/>
                <line class="cls-28" x1="52.65" y1="185.78" x2="52.65" y2="161.59"/>
                <line class="cls-28" x1="57.56" y1="185.78" x2="57.56" y2="161.59"/>
                <line class="cls-28" x1="62.47" y1="185.78" x2="62.47" y2="161.59"/>
                <line class="cls-28" x1="67.38" y1="185.78" x2="67.38" y2="161.59"/>
                <line class="cls-28" x1="72.29" y1="185.78" x2="72.29" y2="161.59"/>
                <line class="cls-28" x1="77.2" y1="185.78" x2="77.2" y2="161.59"/>
                <line class="cls-28" x1="82.11" y1="185.78" x2="82.11" y2="161.59"/>
                <line class="cls-28" x1="87.02" y1="185.78" x2="87.02" y2="161.59"/>
                <line class="cls-28" x1="91.94" y1="185.78" x2="91.94" y2="161.59"/>
                <line class="cls-28" x1="96.85" y1="185.78" x2="96.85" y2="161.59"/>
                <line class="cls-28" x1="101.76" y1="185.78" x2="101.76" y2="161.59"/>
                <line class="cls-28" x1="106.67" y1="185.78" x2="106.67" y2="161.59"/>
                <line class="cls-28" x1="111.58" y1="185.78" x2="111.58" y2="161.59"/>
              </g>
              <polyline class="cls-28" points="47.74 152.59 47.74 101.12 111.58 101.12 111.58 152.59"/>
            </g>
            <g class="cls-13">
              <path class="cls-23" d="M131.07,201.04c1.1,0,2,.9,2,2v11.28c0,1.1-.9,2-2,2h-2.92c-1.1,0-2-.9-2-2v-11.28c0-1.1.9-2,2-2h2.92M131.07,200.04h-2.92c-1.65,0-3,1.35-3,3v11.28c0,1.65,1.35,3,3,3h2.92c1.65,0,3-1.35,3-3v-11.28c0-1.65-1.35-3-3-3h0Z"/>
            </g>
            <circle class="cls-31" cx="79.66" cy="101.12" r="7.61"/>
            <g class="cls-13">
              <path class="cls-23" d="M31.17,201.04c1.1,0,2,.9,2,2v11.28c0,1.1-.9,2-2,2h-2.92c-1.1,0-2-.9-2-2v-11.28c0-1.1.9-2,2-2h2.92M31.17,200.04h-2.92c-1.65,0-3,1.35-3,3v11.28c0,1.65,1.35,3,3,3h2.92c1.65,0,3-1.35,3-3v-11.28c0-1.65-1.35-3-3-3h0Z"/>
            </g>
            <rect class="cls-20" x="126.15" y="201.04" width="6.92" height="15.28" rx="2" ry="2"/>
            <rect class="cls-26" x="26.25" y="201.04" width="6.92" height="15.28" rx="2" ry="2"/>
            <g class="cls-13">
              <path class="cls-23" d="M79.66,93.51c4.21,0,7.62,3.41,7.62,7.61s-3.41,7.62-7.62,7.62-7.62-3.41-7.62-7.62,3.41-7.61,7.62-7.61M79.66,92.76c-4.61,0-8.37,3.75-8.37,8.36s3.75,8.37,8.37,8.37,8.37-3.75,8.37-8.37-3.75-8.36-8.37-8.36h0Z"/>
            </g>
          </g>
        </g>
      </g>
    </g>
  </g>
</svg>