<?xml version="1.0" encoding="UTF-8"?>
<svg xmlns="http://www.w3.org/2000/svg" xmlns:xlink="http://www.w3.org/1999/xlink" viewBox="0 0 218.31 390.08">
  <defs>
    <style>
      .cls-1 {
        fill: url(#linear-gradient-2);
      }

      .cls-1, .cls-2, .cls-3, .cls-4, .cls-5, .cls-6, .cls-7, .cls-8, .cls-9, .cls-10 {
        mix-blend-mode: multiply;
      }

      .cls-11 {
        fill: #ffb700;
      }

      .cls-2 {
        fill: url(#linear-gradient-9);
      }

      .cls-3 {
        fill: url(#linear-gradient-13);
      }

      .cls-12 {
        fill: url(#linear-gradient-12);
      }

      .cls-13 {
        fill: url(#radial-gradient);
      }

      .cls-14 {
        fill: url(#radial-gradient-3);
      }

      .cls-15 {
        fill: #828899;
      }

      .cls-16 {
        fill: url(#linear-gradient-5);
      }

      .cls-4 {
        fill: url(#linear-gradient-4);
      }

      .cls-17 {
        isolation: isolate;
      }

      .cls-5 {
        fill: url(#linear-gradient-8);
      }

      .cls-18 {
        fill: url(#radial-gradient-2);
      }

      .cls-6 {
        fill: url(#linear-gradient-10);
      }

      .cls-19 {
        stroke: #000;
        stroke-width: 2.5px;
      }

      .cls-19, .cls-9, .cls-20 {
        fill: none;
        stroke-linecap: round;
        stroke-linejoin: round;
      }

      .cls-21 {
        fill: url(#linear-gradient-7);
      }

      .cls-22 {
        fill: url(#linear-gradient-11);
      }

      .cls-8 {
        fill: url(#linear-gradient-3);
      }

      .cls-23 {
        fill: url(#linear-gradient-6);
      }

      .cls-9, .cls-20 {
        stroke: #ffb700;
      }

      .cls-24 {
        fill: url(#linear-gradient);
      }

      .cls-10 {
        fill: url(#linear-gradient-14);
      }
    </style>
    <linearGradient id="linear-gradient" x1="211.15" y1="347.65" x2="211.15" y2="362.91" gradientUnits="userSpaceOnUse">
      <stop offset=".18" stop-color="#828899"/>
      <stop offset=".49" stop-color="#828899" stop-opacity=".59"/>
      <stop offset=".84" stop-color="#828899" stop-opacity=".17"/>
      <stop offset="1" stop-color="#828899" stop-opacity="0"/>
    </linearGradient>
    <linearGradient id="linear-gradient-2" x1="-1370.59" y1="1313.17" x2="-1370.59" y2="1363.44" gradientTransform="translate(-1645.64 1124.03) rotate(111.08) scale(1 -1)" gradientUnits="userSpaceOnUse">
      <stop offset=".13" stop-color="#ffb700"/>
      <stop offset=".32" stop-color="#ffb700" stop-opacity=".76"/>
      <stop offset=".65" stop-color="#ffb700" stop-opacity=".36"/>
      <stop offset=".89" stop-color="#ffb700" stop-opacity=".1"/>
      <stop offset="1" stop-color="#ffb700" stop-opacity="0"/>
    </linearGradient>
    <linearGradient id="linear-gradient-3" x1="79.44" y1="275.54" x2="79.7" y2="252.84" gradientUnits="userSpaceOnUse">
      <stop offset=".18" stop-color="#ffb700"/>
      <stop offset=".36" stop-color="#ffb700" stop-opacity=".76"/>
      <stop offset=".68" stop-color="#ffb700" stop-opacity=".36"/>
      <stop offset=".9" stop-color="#ffb700" stop-opacity=".1"/>
      <stop offset="1" stop-color="#ffb700" stop-opacity="0"/>
    </linearGradient>
    <linearGradient id="linear-gradient-4" x1="47.17" y1="278.52" x2="112.15" y2="278.52" gradientUnits="userSpaceOnUse">
      <stop offset="0" stop-color="#ffb700"/>
      <stop offset=".02" stop-color="#ffb700" stop-opacity=".91"/>
      <stop offset=".07" stop-color="#ffb700" stop-opacity=".7"/>
      <stop offset=".13" stop-color="#ffb700" stop-opacity=".51"/>
      <stop offset=".19" stop-color="#ffb700" stop-opacity=".35"/>
      <stop offset=".24" stop-color="#ffb700" stop-opacity=".23"/>
      <stop offset=".3" stop-color="#ffb700" stop-opacity=".13"/>
      <stop offset=".36" stop-color="#ffb700" stop-opacity=".06"/>
      <stop offset=".43" stop-color="#ffb700" stop-opacity=".01"/>
      <stop offset=".5" stop-color="#ffb700" stop-opacity="0"/>
      <stop offset=".55" stop-color="#ffb700" stop-opacity=".02"/>
      <stop offset=".61" stop-color="#ffb700" stop-opacity=".08"/>
      <stop offset=".68" stop-color="#ffb700" stop-opacity=".18"/>
      <stop offset=".75" stop-color="#ffb700" stop-opacity=".32"/>
      <stop offset=".83" stop-color="#ffb700" stop-opacity=".5"/>
      <stop offset=".91" stop-color="#ffb700" stop-opacity=".72"/>
      <stop offset=".99" stop-color="#ffb700" stop-opacity=".97"/>
      <stop offset="1" stop-color="#ffb700"/>
    </linearGradient>
    <linearGradient id="linear-gradient-5" x1="54.87" y1="214.31" x2="113.33" y2="214.31" gradientUnits="userSpaceOnUse">
      <stop offset="0" stop-color="#828899"/>
      <stop offset=".06" stop-color="#828899" stop-opacity=".95"/>
      <stop offset=".15" stop-color="#828899" stop-opacity=".82"/>
      <stop offset=".26" stop-color="#828899" stop-opacity=".59"/>
      <stop offset=".39" stop-color="#828899" stop-opacity=".29"/>
      <stop offset=".49" stop-color="#828899" stop-opacity="0"/>
    </linearGradient>
    <linearGradient id="linear-gradient-6" x1="120.33" y1="-4.08" x2="120.33" y2="19.91" xlink:href="#linear-gradient"/>
    <linearGradient id="linear-gradient-7" x1="38.99" y1="-4.08" x2="38.99" y2="19.91" xlink:href="#linear-gradient"/>
    <linearGradient id="linear-gradient-8" x1="100" y1="41.57" x2="119.93" y2="41.57" gradientUnits="userSpaceOnUse">
      <stop offset=".05" stop-color="#828899"/>
      <stop offset=".37" stop-color="#828899" stop-opacity=".59"/>
      <stop offset=".71" stop-color="#828899" stop-opacity=".17"/>
      <stop offset=".88" stop-color="#828899" stop-opacity="0"/>
    </linearGradient>
    <linearGradient id="linear-gradient-9" x1="-7770.92" y1="3526.36" x2="-7750.99" y2="3526.36" gradientTransform="translate(-7711.6 3567.93) rotate(-180)" xlink:href="#linear-gradient-8"/>
    <linearGradient id="linear-gradient-10" x1="79.66" y1="87.33" x2="79.66" y2="19.01" gradientUnits="userSpaceOnUse">
      <stop offset="0" stop-color="#ffb700"/>
      <stop offset="0" stop-color="#ffb700" stop-opacity=".99"/>
      <stop offset=".13" stop-color="#ffb700" stop-opacity=".73"/>
      <stop offset=".25" stop-color="#ffb700" stop-opacity=".51"/>
      <stop offset=".36" stop-color="#ffb700" stop-opacity=".33"/>
      <stop offset=".47" stop-color="#ffb700" stop-opacity=".18"/>
      <stop offset=".57" stop-color="#ffb700" stop-opacity=".08"/>
      <stop offset=".66" stop-color="#ffb700" stop-opacity=".02"/>
      <stop offset=".73" stop-color="#ffb700" stop-opacity="0"/>
    </linearGradient>
    <linearGradient id="linear-gradient-11" x1="156.28" y1="174.85" x2="129.45" y2="174.85" gradientUnits="userSpaceOnUse">
      <stop offset="0" stop-color="#828899"/>
      <stop offset=".22" stop-color="#828899" stop-opacity=".59"/>
      <stop offset=".46" stop-color="#828899" stop-opacity=".17"/>
      <stop offset=".58" stop-color="#828899" stop-opacity="0"/>
    </linearGradient>
    <linearGradient id="linear-gradient-12" x1="-7714.11" y1="174.85" x2="-7740.94" y2="174.85" gradientTransform="translate(-7711.07) rotate(-180) scale(1 -1)" xlink:href="#linear-gradient-11"/>
    <linearGradient id="linear-gradient-13" x1="115.22" y1="165.74" x2="146.27" y2="165.74" gradientUnits="userSpaceOnUse">
      <stop offset=".09" stop-color="#ffb700"/>
      <stop offset=".22" stop-color="#ffb700" stop-opacity=".84"/>
      <stop offset=".52" stop-color="#ffb700" stop-opacity=".43"/>
      <stop offset=".81" stop-color="#ffb700" stop-opacity="0"/>
    </linearGradient>
    <linearGradient id="linear-gradient-14" x1="-7369.66" y1="165.74" x2="-7338.61" y2="165.74" gradientTransform="translate(-7325.57) rotate(-180) scale(1 -1)" xlink:href="#linear-gradient-13"/>
    <radialGradient id="radial-gradient" cx="79.66" cy="101.12" fx="79.66" fy="101.12" r="7.61" gradientUnits="userSpaceOnUse">
      <stop offset="0" stop-color="#ffb700"/>
      <stop offset="1" stop-color="#fff"/>
    </radialGradient>
    <radialGradient id="radial-gradient-2" cx="129.61" cy="208.68" fx="129.61" fy="208.68" r="14.14" gradientUnits="userSpaceOnUse">
      <stop offset="0" stop-color="#ff192e"/>
      <stop offset=".07" stop-color="#ec1528"/>
      <stop offset=".24" stop-color="#c80d1e"/>
      <stop offset=".41" stop-color="#ab0716"/>
      <stop offset=".58" stop-color="#970310"/>
      <stop offset=".74" stop-color="#8b000d"/>
      <stop offset=".91" stop-color="#87000c"/>
    </radialGradient>
    <radialGradient id="radial-gradient-3" cx="29.71" fx="29.71" r="14.14" xlink:href="#radial-gradient-2"/>
  </defs>
  <g class="cls-17">
    <g id="Layer_2" data-name="Layer 2">
      <g id="artwork">
        <g>
          <g>
            <g>
              <g>
                <rect x="203.99" y="350.24" width="14.32" height="39.84" rx="6.36" ry="6.36"/>
                <rect class="cls-24" x="203.99" y="350.24" width="14.32" height="39.84" rx="6.36" ry="6.36"/>
              </g>
              <g>
                <path d="M145.76,319.31c.01.16,0,.32-.06.46-.08.2-.21.37-.39.48-.15.1-14.89,9.77-17.22,18.99-2.39,9.47-10.54,18.77-23.34,18.19-.4-.02-.76-.28-.89-.66-.03-.06-.04-.14-.06-.21-.06-.41.14-.81.51-1.02.37-.2,9.08-5.08,12.15-15.68,1.54-5.33,4.38-9.89,8.21-13.17,5.78-4.96,12.51-7.75,20.03-8.27.54-.04,1.01.36,1.06.89Z"/>
                <path d="M183.52,332.67c-7.5.53-14.24,3.31-20.03,8.27-3.83,3.28-6.67,7.84-8.21,13.17-3.07,10.61-11.78,15.48-12.14,15.68-.36.19-.56.59-.52.98,0,.09.03.18.05.26.14.38.49.64.89.66,12.81.58,20.96-8.72,23.35-18.19,2.32-9.22,17.07-18.89,17.22-18.99.17-.12.31-.29.39-.48.05-.14.07-.3.06-.46-.06-.54-.53-.93-1.07-.89Z"/>
                <path d="M162.07,378.08c.12.42.49.71.92.73,12.8.57,20.95-8.73,23.34-18.19,2.33-9.22,17.07-18.89,17.22-18.99.18-.11.31-.29.39-.48.05-.14.07-.3.06-.46-.05-.53-.52-.93-1.06-.89-7.51.52-14.24,3.31-20.03,8.27-3.83,3.28-6.67,7.84-8.21,13.17-3.07,10.6-11.79,15.48-12.15,15.68-.37.2-.57.61-.51,1.02,0,.05.01.1.03.15Z"/>
                <path d="M164.11,325.54c-7.5.53-14.24,3.31-20.03,8.27-3.83,3.28-6.67,7.84-8.21,13.17-3.07,10.6-11.79,15.48-12.15,15.68-.36.21-.56.6-.51.99,0,.07.02.12.03.17.12.42.49.71.92.73,12.81.58,20.95-8.73,23.35-18.19,2.31-9.23,17.07-18.89,17.21-18.99.18-.11.31-.29.39-.48.05-.14.08-.3.07-.46-.06-.54-.53-.93-1.07-.89Z"/>
                <path d="M126.34,312.17c.01.16,0,.32-.06.46-.08.2-.21.37-.39.48-.15.1-14.89,9.77-17.22,18.99-2.39,9.47-10.54,18.77-23.34,18.19-.4-.02-.76-.28-.89-.66-.03-.06-.04-.14-.06-.21-.06-.41.14-.81.51-1.02.37-.2,9.08-5.08,12.15-15.68,1.54-5.33,4.38-9.89,8.21-13.17,5.78-4.96,12.51-7.75,20.03-8.27.54-.04,1.01.36,1.06.89Z"/>
              </g>
            </g>
            <g>
              <path class="cls-11" d="M210.36,364.87l-140.49-54.16c-1.03-.4-2.19.12-2.59,1.15l-2.45,6.35c-.4,1.03.12,2.19,1.15,2.59l140.49,54.16c2.79,1.07,5.91-.31,6.99-3.1h0c1.07-2.79-.31-5.91-3.1-6.99Z"/>
              <path class="cls-1" d="M210.36,364.87l-140.49-54.16c-1.03-.4-2.19.12-2.59,1.15l-2.45,6.35c-.4,1.03.12,2.19,1.15,2.59l140.49,54.16c2.79,1.07,5.91-.31,6.99-3.1h0c1.07-2.79-.31-5.91-3.1-6.99Z"/>
            </g>
            <g>
              <rect class="cls-11" x="75.84" y="238.19" width="7.64" height="36.47"/>
              <rect class="cls-8" x="75.84" y="238.19" width="7.64" height="36.47"/>
            </g>
            <g>
              <g>
                <rect class="cls-11" x="47.17" y="273.12" width="64.98" height="10.81" rx="2" ry="2"/>
                <rect class="cls-4" x="47.17" y="273.12" width="64.98" height="10.81" rx="2" ry="2"/>
              </g>
              <g>
                <g>
                  <path class="cls-11" d="M85.32,316.71l21.87-41.98c.52-.99,1.54-1.61,2.66-1.61h4.04c2.25,0,3.7,2.39,2.66,4.39l-21.87,41.98c-.52.99-1.54,1.61-2.66,1.61h-4.04c-2.25,0-3.7-2.39-2.66-4.39Z"/>
                  <path class="cls-11" d="M73.99,316.71l-21.87-41.98c-.52-.99-1.54-1.61-2.66-1.61h-4.04c-2.25,0-3.7,2.39-2.66,4.39l21.87,41.98c.52.99,1.54,1.61,2.66,1.61h4.04c2.25,0,3.7-2.39,2.66-4.39Z"/>
                </g>
                <rect class="cls-11" x="68.17" y="310.28" width="22.98" height="10.81" rx="2" ry="2"/>
                <circle class="cls-9" cx="69.03" cy="315.69" r="2.53"/>
              </g>
            </g>
            <circle class="cls-9" cx="208.38" cy="369.99" r="2.35"/>
          </g>
          <g>
            <path d="M51.21,186.61h56.89v11.31c0,6-4.87,10.87-10.87,10.87h-35.15c-6,0-10.87-4.87-10.87-10.87v-11.31h0Z"/>
            <rect x="75.84" y="203.43" width="7.64" height="34.12"/>
            <rect x="71.54" y="235.42" width="16.23" height="6.59" rx="3.29" ry="3.29"/>
            <path class="cls-16" d="M108.1,186.61v11.31c0,6-4.87,10.87-10.87,10.87h-13.76v26.64h1.01c1.81,0,3.29,1.47,3.29,3.29,0,.91-.37,1.73-.97,2.33-.59.59-1.42.96-2.32.96h-9.65c-1.82,0-3.29-1.47-3.29-3.29,0-.91.37-1.73.96-2.33.6-.59,1.42-.96,2.33-.96h1v-26.64h-13.75c-6,0-10.87-4.87-10.87-10.87v-11.31h56.89Z"/>
            <g>
              <g>
                <g>
                  <line class="cls-19" x1="100.32" y1="80.56" x2="136.04" y2="80.56"/>
                  <path d="M146.59,88.04l-9.14-3.44c-1.45-.55-2.37-1.98-2.26-3.53h0c.15-2.14,2.16-3.64,4.25-3.18l9.24,2.05c1.7.38,2.86,1.94,2.74,3.67l-.1,1.39c-.16,2.34-2.54,3.86-4.73,3.04Z"/>
                </g>
                <g>
                  <line class="cls-19" x1="59" y1="80.56" x2="23.28" y2="80.56"/>
                  <path d="M12.73,88.04l9.14-3.44c1.45-.55,2.37-1.98,2.26-3.53h0c-.15-2.14-2.16-3.64-4.25-3.18l-9.24,2.05c-1.7.38-2.86,1.94-2.74,3.67l.1,1.39c.16,2.34,2.54,3.86,4.73,3.04Z"/>
                </g>
              </g>
              <g>
                <rect x="109.07" y="0" width="22.51" height="62.62" rx="10" ry="10"/>
                <rect class="cls-23" x="109.07" y="0" width="22.51" height="62.62" rx="10" ry="10"/>
              </g>
              <g>
                <rect x="27.73" y="0" width="22.51" height="62.62" rx="10" ry="10"/>
                <rect class="cls-21" x="27.73" y="0" width="22.51" height="62.62" rx="10" ry="10"/>
              </g>
              <g>
                <rect class="cls-15" x="100" y="17.13" width="19.92" height="48.89" rx="6" ry="6"/>
                <rect class="cls-5" x="100" y="17.13" width="19.92" height="48.89" rx="6" ry="6"/>
              </g>
              <g>
                <rect class="cls-15" x="39.39" y="17.13" width="19.92" height="48.89" rx="6" ry="6"/>
                <rect class="cls-2" x="39.39" y="17.13" width="19.92" height="48.89" rx="6" ry="6"/>
              </g>
              <g>
                <path class="cls-11" d="M106.37,77.27V17.68c0-1.01-.76-2.3-1.71-2.84-15.53-8.71-34.49-8.71-50.01,0-.95.53-1.7,1.83-1.71,2.84v59.59c0,3.88-2.5,7.17-5.98,8.34h65.39c-3.48-1.18-5.98-4.47-5.98-8.34Z"/>
                <path class="cls-6" d="M106.37,77.27V17.68c0-1.01-.76-2.3-1.71-2.84-15.53-8.71-34.49-8.71-50.01,0-.95.53-1.7,1.83-1.71,2.84v59.59c0,3.88-2.5,7.17-5.98,8.34h65.39c-3.48-1.18-5.98-4.47-5.98-8.34Z"/>
              </g>
              <g>
                <rect x="121.53" y="122.95" width="35.19" height="107.28" rx="9.72" ry="9.72"/>
                <path class="cls-22" d="M155.99,138.01l-25.43-9.25c-.98-.36-1.63-1.29-1.63-2.33h0c0-1.72,1.71-2.91,3.32-2.33l25.43,9.25c.98.36,1.63,1.29,1.63,2.33h0c0,1.72-1.71,2.91-3.32,2.33ZM159.32,150.28h0c0-1.04-.65-1.97-1.63-2.33l-25.43-9.25c-1.61-.59-3.32.61-3.32,2.33h0c0,1.04.65,1.97,1.63,2.33l25.43,9.25c1.61.59,3.32-.61,3.32-2.33ZM159.32,164.88h0c0-1.04-.65-1.97-1.63-2.33l-25.43-9.25c-1.61-.59-3.32.61-3.32,2.33h0c0,1.04.65,1.97,1.63,2.33l25.43,9.25c1.61.59,3.32-.61,3.32-2.33ZM159.32,179.48h0c0-1.04-.65-1.97-1.63-2.33l-25.43-9.25c-1.61-.59-3.32.61-3.32,2.33h0c0,1.04.65,1.97,1.63,2.33l25.43,9.25c1.61.59,3.32-.61,3.32-2.33ZM159.32,194.07h0c0-1.04-.65-1.97-1.63-2.33l-25.43-9.25c-1.61-.59-3.32.61-3.32,2.33h0c0,1.04.65,1.97,1.63,2.33l25.43,9.25c1.61.59,3.32-.61,3.32-2.33ZM159.32,208.67h0c0-1.04-.65-1.97-1.63-2.33l-25.43-9.25c-1.61-.59-3.32.61-3.32,2.33h0c0,1.04.65,1.97,1.63,2.33l25.43,9.25c1.61.59,3.32-.61,3.32-2.33ZM159.32,223.27h0c0-1.04-.65-1.97-1.63-2.33l-25.43-9.25c-1.61-.59-3.32.61-3.32,2.33h0c0,1.04.65,1.97,1.63,2.33l25.43,9.25c1.61.59,3.32-.61,3.32-2.33Z"/>
              </g>
              <g>
                <rect x="2.59" y="122.95" width="35.19" height="107.28" rx="9.72" ry="9.72"/>
                <path class="cls-12" d="M0,135.68H0c0-1.04.65-1.97,1.63-2.33l25.43-9.25c1.61-.59,3.32.61,3.32,2.33h0c0,1.04-.65,1.97-1.63,2.33l-25.43,9.25C1.71,138.6,0,137.4,0,135.68ZM3.32,152.61l25.43-9.25c.98-.36,1.63-1.29,1.63-2.33h0c0-1.72-1.71-2.91-3.32-2.33l-25.43,9.25C.65,148.31,0,149.24,0,150.28H0c0,1.72,1.71,2.91,3.32,2.33ZM3.32,167.21l25.43-9.25c.98-.36,1.63-1.29,1.63-2.33h0c0-1.72-1.71-2.91-3.32-2.33l-25.43,9.25C.65,162.91,0,163.84,0,164.88H0c0,1.72,1.71,2.91,3.32,2.33ZM3.32,181.8l25.43-9.25c.98-.36,1.63-1.29,1.63-2.33h0c0-1.72-1.71-2.91-3.32-2.33l-25.43,9.25C.65,177.51,0,178.44,0,179.48H0c0,1.72,1.71,2.91,3.32,2.33ZM3.32,196.4l25.43-9.25c.98-.36,1.63-1.29,1.63-2.33h0c0-1.72-1.71-2.91-3.32-2.33l-25.43,9.25C.65,192.1,0,193.03,0,194.07H0c0,1.72,1.71,2.91,3.32,2.33ZM3.32,211l25.43-9.25c.98-.36,1.63-1.29,1.63-2.33h0c0-1.72-1.71-2.91-3.32-2.33l-25.43,9.25C.65,206.7,0,207.63,0,208.67H0c0,1.72,1.71,2.91,3.32,2.33ZM3.32,225.6l25.43-9.25c.98-.36,1.63-1.29,1.63-2.33h0c0-1.72-1.71-2.91-3.32-2.33l-25.43,9.25C.65,221.3,0,222.23,0,223.27h0c0,1.72,1.71,2.91,3.32,2.33Z"/>
              </g>
              <g>
                <path class="cls-11" d="M130.52,222.04h-3.3c-6.63,0-12-5.37-12-12v-92.6c0-4.42,3.58-8,8-8h7.05c9.12,0,16.39,7.6,15.98,16.71l-3.75,84.42c-.28,6.41-5.57,11.47-11.99,11.47Z"/>
                <path class="cls-3" d="M130.52,222.04h-3.3c-6.63,0-12-5.37-12-12v-92.6c0-4.42,3.58-8,8-8h7.05c9.12,0,16.39,7.6,15.98,16.71l-3.75,84.42c-.28,6.41-5.57,11.47-11.99,11.47Z"/>
              </g>
              <g>
                <path class="cls-11" d="M28.8,222.04h3.3c6.63,0,12-5.37,12-12v-92.6c0-4.42-3.58-8-8-8h-7.05c-9.12,0-16.39,7.6-15.98,16.71l3.75,84.42c.28,6.41,5.57,11.47,11.99,11.47Z"/>
                <path class="cls-10" d="M28.8,222.04h3.3c6.63,0,12-5.37,12-12v-92.6c0-4.42-3.58-8-8-8h-7.05c-9.12,0-16.39,7.6-15.98,16.71l3.75,84.42c.28,6.41,5.57,11.47,11.99,11.47Z"/>
              </g>
              <rect class="cls-11" x="35.43" y="85" width="88.46" height="112.55" rx="16" ry="16"/>
              <g class="cls-7">
                <g>
                  <line class="cls-20" x1="47.74" y1="185.78" x2="47.74" y2="161.59"/>
                  <line class="cls-20" x1="52.65" y1="185.78" x2="52.65" y2="161.59"/>
                  <line class="cls-20" x1="57.56" y1="185.78" x2="57.56" y2="161.59"/>
                  <line class="cls-20" x1="62.47" y1="185.78" x2="62.47" y2="161.59"/>
                  <line class="cls-20" x1="67.38" y1="185.78" x2="67.38" y2="161.59"/>
                  <line class="cls-20" x1="72.29" y1="185.78" x2="72.29" y2="161.59"/>
                  <line class="cls-20" x1="77.2" y1="185.78" x2="77.2" y2="161.59"/>
                  <line class="cls-20" x1="82.11" y1="185.78" x2="82.11" y2="161.59"/>
                  <line class="cls-20" x1="87.02" y1="185.78" x2="87.02" y2="161.59"/>
                  <line class="cls-20" x1="91.94" y1="185.78" x2="91.94" y2="161.59"/>
                  <line class="cls-20" x1="96.85" y1="185.78" x2="96.85" y2="161.59"/>
                  <line class="cls-20" x1="101.76" y1="185.78" x2="101.76" y2="161.59"/>
                  <line class="cls-20" x1="106.67" y1="185.78" x2="106.67" y2="161.59"/>
                  <line class="cls-20" x1="111.58" y1="185.78" x2="111.58" y2="161.59"/>
                </g>
                <polyline class="cls-20" points="47.74 152.59 47.74 101.12 111.58 101.12 111.58 152.59"/>
              </g>
              <g class="cls-7">
                <path class="cls-11" d="M131.07,201.04c1.1,0,2,.9,2,2v11.28c0,1.1-.9,2-2,2h-2.92c-1.1,0-2-.9-2-2v-11.28c0-1.1.9-2,2-2h2.92M131.07,200.04h-2.92c-1.65,0-3,1.35-3,3v11.28c0,1.65,1.35,3,3,3h2.92c1.65,0,3-1.35,3-3v-11.28c0-1.65-1.35-3-3-3h0Z"/>
              </g>
              <circle class="cls-13" cx="79.66" cy="101.12" r="7.61"/>
              <g class="cls-7">
                <path class="cls-11" d="M31.17,201.04c1.1,0,2,.9,2,2v11.28c0,1.1-.9,2-2,2h-2.92c-1.1,0-2-.9-2-2v-11.28c0-1.1.9-2,2-2h2.92M31.17,200.04h-2.92c-1.65,0-3,1.35-3,3v11.28c0,1.65,1.35,3,3,3h2.92c1.65,0,3-1.35,3-3v-11.28c0-1.65-1.35-3-3-3h0Z"/>
              </g>
              <rect class="cls-18" x="126.15" y="201.04" width="6.92" height="15.28" rx="2" ry="2"/>
              <rect class="cls-14" x="26.25" y="201.04" width="6.92" height="15.28" rx="2" ry="2"/>
              <g class="cls-7">
                <path class="cls-11" d="M79.66,93.51c4.21,0,7.62,3.41,7.62,7.61s-3.41,7.61-7.62,7.61-7.61-3.41-7.61-7.61,3.41-7.61,7.61-7.61M79.66,92.76c-4.61,0-8.36,3.75-8.36,8.36s3.75,8.36,8.36,8.36,8.37-3.75,8.37-8.36-3.75-8.36-8.37-8.36h0Z"/>
              </g>
            </g>
          </g>
        </g>
      </g>
    </g>
  </g>
</svg>