<?xml version="1.0" encoding="UTF-8"?>
<svg xmlns="http://www.w3.org/2000/svg" xmlns:xlink="http://www.w3.org/1999/xlink" viewBox="0 0 167.2 335.17">
  <defs>
    <style>
      .cls-1 {
        stroke-width: 5px;
      }

      .cls-1, .cls-2 {
        stroke-miterlimit: 10;
      }

      .cls-1, .cls-3, .cls-4 {
        fill: none;
      }

      .cls-1, .cls-4 {
        stroke: #ffb700;
      }

      .cls-5 {
        fill: #ffb700;
      }

      .cls-6 {
        fill: url(#linear-gradient-2);
      }

      .cls-7 {
        fill: url(#linear-gradient-4);
      }

      .cls-2, .cls-3 {
        stroke: #000;
      }

      .cls-8 {
        fill: url(#radial-gradient);
      }

      .cls-9 {
        fill: url(#radial-gradient-3);
      }

      .cls-10 {
        fill: #828899;
      }

      .cls-11 {
        fill: url(#linear-gradient-3);
      }

      .cls-12 {
        isolation: isolate;
      }

      .cls-13 {
        fill: url(#linear-gradient-8);
      }

      .cls-14 {
        fill: url(#radial-gradient-2);
      }

      .cls-15 {
        fill: url(#linear-gradient-10);
      }

      .cls-15, .cls-16, .cls-17, .cls-18, .cls-19, .cls-20, .cls-21 {
        mix-blend-mode: multiply;
      }

      .cls-3 {
        stroke-width: 2.5px;
      }

      .cls-3, .cls-4 {
        stroke-linecap: round;
        stroke-linejoin: round;
      }

      .cls-16 {
        fill: url(#linear-gradient-5);
      }

      .cls-22 {
        fill: url(#linear-gradient-9);
      }

      .cls-17 {
        fill: url(#linear-gradient-11);
      }

      .cls-19 {
        fill: url(#linear-gradient);
      }

      .cls-20 {
        fill: url(#linear-gradient-6);
      }

      .cls-21 {
        fill: url(#linear-gradient-7);
      }
    </style>
    <linearGradient id="linear-gradient" x1="669.38" y1="3558.28" x2="669.52" y2="3546.15" gradientTransform="translate(753.1 3795.98) rotate(-180)" gradientUnits="userSpaceOnUse">
      <stop offset=".18" stop-color="#ffb700"/>
      <stop offset=".36" stop-color="#ffb700" stop-opacity=".76"/>
      <stop offset=".68" stop-color="#ffb700" stop-opacity=".36"/>
      <stop offset=".9" stop-color="#ffb700" stop-opacity=".1"/>
      <stop offset="1" stop-color="#ffb700" stop-opacity="0"/>
    </linearGradient>
    <linearGradient id="linear-gradient-2" x1="58.81" y1="214.31" x2="117.28" y2="214.31" gradientUnits="userSpaceOnUse">
      <stop offset="0" stop-color="#828899"/>
      <stop offset=".06" stop-color="#828899" stop-opacity=".95"/>
      <stop offset=".15" stop-color="#828899" stop-opacity=".82"/>
      <stop offset=".26" stop-color="#828899" stop-opacity=".59"/>
      <stop offset=".39" stop-color="#828899" stop-opacity=".29"/>
      <stop offset=".49" stop-color="#828899" stop-opacity="0"/>
    </linearGradient>
    <linearGradient id="linear-gradient-3" x1="124.27" y1="-4.08" x2="124.27" y2="19.91" gradientUnits="userSpaceOnUse">
      <stop offset=".18" stop-color="#828899"/>
      <stop offset=".49" stop-color="#828899" stop-opacity=".59"/>
      <stop offset=".84" stop-color="#828899" stop-opacity=".17"/>
      <stop offset="1" stop-color="#828899" stop-opacity="0"/>
    </linearGradient>
    <linearGradient id="linear-gradient-4" x1="42.93" x2="42.93" xlink:href="#linear-gradient-3"/>
    <linearGradient id="linear-gradient-5" x1="103.94" y1="41.57" x2="123.87" y2="41.57" gradientUnits="userSpaceOnUse">
      <stop offset=".05" stop-color="#828899"/>
      <stop offset=".37" stop-color="#828899" stop-opacity=".59"/>
      <stop offset=".71" stop-color="#828899" stop-opacity=".17"/>
      <stop offset=".88" stop-color="#828899" stop-opacity="0"/>
    </linearGradient>
    <linearGradient id="linear-gradient-6" x1="-11706.97" y1="3476.51" x2="-11687.05" y2="3476.51" gradientTransform="translate(-11643.72 3518.08) rotate(-180)" xlink:href="#linear-gradient-5"/>
    <linearGradient id="linear-gradient-7" x1="83.6" y1="87.33" x2="83.6" y2="19.01" gradientUnits="userSpaceOnUse">
      <stop offset="0" stop-color="#ffb700"/>
      <stop offset="0" stop-color="#ffb700" stop-opacity=".99"/>
      <stop offset=".13" stop-color="#ffb700" stop-opacity=".73"/>
      <stop offset=".25" stop-color="#ffb700" stop-opacity=".51"/>
      <stop offset=".36" stop-color="#ffb700" stop-opacity=".33"/>
      <stop offset=".47" stop-color="#ffb700" stop-opacity=".18"/>
      <stop offset=".57" stop-color="#ffb700" stop-opacity=".08"/>
      <stop offset=".66" stop-color="#ffb700" stop-opacity=".02"/>
      <stop offset=".73" stop-color="#ffb700" stop-opacity="0"/>
    </linearGradient>
    <linearGradient id="linear-gradient-8" x1="160.22" y1="174.85" x2="133.39" y2="174.85" gradientUnits="userSpaceOnUse">
      <stop offset="0" stop-color="#828899"/>
      <stop offset=".22" stop-color="#828899" stop-opacity=".59"/>
      <stop offset=".46" stop-color="#828899" stop-opacity=".17"/>
      <stop offset=".58" stop-color="#828899" stop-opacity="0"/>
    </linearGradient>
    <linearGradient id="linear-gradient-9" x1="-11650.17" y1="174.85" x2="-11676.99" y2="174.85" gradientTransform="translate(-11643.19) rotate(-180) scale(1 -1)" xlink:href="#linear-gradient-8"/>
    <linearGradient id="linear-gradient-10" x1="119.16" y1="165.74" x2="150.21" y2="165.74" gradientUnits="userSpaceOnUse">
      <stop offset=".09" stop-color="#ffb700"/>
      <stop offset=".22" stop-color="#ffb700" stop-opacity=".84"/>
      <stop offset=".52" stop-color="#ffb700" stop-opacity=".43"/>
      <stop offset=".81" stop-color="#ffb700" stop-opacity="0"/>
    </linearGradient>
    <linearGradient id="linear-gradient-11" x1="-11305.72" y1="165.74" x2="-11274.67" y2="165.74" gradientTransform="translate(-11257.68) rotate(-180) scale(1 -1)" xlink:href="#linear-gradient-10"/>
    <radialGradient id="radial-gradient" cx="83.6" cy="101.12" fx="83.6" fy="101.12" r="7.61" gradientUnits="userSpaceOnUse">
      <stop offset="0" stop-color="#ffb700"/>
      <stop offset="1" stop-color="#fff"/>
    </radialGradient>
    <radialGradient id="radial-gradient-2" cx="133.55" cy="208.68" fx="133.55" fy="208.68" r="14.14" gradientUnits="userSpaceOnUse">
      <stop offset="0" stop-color="#ff192e"/>
      <stop offset=".07" stop-color="#ec1528"/>
      <stop offset=".24" stop-color="#c80d1e"/>
      <stop offset=".41" stop-color="#ab0716"/>
      <stop offset=".58" stop-color="#970310"/>
      <stop offset=".74" stop-color="#8b000d"/>
      <stop offset=".91" stop-color="#87000c"/>
    </radialGradient>
    <radialGradient id="radial-gradient-3" cx="33.65" fx="33.65" r="14.14" xlink:href="#radial-gradient-2"/>
  </defs>
  <g class="cls-12">
    <g id="Layer_2" data-name="Layer 2">
      <g id="artwork">
        <g>
          <g>
            <g>
              <g>
                <path class="cls-2" d="M24.23,265.29h0c-.82,0-1.51.61-1.62,1.42l-3.28,25.45h9.79l-3.28-25.45c-.1-.81-.8-1.42-1.62-1.42Z"/>
                <path class="cls-2" d="M142.97,265.29h0c-.82,0-1.51.61-1.62,1.42l-3.28,25.45h9.79l-3.28-25.45c-.1-.81-.8-1.42-1.62-1.42Z"/>
                <path class="cls-2" d="M106.72,265.29h0c-.82,0-1.51.61-1.62,1.42l-3.28,25.45h9.79l-3.28-25.45c-.1-.81-.8-1.42-1.62-1.42Z"/>
                <path class="cls-2" d="M60.48,265.29h0c-.82,0-1.51.61-1.62,1.42l-3.28,25.45h9.79l-3.28-25.45c-.1-.81-.8-1.42-1.62-1.42Z"/>
              </g>
              <g>
                <rect class="cls-5" x="79.78" y="238.19" width="7.64" height="19.46"/>
                <rect class="cls-19" x="79.78" y="238.19" width="7.64" height="19.46"/>
              </g>
              <rect class="cls-5" x="6.11" y="286.04" width="154.98" height="10.81" rx="2" ry="2"/>
              <g>
                <g>
                  <path class="cls-2" d="M119.84,303.61h0c-.82,0-1.51.61-1.62,1.42l-3.28,25.45h9.79l-3.28-25.45c-.1-.81-.8-1.42-1.62-1.42Z"/>
                  <path class="cls-2" d="M83.6,303.61h0c-.82,0-1.51.61-1.62,1.42l-3.28,25.45h9.79l-3.28-25.45c-.1-.81-.8-1.42-1.62-1.42Z"/>
                  <path class="cls-2" d="M47.36,303.61h0c-.82,0-1.51.61-1.62,1.42l-3.28,25.45h9.79l-3.28-25.45c-.1-.81-.8-1.42-1.62-1.42Z"/>
                </g>
                <rect class="cls-5" x="16.11" y="324.36" width="134.98" height="10.81" rx="2" ry="2"/>
              </g>
              <g>
                <path class="cls-5" d="M141.55,331.16l15.38-43.13c.43-1.19,1.56-1.99,2.83-1.99h4.44c2.07,0,3.52,2.05,2.83,4.01l-15.38,43.13c-.43,1.19-1.56,1.99-2.83,1.99h-4.44c-2.07,0-3.52-2.05-2.83-4.01Z"/>
                <path class="cls-5" d="M25.65,331.16l-15.38-43.13c-.43-1.19-1.56-1.99-2.83-1.99H3c-2.07,0-3.52,2.05-2.83,4.01l15.38,43.13c.43,1.19,1.56,1.99,2.83,1.99h4.44c2.07,0,3.52-2.05,2.83-4.01Z"/>
              </g>
              <path class="cls-1" d="M129.13,288.04l-12.42-28.09c-.96-2.17-3.11-3.57-5.49-3.57h-55.24c-2.38,0-4.53,1.4-5.49,3.57l-12.42,28.09"/>
              <line class="cls-1" x1="83.6" y1="257.64" x2="83.6" y2="287.81"/>
              <line class="cls-1" x1="101.72" y1="294.82" x2="101.72" y2="330.49"/>
              <line class="cls-1" x1="65.48" y1="294.82" x2="65.48" y2="330.49"/>
            </g>
            <g>
              <rect x="79.78" y="203.43" width="7.64" height="34.12"/>
              <rect x="75.49" y="235.42" width="16.23" height="6.59" rx="3.29" ry="3.29"/>
              <path d="M55.16,186.61h56.89v11.31c0,6-4.87,10.87-10.87,10.87h-35.15c-6,0-10.87-4.87-10.87-10.87v-11.31h0Z"/>
              <path class="cls-6" d="M112.05,186.61v11.31c0,6-4.87,10.87-10.87,10.87h-13.76v26.64h1.01c1.81,0,3.29,1.47,3.29,3.29,0,.91-.37,1.73-.97,2.33-.59.59-1.42.96-2.32.96h-9.65c-1.82,0-3.29-1.47-3.29-3.29,0-.91.37-1.73.96-2.33.6-.59,1.42-.96,2.33-.96h1v-26.64h-13.75c-6,0-10.87-4.87-10.87-10.87v-11.31h56.89Z"/>
            </g>
          </g>
          <g>
            <g>
              <line class="cls-3" x1="104.26" y1="80.56" x2="139.98" y2="80.56"/>
              <path d="M150.53,88.04l-9.14-3.44c-1.45-.55-2.37-1.98-2.26-3.53h0c.15-2.14,2.16-3.64,4.25-3.18l9.24,2.05c1.7.38,2.86,1.94,2.74,3.67l-.1,1.39c-.16,2.34-2.54,3.86-4.73,3.04Z"/>
            </g>
            <g>
              <line class="cls-3" x1="62.94" y1="80.56" x2="27.22" y2="80.56"/>
              <path d="M16.67,88.04l9.14-3.44c1.45-.55,2.37-1.98,2.26-3.53h0c-.15-2.14-2.16-3.64-4.25-3.18l-9.24,2.05c-1.7.38-2.86,1.94-2.74,3.67l.1,1.39c.16,2.34,2.54,3.86,4.73,3.04Z"/>
            </g>
          </g>
          <g>
            <rect x="113.01" y="0" width="22.51" height="62.62" rx="10" ry="10"/>
            <rect class="cls-11" x="113.01" y="0" width="22.51" height="62.62" rx="10" ry="10"/>
          </g>
          <g>
            <rect x="31.67" y="0" width="22.51" height="62.62" rx="10" ry="10"/>
            <rect class="cls-7" x="31.67" y="0" width="22.51" height="62.62" rx="10" ry="10"/>
          </g>
          <g>
            <rect class="cls-10" x="103.94" y="17.13" width="19.92" height="48.89" rx="6" ry="6"/>
            <rect class="cls-16" x="103.94" y="17.13" width="19.92" height="48.89" rx="6" ry="6"/>
          </g>
          <g>
            <rect class="cls-10" x="43.33" y="17.13" width="19.92" height="48.89" rx="6" ry="6"/>
            <rect class="cls-20" x="43.33" y="17.13" width="19.92" height="48.89" rx="6" ry="6"/>
          </g>
          <g>
            <path class="cls-5" d="M110.31,77.27V17.68c0-1.01-.76-2.3-1.71-2.84-15.53-8.71-34.49-8.71-50.01,0-.95.53-1.7,1.83-1.71,2.84v59.59c0,3.88-2.5,7.17-5.98,8.34h65.39c-3.48-1.18-5.98-4.47-5.98-8.34Z"/>
            <path class="cls-21" d="M110.31,77.27V17.68c0-1.01-.76-2.3-1.71-2.84-15.53-8.71-34.49-8.71-50.01,0-.95.53-1.7,1.83-1.71,2.84v59.59c0,3.88-2.5,7.17-5.98,8.34h65.39c-3.48-1.18-5.98-4.47-5.98-8.34Z"/>
          </g>
          <g>
            <rect x="125.47" y="122.95" width="35.19" height="107.28" rx="9.72" ry="9.72"/>
            <path class="cls-13" d="M159.94,138.01l-25.43-9.25c-.98-.36-1.63-1.29-1.63-2.33h0c0-1.72,1.71-2.91,3.32-2.33l25.43,9.25c.98.36,1.63,1.29,1.63,2.33h0c0,1.72-1.71,2.91-3.32,2.33ZM163.26,150.28h0c0-1.04-.65-1.97-1.63-2.33l-25.43-9.25c-1.61-.59-3.32.61-3.32,2.33h0c0,1.04.65,1.97,1.63,2.33l25.43,9.25c1.61.59,3.32-.61,3.32-2.33ZM163.26,164.88h0c0-1.04-.65-1.97-1.63-2.33l-25.43-9.25c-1.61-.59-3.32.61-3.32,2.33h0c0,1.04.65,1.97,1.63,2.33l25.43,9.25c1.61.59,3.32-.61,3.32-2.33ZM163.26,179.48h0c0-1.04-.65-1.97-1.63-2.33l-25.43-9.25c-1.61-.59-3.32.61-3.32,2.33h0c0,1.04.65,1.97,1.63,2.33l25.43,9.25c1.61.59,3.32-.61,3.32-2.33ZM163.26,194.07h0c0-1.04-.65-1.97-1.63-2.33l-25.43-9.25c-1.61-.59-3.32.61-3.32,2.33h0c0,1.04.65,1.97,1.63,2.33l25.43,9.25c1.61.59,3.32-.61,3.32-2.33ZM163.26,208.67h0c0-1.04-.65-1.97-1.63-2.33l-25.43-9.25c-1.61-.59-3.32.61-3.32,2.33h0c0,1.04.65,1.97,1.63,2.33l25.43,9.25c1.61.59,3.32-.61,3.32-2.33ZM163.26,223.27h0c0-1.04-.65-1.97-1.63-2.33l-25.43-9.25c-1.61-.59-3.32.61-3.32,2.33h0c0,1.04.65,1.97,1.63,2.33l25.43,9.25c1.61.59,3.32-.61,3.32-2.33Z"/>
          </g>
          <g>
            <rect x="6.53" y="122.95" width="35.19" height="107.28" rx="9.72" ry="9.72"/>
            <path class="cls-22" d="M3.94,135.68h0c0-1.04.65-1.97,1.63-2.33l25.43-9.25c1.61-.59,3.32.61,3.32,2.33h0c0,1.04-.65,1.97-1.63,2.33l-25.43,9.25c-1.61.59-3.32-.61-3.32-2.33ZM7.26,152.61l25.43-9.25c.98-.36,1.63-1.29,1.63-2.33h0c0-1.72-1.71-2.91-3.32-2.33l-25.43,9.25c-.98.36-1.63,1.29-1.63,2.33h0c0,1.72,1.71,2.91,3.32,2.33ZM7.26,167.21l25.43-9.25c.98-.36,1.63-1.29,1.63-2.33h0c0-1.72-1.71-2.91-3.32-2.33l-25.43,9.25c-.98.36-1.63,1.29-1.63,2.33h0c0,1.72,1.71,2.91,3.32,2.33ZM7.26,181.8l25.43-9.25c.98-.36,1.63-1.29,1.63-2.33h0c0-1.72-1.71-2.91-3.32-2.33l-25.43,9.25c-.98.36-1.63,1.29-1.63,2.33h0c0,1.72,1.71,2.91,3.32,2.33ZM7.26,196.4l25.43-9.25c.98-.36,1.63-1.29,1.63-2.33h0c0-1.72-1.71-2.91-3.32-2.33l-25.43,9.25c-.98.36-1.63,1.29-1.63,2.33h0c0,1.72,1.71,2.91,3.32,2.33ZM7.26,211l25.43-9.25c.98-.36,1.63-1.29,1.63-2.33h0c0-1.72-1.71-2.91-3.32-2.33l-25.43,9.25c-.98.36-1.63,1.29-1.63,2.33h0c0,1.72,1.71,2.91,3.32,2.33ZM7.26,225.6l25.43-9.25c.98-.36,1.63-1.29,1.63-2.33h0c0-1.72-1.71-2.91-3.32-2.33l-25.43,9.25c-.98.36-1.63,1.29-1.63,2.33h0c0,1.72,1.71,2.91,3.32,2.33Z"/>
          </g>
          <g>
            <path class="cls-5" d="M134.46,222.04h-3.3c-6.63,0-12-5.37-12-12v-92.6c0-4.42,3.58-8,8-8h7.05c9.12,0,16.39,7.6,15.98,16.71l-3.75,84.42c-.28,6.41-5.57,11.47-11.99,11.47Z"/>
            <path class="cls-15" d="M134.46,222.04h-3.3c-6.63,0-12-5.37-12-12v-92.6c0-4.42,3.58-8,8-8h7.05c9.12,0,16.39,7.6,15.98,16.71l-3.75,84.42c-.28,6.41-5.57,11.47-11.99,11.47Z"/>
          </g>
          <g>
            <path class="cls-5" d="M32.74,222.04h3.3c6.63,0,12-5.37,12-12v-92.6c0-4.42-3.58-8-8-8h-7.05c-9.12,0-16.39,7.6-15.98,16.71l3.75,84.42c.28,6.41,5.57,11.47,11.99,11.47Z"/>
            <path class="cls-17" d="M32.74,222.04h3.3c6.63,0,12-5.37,12-12v-92.6c0-4.42-3.58-8-8-8h-7.05c-9.12,0-16.39,7.6-15.98,16.71l3.75,84.42c.28,6.41,5.57,11.47,11.99,11.47Z"/>
          </g>
          <rect class="cls-5" x="39.37" y="85" width="88.46" height="112.55" rx="16" ry="16"/>
          <g class="cls-18">
            <g>
              <line class="cls-4" x1="51.68" y1="185.78" x2="51.68" y2="161.59"/>
              <line class="cls-4" x1="56.59" y1="185.78" x2="56.59" y2="161.59"/>
              <line class="cls-4" x1="61.5" y1="185.78" x2="61.5" y2="161.59"/>
              <line class="cls-4" x1="66.41" y1="185.78" x2="66.41" y2="161.59"/>
              <line class="cls-4" x1="71.32" y1="185.78" x2="71.32" y2="161.59"/>
              <line class="cls-4" x1="76.23" y1="185.78" x2="76.23" y2="161.59"/>
              <line class="cls-4" x1="81.14" y1="185.78" x2="81.14" y2="161.59"/>
              <line class="cls-4" x1="86.06" y1="185.78" x2="86.06" y2="161.59"/>
              <line class="cls-4" x1="90.97" y1="185.78" x2="90.97" y2="161.59"/>
              <line class="cls-4" x1="95.88" y1="185.78" x2="95.88" y2="161.59"/>
              <line class="cls-4" x1="100.79" y1="185.78" x2="100.79" y2="161.59"/>
              <line class="cls-4" x1="105.7" y1="185.78" x2="105.7" y2="161.59"/>
              <line class="cls-4" x1="110.61" y1="185.78" x2="110.61" y2="161.59"/>
              <line class="cls-4" x1="115.52" y1="185.78" x2="115.52" y2="161.59"/>
            </g>
            <polyline class="cls-4" points="51.68 152.59 51.68 101.12 115.52 101.12 115.52 152.59"/>
          </g>
          <g class="cls-18">
            <path class="cls-5" d="M135.01,201.04c1.1,0,2,.9,2,2v11.28c0,1.1-.9,2-2,2h-2.92c-1.1,0-2-.9-2-2v-11.28c0-1.1.9-2,2-2h2.92M135.01,200.04h-2.92c-1.65,0-3,1.35-3,3v11.28c0,1.65,1.35,3,3,3h2.92c1.65,0,3-1.35,3-3v-11.28c0-1.65-1.35-3-3-3h0Z"/>
          </g>
          <circle class="cls-8" cx="83.6" cy="101.12" r="7.61"/>
          <g class="cls-18">
            <path class="cls-5" d="M35.11,201.04c1.1,0,2,.9,2,2v11.28c0,1.1-.9,2-2,2h-2.92c-1.1,0-2-.9-2-2v-11.28c0-1.1.9-2,2-2h2.92M35.11,200.04h-2.92c-1.65,0-3,1.35-3,3v11.28c0,1.65,1.35,3,3,3h2.92c1.65,0,3-1.35,3-3v-11.28c0-1.65-1.35-3-3-3h0Z"/>
          </g>
          <rect class="cls-14" x="130.09" y="201.04" width="6.92" height="15.28" rx="2" ry="2"/>
          <rect class="cls-9" x="30.19" y="201.04" width="6.92" height="15.28" rx="2" ry="2"/>
          <g class="cls-18">
            <path class="cls-5" d="M83.6,93.51c4.21,0,7.62,3.41,7.62,7.61s-3.41,7.61-7.62,7.61-7.62-3.41-7.62-7.61,3.41-7.61,7.62-7.61M83.6,92.76c-4.61,0-8.37,3.75-8.37,8.36s3.75,8.36,8.37,8.36,8.37-3.75,8.37-8.36-3.75-8.36-8.37-8.36h0Z"/>
          </g>
        </g>
      </g>
    </g>
  </g>
</svg>