<?xml version="1.0" encoding="UTF-8"?>
<svg xmlns="http://www.w3.org/2000/svg" xmlns:xlink="http://www.w3.org/1999/xlink" viewBox="0 0 499.06 415.71">
  <defs>
    <style>
      .cls-1, .cls-2, .cls-3, .cls-4, .cls-5, .cls-6, .cls-7, .cls-8, .cls-9 {
        fill: none;
      }

      .cls-1, .cls-2, .cls-4, .cls-6, .cls-8 {
        stroke-miterlimit: 10;
      }

      .cls-1, .cls-3 {
        stroke-width: 5px;
      }

      .cls-1, .cls-3, .cls-4, .cls-7, .cls-8, .cls-9 {
        stroke: #ffb700;
      }

      .cls-2, .cls-10, .cls-11, .cls-12, .cls-13, .cls-14, .cls-15, .cls-16 {
        mix-blend-mode: multiply;
      }

      .cls-2, .cls-6 {
        stroke: #828899;
      }

      .cls-17 {
        fill: #ffb700;
      }

      .cls-18 {
        fill: url(#linear-gradient-2);
      }

      .cls-19 {
        fill: url(#linear-gradient-10);
      }

      .cls-20 {
        fill: url(#linear-gradient-13);
        mix-blend-mode: overlay;
      }

      .cls-3, .cls-5, .cls-7, .cls-9 {
        stroke-linecap: round;
        stroke-linejoin: round;
      }

      .cls-21 {
        fill: url(#linear-gradient-4);
      }

      .cls-10 {
        fill: url(#linear-gradient-12);
      }

      .cls-22 {
        fill: url(#radial-gradient);
      }

      .cls-23 {
        fill: #828899;
      }

      .cls-24 {
        fill: url(#linear-gradient-3);
      }

      .cls-25 {
        fill: url(#linear-gradient-5);
      }

      .cls-26 {
        isolation: isolate;
      }

      .cls-4, .cls-7 {
        stroke-width: 6px;
      }

      .cls-11 {
        fill: url(#linear-gradient-8);
      }

      .cls-27 {
        fill: url(#radial-gradient-2);
      }

      .cls-28 {
        fill: url(#linear-gradient-14);
      }

      .cls-5 {
        stroke: #000;
        stroke-width: 2.5px;
      }

      .cls-29 {
        fill: url(#linear-gradient-9);
      }

      .cls-12 {
        fill: url(#linear-gradient-11);
      }

      .cls-30 {
        fill: url(#Summer_3);
      }

      .cls-8 {
        stroke-width: 3px;
      }

      .cls-31 {
        fill: #a3aabf;
      }

      .cls-14 {
        fill: url(#linear-gradient);
      }

      .cls-15 {
        fill: url(#linear-gradient-6);
      }

      .cls-16 {
        fill: url(#linear-gradient-7);
      }
    </style>
    <linearGradient id="linear-gradient" x1="4844.35" y1="1303.94" x2="4844.45" y2="1294.98" gradientTransform="translate(5093.68 1543.55) rotate(-180)" gradientUnits="userSpaceOnUse">
      <stop offset=".18" stop-color="#ffb700"/>
      <stop offset=".36" stop-color="#ffb700" stop-opacity=".76"/>
      <stop offset=".68" stop-color="#ffb700" stop-opacity=".36"/>
      <stop offset=".9" stop-color="#ffb700" stop-opacity=".1"/>
      <stop offset="1" stop-color="#ffb700" stop-opacity="0"/>
    </linearGradient>
    <linearGradient id="linear-gradient-2" x1="-2896.44" y1="3720.33" x2="-2896.44" y2="3735.58" gradientTransform="translate(-2692.04 4094.02) rotate(-180)" gradientUnits="userSpaceOnUse">
      <stop offset=".18" stop-color="#828899"/>
      <stop offset=".49" stop-color="#828899" stop-opacity=".59"/>
      <stop offset=".84" stop-color="#828899" stop-opacity=".17"/>
      <stop offset="1" stop-color="#828899" stop-opacity="0"/>
    </linearGradient>
    <linearGradient id="linear-gradient-3" x1="224.45" y1="214.31" x2="282.92" y2="214.31" gradientUnits="userSpaceOnUse">
      <stop offset="0" stop-color="#828899"/>
      <stop offset=".06" stop-color="#828899" stop-opacity=".95"/>
      <stop offset=".15" stop-color="#828899" stop-opacity=".82"/>
      <stop offset=".26" stop-color="#828899" stop-opacity=".59"/>
      <stop offset=".39" stop-color="#828899" stop-opacity=".29"/>
      <stop offset=".49" stop-color="#828899" stop-opacity="0"/>
    </linearGradient>
    <linearGradient id="linear-gradient-4" x1="289.91" y1="-4.08" x2="289.91" y2="19.91" gradientTransform="matrix(1,0,0,1,0,0)" xlink:href="#linear-gradient-2"/>
    <linearGradient id="linear-gradient-5" x1="208.58" y1="-4.08" x2="208.58" y2="19.91" gradientTransform="matrix(1,0,0,1,0,0)" xlink:href="#linear-gradient-2"/>
    <linearGradient id="linear-gradient-6" x1="269.59" y1="41.57" x2="289.51" y2="41.57" gradientUnits="userSpaceOnUse">
      <stop offset=".05" stop-color="#828899"/>
      <stop offset=".37" stop-color="#828899" stop-opacity=".59"/>
      <stop offset=".71" stop-color="#828899" stop-opacity=".17"/>
      <stop offset=".88" stop-color="#828899" stop-opacity="0"/>
    </linearGradient>
    <linearGradient id="linear-gradient-7" x1="-7532.04" y1="1224.09" x2="-7512.11" y2="1224.09" gradientTransform="translate(-7303.14 1265.66) rotate(-180)" xlink:href="#linear-gradient-6"/>
    <linearGradient id="linear-gradient-8" x1="249.24" y1="87.33" x2="249.24" y2="19.01" gradientUnits="userSpaceOnUse">
      <stop offset="0" stop-color="#ffb700"/>
      <stop offset="0" stop-color="#ffb700" stop-opacity=".99"/>
      <stop offset=".13" stop-color="#ffb700" stop-opacity=".73"/>
      <stop offset=".25" stop-color="#ffb700" stop-opacity=".51"/>
      <stop offset=".36" stop-color="#ffb700" stop-opacity=".33"/>
      <stop offset=".47" stop-color="#ffb700" stop-opacity=".18"/>
      <stop offset=".57" stop-color="#ffb700" stop-opacity=".08"/>
      <stop offset=".66" stop-color="#ffb700" stop-opacity=".02"/>
      <stop offset=".73" stop-color="#ffb700" stop-opacity="0"/>
    </linearGradient>
    <linearGradient id="linear-gradient-9" x1="325.86" y1="174.85" x2="299.04" y2="174.85" gradientUnits="userSpaceOnUse">
      <stop offset="0" stop-color="#828899"/>
      <stop offset=".22" stop-color="#828899" stop-opacity=".59"/>
      <stop offset=".46" stop-color="#828899" stop-opacity=".17"/>
      <stop offset=".58" stop-color="#828899" stop-opacity="0"/>
    </linearGradient>
    <linearGradient id="linear-gradient-10" x1="-7475.23" y1="174.85" x2="-7502.06" y2="174.85" gradientTransform="translate(-7302.61) rotate(-180) scale(1 -1)" xlink:href="#linear-gradient-9"/>
    <linearGradient id="linear-gradient-11" x1="284.8" y1="165.74" x2="315.85" y2="165.74" gradientUnits="userSpaceOnUse">
      <stop offset=".09" stop-color="#ffb700"/>
      <stop offset=".22" stop-color="#ffb700" stop-opacity=".84"/>
      <stop offset=".52" stop-color="#ffb700" stop-opacity=".43"/>
      <stop offset=".81" stop-color="#ffb700" stop-opacity="0"/>
    </linearGradient>
    <linearGradient id="linear-gradient-12" x1="-7130.79" y1="165.74" x2="-7099.74" y2="165.74" gradientTransform="translate(-6917.1) rotate(-180) scale(1 -1)" xlink:href="#linear-gradient-11"/>
    <radialGradient id="Summer_3" data-name="Summer 3" cx="249.24" cy="101.12" fx="249.24" fy="101.12" r="7.61" gradientUnits="userSpaceOnUse">
      <stop offset="0" stop-color="#fff"/>
      <stop offset=".02" stop-color="#fffbf4"/>
      <stop offset=".14" stop-color="#ffebbb"/>
      <stop offset=".25" stop-color="#ffdd89"/>
      <stop offset=".37" stop-color="#ffd15f"/>
      <stop offset=".49" stop-color="#ffc83c"/>
      <stop offset=".61" stop-color="#ffc022"/>
      <stop offset=".74" stop-color="#ffbb0f"/>
      <stop offset=".87" stop-color="#ffb803"/>
      <stop offset="1" stop-color="#ffb700"/>
    </radialGradient>
    <radialGradient id="radial-gradient" cx="299.19" cy="208.68" fx="299.19" fy="208.68" r="14.14" gradientUnits="userSpaceOnUse">
      <stop offset="0" stop-color="#ff192e"/>
      <stop offset=".07" stop-color="#ec1528"/>
      <stop offset=".24" stop-color="#c80d1e"/>
      <stop offset=".41" stop-color="#ab0716"/>
      <stop offset=".58" stop-color="#970310"/>
      <stop offset=".74" stop-color="#8b000d"/>
      <stop offset=".91" stop-color="#87000c"/>
    </radialGradient>
    <radialGradient id="radial-gradient-2" cx="199.3" fx="199.3" r="14.14" xlink:href="#radial-gradient"/>
    <linearGradient id="linear-gradient-13" x1="216.75" y1="326.65" x2="277.53" y2="326.65" gradientUnits="userSpaceOnUse">
      <stop offset=".22" stop-color="#a3aabf" stop-opacity="0"/>
      <stop offset=".78" stop-color="#a3aabf"/>
    </linearGradient>
    <linearGradient id="linear-gradient-14" x1="-2986.12" x2="-2986.12" xlink:href="#linear-gradient-2"/>
  </defs>
  <g class="cls-26">
    <g id="Layer_2" data-name="Layer 2">
      <g id="artwork">
        <g>
          <g>
            <g>
              <rect class="cls-17" x="245.43" y="239.99" width="7.64" height="14.33"/>
              <rect class="cls-14" x="245.43" y="239.99" width="7.64" height="14.33"/>
            </g>
            <polyline class="cls-1" points="265.27 284.73 251.27 253.06 247.22 253.06 233.22 284.73"/>
          </g>
          <g>
            <line class="cls-4" x1="279.43" y1="414.25" x2="279.41" y2="367.43"/>
            <line class="cls-4" x1="219.44" y1="414.29" x2="219.42" y2="367.48"/>
          </g>
          <g>
            <rect x="197.24" y="331.26" width="14.32" height="39.84" rx="6.36" ry="6.36"/>
            <rect class="cls-18" x="197.24" y="331.26" width="14.32" height="39.84" rx="6.36" ry="6.36"/>
          </g>
          <g>
            <rect x="245.43" y="203.43" width="7.64" height="34.12"/>
            <rect x="241.13" y="235.42" width="16.23" height="6.59" rx="3.29" ry="3.29"/>
            <path d="M220.8,186.61h56.89v11.31c0,6-4.87,10.87-10.87,10.87h-35.15c-6,0-10.87-4.87-10.87-10.87v-11.31h0Z"/>
            <path class="cls-24" d="M277.69,186.61v11.31c0,6-4.87,10.87-10.87,10.87h-13.76v26.64h1.01c1.81,0,3.29,1.47,3.29,3.29,0,.91-.37,1.73-.97,2.33-.59.59-1.42.96-2.32.96h-9.65c-1.82,0-3.29-1.47-3.29-3.29,0-.91.37-1.73.96-2.33.6-.59,1.42-.96,2.33-.96h1v-26.64h-13.75c-6,0-10.87-4.87-10.87-10.87v-11.31h56.89Z"/>
          </g>
          <g>
            <g>
              <g>
                <line class="cls-5" x1="269.9" y1="80.56" x2="305.63" y2="80.56"/>
                <path d="M316.18,88.04l-9.14-3.44c-1.45-.55-2.37-1.98-2.26-3.53h0c.15-2.14,2.16-3.64,4.25-3.18l9.24,2.05c1.7.38,2.86,1.94,2.74,3.67l-.1,1.39c-.16,2.34-2.54,3.86-4.73,3.04Z"/>
              </g>
              <g>
                <line class="cls-5" x1="228.59" y1="80.56" x2="192.86" y2="80.56"/>
                <path d="M182.31,88.04l9.14-3.44c1.45-.55,2.37-1.98,2.26-3.53h0c-.15-2.14-2.16-3.64-4.25-3.18l-9.24,2.05c-1.7.38-2.86,1.94-2.74,3.67l.1,1.39c.16,2.34,2.54,3.86,4.73,3.04Z"/>
              </g>
            </g>
            <g>
              <rect x="278.66" y="0" width="22.51" height="62.62" rx="10" ry="10"/>
              <rect class="cls-21" x="278.66" y="0" width="22.51" height="62.62" rx="10" ry="10"/>
            </g>
            <g>
              <rect x="197.32" y="0" width="22.51" height="62.62" rx="10" ry="10"/>
              <rect class="cls-25" x="197.32" y="0" width="22.51" height="62.62" rx="10" ry="10"/>
            </g>
            <g>
              <rect class="cls-23" x="269.59" y="17.13" width="19.92" height="48.89" rx="6" ry="6"/>
              <rect class="cls-15" x="269.59" y="17.13" width="19.92" height="48.89" rx="6" ry="6"/>
            </g>
            <g>
              <rect class="cls-23" x="208.98" y="17.13" width="19.92" height="48.89" rx="6" ry="6"/>
              <rect class="cls-16" x="208.98" y="17.13" width="19.92" height="48.89" rx="6" ry="6"/>
            </g>
            <g>
              <path class="cls-17" d="M275.96,77.27V17.68c0-1.01-.76-2.3-1.71-2.84-15.53-8.71-34.49-8.71-50.01,0-.95.53-1.7,1.83-1.71,2.84v59.59c0,3.88-2.5,7.17-5.98,8.34h65.39c-3.48-1.18-5.98-4.47-5.98-8.34Z"/>
              <path class="cls-11" d="M275.96,77.27V17.68c0-1.01-.76-2.3-1.71-2.84-15.53-8.71-34.49-8.71-50.01,0-.95.53-1.7,1.83-1.71,2.84v59.59c0,3.88-2.5,7.17-5.98,8.34h65.39c-3.48-1.18-5.98-4.47-5.98-8.34Z"/>
            </g>
            <g>
              <rect x="291.12" y="122.95" width="35.19" height="107.28" rx="9.72" ry="9.72"/>
              <path class="cls-29" d="M325.58,138.01l-25.43-9.25c-.98-.36-1.63-1.29-1.63-2.33h0c0-1.72,1.71-2.91,3.32-2.33l25.43,9.25c.98.36,1.63,1.29,1.63,2.33h0c0,1.72-1.71,2.91-3.32,2.33ZM328.9,150.28h0c0-1.04-.65-1.97-1.63-2.33l-25.43-9.25c-1.61-.59-3.32.61-3.32,2.33h0c0,1.04.65,1.97,1.63,2.33l25.43,9.25c1.61.59,3.32-.61,3.32-2.33ZM328.9,164.88h0c0-1.04-.65-1.97-1.63-2.33l-25.43-9.25c-1.61-.59-3.32.61-3.32,2.33h0c0,1.04.65,1.97,1.63,2.33l25.43,9.25c1.61.59,3.32-.61,3.32-2.33ZM328.9,179.48h0c0-1.04-.65-1.97-1.63-2.33l-25.43-9.25c-1.61-.59-3.32.61-3.32,2.33h0c0,1.04.65,1.97,1.63,2.33l25.43,9.25c1.61.59,3.32-.61,3.32-2.33ZM328.9,194.07h0c0-1.04-.65-1.97-1.63-2.33l-25.43-9.25c-1.61-.59-3.32.61-3.32,2.33h0c0,1.04.65,1.97,1.63,2.33l25.43,9.25c1.61.59,3.32-.61,3.32-2.33ZM328.9,208.67h0c0-1.04-.65-1.97-1.63-2.33l-25.43-9.25c-1.61-.59-3.32.61-3.32,2.33h0c0,1.04.65,1.97,1.63,2.33l25.43,9.25c1.61.59,3.32-.61,3.32-2.33ZM328.9,223.27h0c0-1.04-.65-1.97-1.63-2.33l-25.43-9.25c-1.61-.59-3.32.61-3.32,2.33h0c0,1.04.65,1.97,1.63,2.33l25.43,9.25c1.61.59,3.32-.61,3.32-2.33Z"/>
            </g>
            <g>
              <rect x="172.18" y="122.95" width="35.19" height="107.28" rx="9.72" ry="9.72"/>
              <path class="cls-19" d="M169.59,135.68h0c0-1.04.65-1.97,1.63-2.33l25.43-9.25c1.61-.59,3.32.61,3.32,2.33h0c0,1.04-.65,1.97-1.63,2.33l-25.43,9.25c-1.61.59-3.32-.61-3.32-2.33ZM172.91,152.61l25.43-9.25c.98-.36,1.63-1.29,1.63-2.33h0c0-1.72-1.71-2.91-3.32-2.33l-25.43,9.25c-.98.36-1.63,1.29-1.63,2.33h0c0,1.72,1.71,2.91,3.32,2.33ZM172.91,167.21l25.43-9.25c.98-.36,1.63-1.29,1.63-2.33h0c0-1.72-1.71-2.91-3.32-2.33l-25.43,9.25c-.98.36-1.63,1.29-1.63,2.33h0c0,1.72,1.71,2.91,3.32,2.33ZM172.91,181.8l25.43-9.25c.98-.36,1.63-1.29,1.63-2.33h0c0-1.72-1.71-2.91-3.32-2.33l-25.43,9.25c-.98.36-1.63,1.29-1.63,2.33h0c0,1.72,1.71,2.91,3.32,2.33ZM172.91,196.4l25.43-9.25c.98-.36,1.63-1.29,1.63-2.33h0c0-1.72-1.71-2.91-3.32-2.33l-25.43,9.25c-.98.36-1.63,1.29-1.63,2.33h0c0,1.72,1.71,2.91,3.32,2.33ZM172.91,211l25.43-9.25c.98-.36,1.63-1.29,1.63-2.33h0c0-1.72-1.71-2.91-3.32-2.33l-25.43,9.25c-.98.36-1.63,1.29-1.63,2.33h0c0,1.72,1.71,2.91,3.32,2.33ZM172.91,225.6l25.43-9.25c.98-.36,1.63-1.29,1.63-2.33h0c0-1.72-1.71-2.91-3.32-2.33l-25.43,9.25c-.98.36-1.63,1.29-1.63,2.33h0c0,1.72,1.71,2.91,3.32,2.33Z"/>
            </g>
            <g>
              <path class="cls-17" d="M300.1,222.04h-3.3c-6.63,0-12-5.37-12-12v-92.6c0-4.42,3.58-8,8-8h7.05c9.12,0,16.39,7.6,15.98,16.71l-3.75,84.42c-.28,6.41-5.57,11.47-11.99,11.47Z"/>
              <path class="cls-12" d="M300.1,222.04h-3.3c-6.63,0-12-5.37-12-12v-92.6c0-4.42,3.58-8,8-8h7.05c9.12,0,16.39,7.6,15.98,16.71l-3.75,84.42c-.28,6.41-5.57,11.47-11.99,11.47Z"/>
            </g>
            <g>
              <path class="cls-17" d="M198.39,222.04h3.3c6.63,0,12-5.37,12-12v-92.6c0-4.42-3.58-8-8-8h-7.05c-9.12,0-16.39,7.6-15.98,16.71l3.75,84.42c.28,6.41,5.57,11.47,11.99,11.47Z"/>
              <path class="cls-10" d="M198.39,222.04h3.3c6.63,0,12-5.37,12-12v-92.6c0-4.42-3.58-8-8-8h-7.05c-9.12,0-16.39,7.6-15.98,16.71l3.75,84.42c.28,6.41,5.57,11.47,11.99,11.47Z"/>
            </g>
            <rect class="cls-17" x="205.02" y="85" width="88.46" height="112.55" rx="16" ry="16"/>
            <g class="cls-13">
              <g>
                <line class="cls-9" x1="217.32" y1="185.78" x2="217.32" y2="161.59"/>
                <line class="cls-9" x1="222.23" y1="185.78" x2="222.23" y2="161.59"/>
                <line class="cls-9" x1="227.15" y1="185.78" x2="227.15" y2="161.59"/>
                <line class="cls-9" x1="232.06" y1="185.78" x2="232.06" y2="161.59"/>
                <line class="cls-9" x1="236.97" y1="185.78" x2="236.97" y2="161.59"/>
                <line class="cls-9" x1="241.88" y1="185.78" x2="241.88" y2="161.59"/>
                <line class="cls-9" x1="246.79" y1="185.78" x2="246.79" y2="161.59"/>
                <line class="cls-9" x1="251.7" y1="185.78" x2="251.7" y2="161.59"/>
                <line class="cls-9" x1="256.61" y1="185.78" x2="256.61" y2="161.59"/>
                <line class="cls-9" x1="261.52" y1="185.78" x2="261.52" y2="161.59"/>
                <line class="cls-9" x1="266.43" y1="185.78" x2="266.43" y2="161.59"/>
                <line class="cls-9" x1="271.34" y1="185.78" x2="271.34" y2="161.59"/>
                <line class="cls-9" x1="276.25" y1="185.78" x2="276.25" y2="161.59"/>
                <line class="cls-9" x1="281.17" y1="185.78" x2="281.17" y2="161.59"/>
              </g>
              <polyline class="cls-9" points="217.32 152.59 217.32 101.12 281.17 101.12 281.17 152.59"/>
            </g>
            <g class="cls-13">
              <path class="cls-17" d="M300.65,201.04c1.1,0,2,.9,2,2v11.28c0,1.1-.9,2-2,2h-2.92c-1.1,0-2-.9-2-2v-11.28c0-1.1.9-2,2-2h2.92M300.65,200.04h-2.92c-1.65,0-3,1.35-3,3v11.28c0,1.65,1.35,3,3,3h2.92c1.65,0,3-1.35,3-3v-11.28c0-1.65-1.35-3-3-3h0Z"/>
            </g>
            <circle class="cls-30" cx="249.24" cy="101.12" r="7.61"/>
            <g class="cls-13">
              <path class="cls-17" d="M200.76,201.04c1.1,0,2,.9,2,2v11.28c0,1.1-.9,2-2,2h-2.92c-1.1,0-2-.9-2-2v-11.28c0-1.1.9-2,2-2h2.92M200.76,200.04h-2.92c-1.65,0-3,1.35-3,3v11.28c0,1.65,1.35,3,3,3h2.92c1.65,0,3-1.35,3-3v-11.28c0-1.65-1.35-3-3-3h0Z"/>
            </g>
            <rect class="cls-22" x="295.73" y="201.04" width="6.92" height="15.28" rx="2" ry="2"/>
            <rect class="cls-27" x="195.84" y="201.04" width="6.92" height="15.28" rx="2" ry="2"/>
            <g class="cls-13">
              <path class="cls-17" d="M249.24,93.51c4.21,0,7.61,3.41,7.61,7.61s-3.41,7.62-7.61,7.62-7.62-3.41-7.62-7.62,3.41-7.61,7.62-7.61M249.24,92.76c-4.61,0-8.37,3.75-8.37,8.36s3.75,8.37,8.37,8.37,8.36-3.75,8.36-8.37-3.75-8.36-8.36-8.36h0Z"/>
            </g>
          </g>
          <g>
            <rect class="cls-31" x="211.56" y="269.32" width="75.36" height="114.67" rx="30" ry="30"/>
            <rect class="cls-20" x="211.56" y="269.32" width="75.36" height="114.67" rx="30" ry="30"/>
          </g>
          <g>
            <rect x="286.92" y="331.26" width="14.32" height="39.84" rx="6.36" ry="6.36"/>
            <rect class="cls-28" x="286.92" y="331.26" width="14.32" height="39.84" rx="6.36" ry="6.36"/>
          </g>
          <g>
            <circle cx="249.24" cy="297.01" r="12.66"/>
            <circle class="cls-6" cx="249.24" cy="297.01" r="3.81"/>
            <circle class="cls-2" cx="249.24" cy="297.01" r="16.45"/>
          </g>
          <polygon class="cls-7" points="279.66 387 496.06 387 496.06 400.81 279.77 412.71 219.29 412.71 3 400.81 3 387 219.41 387 279.66 387"/>
          <g>
            <g>
              <line class="cls-8" x1="221.22" y1="387.6" x2="180.48" y2="408.51"/>
              <line class="cls-8" x1="184.42" y1="387.59" x2="146.51" y2="406.84"/>
              <line class="cls-8" x1="147.62" y1="387.58" x2="112.53" y2="405.18"/>
              <line class="cls-8" x1="110.82" y1="387.57" x2="78.55" y2="403.51"/>
              <line class="cls-8" x1="74.01" y1="387.56" x2="44.57" y2="401.84"/>
              <line class="cls-8" x1="37.21" y1="387.56" x2="10.59" y2="400.18"/>
            </g>
            <g>
              <line class="cls-8" x1="181.22" y1="387.26" x2="220.48" y2="410.84"/>
              <line class="cls-8" x1="147.01" y1="387.48" x2="183.54" y2="408.87"/>
              <line class="cls-8" x1="112.8" y1="387.7" x2="146.61" y2="406.89"/>
              <line class="cls-8" x1="78.6" y1="387.91" x2="109.67" y2="404.92"/>
              <line class="cls-8" x1="44.39" y1="388.13" x2="72.73" y2="402.94"/>
              <line class="cls-8" x1="10.18" y1="388.35" x2="35.8" y2="400.97"/>
            </g>
          </g>
          <g>
            <g>
              <line class="cls-8" x1="277.85" y1="387.6" x2="318.58" y2="408.51"/>
              <line class="cls-8" x1="314.65" y1="387.59" x2="352.56" y2="406.84"/>
              <line class="cls-8" x1="351.45" y1="387.58" x2="386.54" y2="405.18"/>
              <line class="cls-8" x1="388.25" y1="387.57" x2="420.52" y2="403.51"/>
              <line class="cls-8" x1="425.05" y1="387.56" x2="454.49" y2="401.84"/>
              <line class="cls-8" x1="461.85" y1="387.56" x2="488.47" y2="400.18"/>
            </g>
            <g>
              <line class="cls-8" x1="317.84" y1="387.26" x2="278.59" y2="410.84"/>
              <line class="cls-8" x1="352.05" y1="387.48" x2="315.52" y2="408.87"/>
              <line class="cls-8" x1="386.26" y1="387.7" x2="352.46" y2="406.89"/>
              <line class="cls-8" x1="420.47" y1="387.91" x2="389.4" y2="404.92"/>
              <line class="cls-8" x1="454.68" y1="388.13" x2="426.33" y2="402.94"/>
              <line class="cls-8" x1="488.89" y1="388.35" x2="463.27" y2="400.97"/>
            </g>
          </g>
          <line class="cls-8" x1="218.69" y1="389.47" x2="279.29" y2="410.06"/>
          <line class="cls-8" x1="279.29" y1="389.47" x2="218.69" y2="410.06"/>
          <line class="cls-3" x1="210.65" y1="321.37" x2="288.52" y2="321.37"/>
        </g>
      </g>
    </g>
  </g>
</svg>